<?xml version="1.0" encoding="UTF-8" standalone="no"?>
<svg width="34" xmlns="http://www.w3.org/2000/svg" viewBox="0 0 34 39" height="39">
 <path d="m16.998 12c-1.249-0.001-2.475 0.356-3.552 1.034-1.076 0.679-1.963 1.654-2.569 2.825s-0.9076 2.494-0.875 3.832c0.034 1.338 0.4 2.642 1.063 3.776 0.02 0.045 0.044 0.086 0.073 0.125 0.661 1.089 1.576 1.975 2.653 2.572 1.077 0.596 2.281 0.882 3.493 0.83 1.211-0.052 2.39-0.441 3.419-1.129 1.029-0.687 1.874-1.649 2.452-2.792s0.868-2.427 0.843-3.726c-0.024-1.3-0.364-2.57-0.984-3.686-0.621-1.117-1.502-2.041-2.557-2.683-1.054-0.642-2.246-0.979-3.459-0.978zm-5.071 9.697c-0.515-1.332-0.553-2.822-0.105-4.182 0.447-1.36 1.348-2.495 2.528-3.187 1.181-0.692 2.559-0.891 3.869-0.56 1.31 0.332 2.459 1.17 3.227 2.355l-4.224 4.518-1.615-1.723c-0.145-0.153-0.34-0.238-0.543-0.238s-0.398 0.085-0.544 0.238l-2.593 2.779zm5.071 3.634c-0.814 0-1.618-0.195-2.352-0.571-0.735-0.377-1.382-0.924-1.893-1.603l2.325-2.492 1.616 1.731c0.145 0.153 0.34 0.238 0.543 0.238s0.398-0.085 0.543-0.238l4.405-4.728c0.267 0.878 0.337 1.813 0.203 2.726s-0.467 1.779-0.973 2.528-1.17 1.359-1.937 1.78c-0.768 0.421-1.618 0.642-2.48 0.644v-0.015z" fill="#E93B3C"/>
 <path d="m29.338 18.987c-0.134-3.853-1.3-7.61-3.389-10.915-2.089-3.3048-5.031-6.0481-8.548-7.97-0.122-0.06683-0.26-0.102-0.4-0.102-0.141 0-0.279 0.03517-0.401 0.10198-3.519 1.9193-6.463 4.662-8.552 7.9674-2.0894 3.3056-3.2546 7.0636-3.385 10.918-1.3828 0.565-2.5611 1.503-3.3895 2.698-0.8284 1.194-1.2706 2.593-1.2721 4.023v5.386c-0.0062278 0.098 0.008732 0.196 0.04392 0.288s0.08986 0.176 0.16064 0.248c0.07078 0.071 0.15618 0.128 0.25093 0.167 0.09475 0.038 0.19685 0.058 0.3 0.058h11.824c0.179 2.31 1.231 4.48 2.961 6.111l0.892 0.811c0.074 0.071 0.163 0.127 0.26 0.165s0.202 0.058 0.307 0.058c0.104 0.002 0.207-0.018 0.304-0.056 0.096-0.038 0.183-0.095 0.255-0.167l0.899-0.833c1.731-1.629 2.781-3.801 2.954-6.11h2.486v3.935c0 0.201 0.084 0.395 0.234 0.538s0.354 0.223 0.567 0.223c0.212 0 0.416-0.08 0.566-0.223s0.234-0.337 0.234-0.538v-3.914h7.699c0.106 0.001 0.21-0.018 0.308-0.056 0.097-0.038 0.186-0.094 0.261-0.165 0.074-0.071 0.133-0.155 0.173-0.248 0.04-0.092 0.06-0.192 0.059-0.292v-5.386c-0.002-1.43-0.444-2.829-1.272-4.023-0.829-1.195-2.007-2.133-3.39-2.698zm-12.345-17.341c2.491 1.4277 4.661 3.3092 6.384 5.5364h-12.761c1.723-2.2254 3.89-4.1066 6.377-5.5364zm-15.398 28.723v-4.661c-0.0049-1.016 0.2718-2.015 0.8023-2.898 0.5305-0.882 1.2961-1.616 2.2198-2.128v8.89c0.0023 0.259 0.0508 0.517 0.1436 0.761l-3.1657 0.036zm15.73 6.549l-0.333 0.308-0.332-0.308c-1.428-1.343-2.306-3.125-2.478-5.027h5.613c-0.17 1.899-1.043 3.68-2.463 5.027h-0.007zm10.418-7.346c-0.004 0.2-0.089 0.392-0.239 0.534-0.149 0.142-0.35 0.223-0.562 0.227h-19.885c-0.1055 0.001-0.2101-0.018-0.3077-0.056s-0.1863-0.094-0.2609-0.165-0.1335-0.155-0.1734-0.248-0.0599-0.192-0.0589-0.292v-9.867c0.0146-2.72 0.5815-5.411 1.6697-7.927h3.6342c0.2-0.019 0.385-0.107 0.52-0.248 0.135-0.142 0.21-0.326 0.21-0.517s-0.075-0.375-0.21-0.516c-0.135-0.142-0.32-0.23-0.52-0.249h-2.9391c0.2795-0.531 0.5893-1.0481 0.9142-1.5579h14.929c2.146 3.3119 3.281 7.1259 3.279 11.015v9.867zm4.654 0.761h-3.188c0.09-0.245 0.136-0.502 0.136-0.761v-8.876c0.924 0.512 1.689 1.246 2.22 2.129 0.53 0.882 0.807 1.881 0.802 2.898l0.03 4.61z" fill="#E93B3C"/>
 <path d="m14.83 10.296c-0.082-0.173-0.193-0.278-0.312-0.294-0.119-0.0157-0.237 0.059-0.329 0.21l-0.043 0.084c-0.047 0.091-0.085 0.2-0.11 0.322s-0.038 0.252-0.036 0.384c0 0.197 0.029 0.39 0.084 0.554s0.133 0.292 0.225 0.368c0.091 0.076 0.192 0.095 0.289 0.057 0.097-0.039 0.186-0.134 0.256-0.273 0.046-0.093 0.083-0.203 0.108-0.324s0.038-0.251 0.038-0.382c-0.001-0.135-0.017-0.268-0.046-0.39-0.03-0.122-0.072-0.229-0.124-0.316z" fill="#E93B3C"/>
 <path d="m9.5 34c-0.0658-0.001-0.1311 0.014-0.1921 0.043-0.0609 0.03-0.1163 0.073-0.1628 0.128-0.0466 0.055-0.0834 0.12-0.1083 0.192s-0.0374 0.149-0.0368 0.227v1.82c0 0.156 0.0527 0.307 0.1465 0.417 0.0937 0.111 0.2209 0.173 0.3535 0.173s0.2598-0.062 0.3535-0.173c0.0938-0.11 0.1465-0.261 0.1465-0.417v-1.82c0.001-0.078-0.0119-0.155-0.0368-0.227s-0.0617-0.137-0.1083-0.192c-0.0465-0.055-0.1019-0.098-0.1628-0.128-0.061-0.029-0.1263-0.044-0.1921-0.043z" fill="#E93B3C"/>
 <path d="m24.855 37.293c-0.047-0.093-0.102-0.167-0.163-0.217s-0.126-0.076-0.192-0.076c-0.066-0.003-0.132 0.021-0.193 0.072-0.061 0.05-0.116 0.125-0.162 0.221-0.093 0.188-0.145 0.442-0.145 0.707s0.052 0.519 0.145 0.707c0.046 0.096 0.101 0.171 0.162 0.221 0.061 0.051 0.127 0.075 0.193 0.072 0.067-0.003 0.133-0.033 0.194-0.088 0.061-0.056 0.116-0.135 0.161-0.233 0.093-0.189 0.145-0.443 0.145-0.707 0-0.265-0.052-0.519-0.145-0.708v0.029z" fill="#E93B3C"/>
</svg>
