<?xml version="1.0" encoding="UTF-8" standalone="no"?>
<svg width="41" xmlns="http://www.w3.org/2000/svg" viewBox="0 0 41 39" height="39">
 <path d="m27.741 4.8708h-4.269v-0.1908c-0.006-0.5748-0.242-1.1246-0.658-1.5333s-0.979-0.6445-1.57-0.6573h-1.46c-0.325-0.7382-0.865-1.3677-1.554-1.8102-0.689-0.44252-1.497-0.67869-2.323-0.6792h-0.119c-0.826 0.00050812-1.634 0.23668-2.323 0.67921-0.689 0.44249-1.23 1.072-1.554 1.8102h-1.494c-0.6018 0.0022-1.1782 0.2354-1.6037 0.6489-0.4254 0.4134-0.6654 0.9736-0.6677 1.5583v0.1908h-4.2265c-2.459 0-3.9191 1.1452-3.9191 3.0537v27.25c0.0044937 1.009 0.41884 1.975 1.1528 2.689 0.734 0.713 1.7283 1.116 2.7663 1.12h23.822c1.038-0.004 2.033-0.407 2.767-1.12 0.734-0.714 1.148-1.68 1.152-2.689v-17.243c-0.021-0.2-0.123-0.383-0.283-0.51-0.16-0.128-0.365-0.189-0.571-0.17-0.178 0.02-0.345 0.097-0.472 0.221s-0.208 0.286-0.228 0.459v17.243c-0.001 0.301-0.063 0.599-0.182 0.876-0.12 0.277-0.294 0.529-0.514 0.741s-0.48 0.38-0.766 0.494c-0.287 0.114-0.593 0.172-0.903 0.171h-23.822c-0.6234 0-1.2215-0.24-1.6632-0.668-0.4417-0.427-0.691-1.008-0.6933-1.614v-27.266c0-0.3822 0-1.5273 2.3566-1.5273h4.2265v1.0704c0.0044 0.2003 0.0889 0.3912 0.2355 0.5321s0.3439 0.2209 0.5501 0.223h13.798c0.206-0.0021 0.404-0.0821 0.55-0.223 0.147-0.1409 0.231-0.3318 0.236-0.5321v-1.0704h4.269c0.624 0 1.222 0.2401 1.663 0.6678 0.442 0.4277 0.691 1.0081 0.693 1.6141v2.5724c0.022 0.2 0.124 0.383 0.284 0.51 0.16 0.128 0.364 0.189 0.57 0.17 0.179-0.019 0.346-0.097 0.473-0.221 0.127-0.123 0.207-0.285 0.227-0.459v-2.5724c-0.001-0.5027-0.104-1.0002-0.303-1.464-0.2-0.4637-0.492-0.8846-0.859-1.2385s-0.803-0.6338-1.282-0.8237c-0.479-0.1898-0.992-0.2858-1.509-0.2826zm-5.797 1.8339h-12.227v-2.0247c0.0018-0.1806 0.076-0.3533 0.2066-0.4818 0.1304-0.1284 0.3074-0.2026 0.4934-0.2069h2.006c0.173 0.0022 0.341-0.0512 0.478-0.1518 0.138-0.1006 0.237-0.2428 0.282-0.4042 0.153-0.5467 0.487-1.0294 0.95-1.3742 0.463-0.3447 1.029-0.5324 1.612-0.5343h0.153c0.584 0.0019 1.15 0.1896 1.612 0.5343 0.463 0.3448 0.797 0.8275 0.95 1.3742 0.045 0.1614 0.145 0.3036 0.282 0.4042 0.138 0.1006 0.306 0.154 0.478 0.1518h2.006c0.186 0.0043 0.363 0.0785 0.494 0.2069 0.13 0.1285 0.204 0.3012 0.207 0.4818l0.017 2.0247z" fill="#E93B3C"/>
 <path d="m30.883 13.675c-0.208 0-0.408 0.08-0.555 0.223-0.147 0.144-0.23 0.338-0.23 0.54 0.007 0.201 0.089 0.393 0.23 0.54 0.149 0.14 0.348 0.217 0.555 0.215 0.1 0.003 0.199-0.014 0.293-0.049 0.093-0.036 0.178-0.088 0.25-0.155s0.13-0.147 0.17-0.236 0.062-0.185 0.064-0.282c0.002-0.201-0.077-0.395-0.222-0.539-0.145-0.15-0.343-0.241-0.555-0.257z" fill="#E93B3C"/>
 <path d="m39.345 24.529c-0.208 0-0.408 0.08-0.555 0.223-0.148 0.143-0.231 0.338-0.231 0.54 0.007 0.201 0.089 0.393 0.231 0.539 0.149 0.139 0.348 0.217 0.555 0.217s0.406-0.078 0.555-0.217c0.142-0.146 0.223-0.338 0.23-0.539 0-0.202-0.082-0.397-0.23-0.54-0.147-0.143-0.347-0.223-0.555-0.223z" fill="#E93B3C"/>
 <path d="m40.062 14.106l-2.51-5.443c-0.089-0.1822-0.248-0.3229-0.444-0.3913-0.195-0.0684-0.41-0.059-0.598 0.0262-0.175 0.0752-0.315 0.2113-0.392 0.3817l-2.502 5.4264c-0.048 0.099-0.072 0.207-0.069 0.316v22.761c0 0.239 0.049 0.476 0.144 0.697 0.094 0.221 0.233 0.422 0.407 0.591 0.175 0.169 0.382 0.302 0.61 0.393s0.472 0.137 0.718 0.136h2.852c0.495-0.002 0.969-0.194 1.319-0.535 0.351-0.34 0.548-0.801 0.551-1.282v-8.564c0-0.202-0.083-0.396-0.23-0.539-0.148-0.144-0.348-0.224-0.556-0.224s-0.408 0.08-0.555 0.224c-0.148 0.143-0.231 0.337-0.231 0.539v5.319h-3.415v-18.745h3.415v7.037c0 0.202 0.083 0.397 0.231 0.54 0.147 0.143 0.347 0.223 0.555 0.223s0.408-0.08 0.556-0.223c0.147-0.143 0.23-0.338 0.23-0.54v-7.792c-0.003-0.115-0.032-0.229-0.086-0.332zm-3.227-3.269l1.297 2.821h-2.561l1.264-2.821zm1.707 24.611v1.718c0 0.077-0.031 0.151-0.087 0.206-0.056 0.054-0.132 0.085-0.211 0.085h-2.818c-0.08-0.002-0.155-0.033-0.212-0.087s-0.091-0.127-0.096-0.204v-1.659l3.424-0.059z" fill="#E93B3C"/>
 <path d="m9.2215 10.97c-0.6518 0-1.2891 0.188-1.8311 0.54-0.5419 0.352-0.9644 0.852-1.2138 1.437-0.2495 0.585-0.3148 1.229-0.1876 1.851 0.1272 0.621 0.4411 1.192 0.902 1.64s1.0482 0.753 1.6875 0.876c0.6393 0.124 1.302 0.06 1.9045-0.182 0.602-0.242 1.117-0.653 1.479-1.18 0.362-0.526 0.555-1.146 0.555-1.779 0-0.85-0.347-1.664-0.965-2.265s-1.456-0.938-2.3305-0.938zm0 4.871c-0.3377 0-0.6679-0.098-0.9487-0.28s-0.4997-0.441-0.629-0.745c-0.1292-0.303-0.163-0.637-0.0972-0.959 0.0659-0.322 0.2286-0.617 0.4674-0.849s0.5431-0.39 0.8744-0.455c0.3312-0.064 0.6746-0.031 0.9866 0.095s0.579 0.338 0.766 0.611c0.188 0.273 0.288 0.594 0.288 0.922 0 0.218-0.044 0.434-0.13 0.635-0.086 0.202-0.211 0.384-0.37 0.539-0.159 0.154-0.347 0.276-0.554 0.359-0.2072 0.084-0.4292 0.127-0.6535 0.127z" fill="#E93B3C"/>
 <path d="m9.2215 20.106c-0.6518 0-1.2891 0.188-1.8311 0.54-0.5419 0.352-0.9644 0.852-1.2138 1.437-0.2495 0.585-0.3148 1.229-0.1876 1.851 0.1272 0.621 0.4411 1.192 0.902 1.64s1.0482 0.753 1.6875 0.876c0.6393 0.124 1.302 0.06 1.9045-0.182 0.602-0.242 1.117-0.653 1.479-1.18 0.362-0.526 0.555-1.146 0.555-1.779 0-0.85-0.347-1.664-0.965-2.265s-1.456-0.938-2.3305-0.938zm0 4.879c-0.3377 0-0.6679-0.097-0.9487-0.28-0.2808-0.182-0.4997-0.441-0.629-0.745-0.1292-0.303-0.163-0.636-0.0972-0.958 0.0659-0.322 0.2286-0.618 0.4674-0.85s0.5431-0.39 0.8744-0.454c0.3312-0.064 0.6746-0.031 0.9866 0.094 0.312 0.126 0.579 0.338 0.766 0.611 0.188 0.273 0.288 0.594 0.288 0.922 0 0.441-0.18 0.863-0.5 1.174s-0.7546 0.486-1.2075 0.486z" fill="#E93B3C"/>
 <path d="m9.2215 29.25c-0.6518 0-1.2891 0.188-1.8311 0.54-0.5419 0.352-0.9644 0.852-1.2138 1.437-0.2495 0.586-0.3148 1.23-0.1876 1.851s0.4411 1.192 0.902 1.64 1.0482 0.753 1.6875 0.876c0.6393 0.124 1.302 0.061 1.9045-0.182 0.602-0.242 1.117-0.653 1.479-1.179 0.362-0.527 0.555-1.146 0.555-1.78 0-0.849-0.347-1.664-0.965-2.265-0.618-0.6-1.456-0.938-2.3305-0.938zm0 4.871c-0.3377 0-0.6679-0.097-0.9487-0.28-0.2808-0.182-0.4997-0.441-0.629-0.745-0.1292-0.303-0.163-0.636-0.0972-0.958 0.0659-0.322 0.2286-0.618 0.4674-0.85s0.5431-0.39 0.8744-0.454c0.3312-0.064 0.6746-0.032 0.9866 0.094s0.579 0.338 0.766 0.611c0.188 0.273 0.288 0.594 0.288 0.922 0 0.441-0.18 0.863-0.5 1.174s-0.7546 0.486-1.2075 0.486z" fill="#E93B3C"/>
 <path d="m24.949 15.841h-8.991c-0.208 0-0.408 0.08-0.555 0.223-0.147 0.144-0.23 0.338-0.23 0.54 0 0.203 0.083 0.397 0.23 0.54s0.347 0.224 0.555 0.224h8.991c0.209 0 0.408-0.081 0.556-0.224 0.147-0.143 0.23-0.337 0.23-0.54 0-0.202-0.083-0.396-0.23-0.54-0.148-0.143-0.347-0.223-0.556-0.223z" fill="#E93B3C"/>
 <path d="m24.949 12.19h-8.991c-0.205 0.021-0.394 0.12-0.525 0.275s-0.194 0.354-0.175 0.554c0.02 0.174 0.1 0.336 0.228 0.46 0.127 0.123 0.294 0.201 0.472 0.221h8.991c0.104 0.012 0.208 0.003 0.308-0.024 0.1-0.028 0.194-0.075 0.275-0.138 0.081-0.064 0.148-0.142 0.198-0.231s0.081-0.186 0.092-0.287c0.011-0.1 0.001-0.202-0.029-0.299-0.03-0.096-0.08-0.186-0.146-0.265-0.066-0.078-0.147-0.142-0.239-0.189-0.092-0.048-0.193-0.077-0.296-0.086-0.055-0.005-0.11-0.002-0.163 0.009z" fill="#E93B3C"/>
 <path d="m24.949 24.985h-8.991c-0.208 0-0.408 0.08-0.555 0.223-0.147 0.144-0.23 0.338-0.23 0.54 0 0.203 0.083 0.397 0.23 0.54s0.347 0.224 0.555 0.224h8.991c0.209 0 0.408-0.081 0.556-0.224 0.147-0.143 0.23-0.337 0.23-0.54 0-0.202-0.083-0.396-0.23-0.54-0.148-0.143-0.347-0.223-0.556-0.223z" fill="#E93B3C"/>
 <path d="m24.949 21.325h-8.991c-0.208 0-0.408 0.081-0.555 0.224s-0.23 0.337-0.23 0.54c0 0.202 0.083 0.397 0.23 0.54s0.347 0.223 0.555 0.223h8.991c0.209 0 0.408-0.08 0.556-0.223 0.147-0.143 0.23-0.338 0.23-0.54 0-0.203-0.083-0.397-0.23-0.54-0.148-0.143-0.347-0.224-0.556-0.224z" fill="#E93B3C"/>
 <path d="m24.949 34.121h-8.991c-0.208 0-0.408 0.08-0.555 0.224-0.147 0.143-0.23 0.337-0.23 0.539 0 0.203 0.083 0.397 0.23 0.54s0.347 0.224 0.555 0.224h8.991c0.209 0 0.408-0.081 0.556-0.224 0.147-0.143 0.23-0.337 0.23-0.54 0-0.202-0.083-0.396-0.23-0.539-0.148-0.144-0.347-0.224-0.556-0.224z" fill="#E93B3C"/>
 <path d="m24.949 30.47h-8.991c-0.205 0.021-0.394 0.12-0.525 0.275s-0.194 0.355-0.175 0.555c0.02 0.173 0.1 0.335 0.228 0.459 0.127 0.123 0.294 0.201 0.472 0.221h8.991c0.206 0.018 0.411-0.043 0.57-0.171 0.16-0.127 0.261-0.311 0.282-0.51 0.022-0.2-0.039-0.4-0.168-0.557-0.129-0.156-0.316-0.257-0.521-0.28l-0.163 0.008z" fill="#E93B3C"/>
</svg>
