<?xml version="1.0" encoding="UTF-8" standalone="no"?>
<svg width="41" xmlns="http://www.w3.org/2000/svg" viewBox="0 0 41 39" height="39">
 <path d="m27.518 25.736c-0.303-0.041-0.586-0.164-0.817-0.353-0.23-0.189-0.398-0.436-0.484-0.712-0.086-0.277-0.085-0.571 0.001-0.847 0.087-0.276 0.256-0.522 0.487-0.711 0.232-0.188 0.515-0.31 0.818-0.35 0.303-0.041 0.611 0.001 0.889 0.121s0.514 0.312 0.679 0.555c0.165 0.242 0.252 0.524 0.252 0.812 0.023 0.202 0.127 0.388 0.293 0.519 0.165 0.131 0.378 0.196 0.593 0.182 0.187-0.027 0.361-0.109 0.495-0.235s0.221-0.29 0.249-0.466c-0.019-0.706-0.293-1.384-0.776-1.924s-1.147-0.909-1.882-1.047v-0.401c0.014-0.103 0.005-0.208-0.025-0.309-0.031-0.1-0.082-0.194-0.151-0.275-0.069-0.082-0.155-0.149-0.252-0.199s-0.204-0.081-0.314-0.092c-0.111-0.01-0.222 0-0.328 0.03-0.106 0.031-0.204 0.081-0.289 0.148-0.086 0.066-0.156 0.148-0.207 0.241s-0.082 0.194-0.091 0.298c-0.009 0.052-0.009 0.106 0 0.158v0.401c-0.735 0.138-1.398 0.507-1.881 1.047s-0.757 1.218-0.777 1.924c0.035 0.84 0.421 1.634 1.076 2.206 0.654 0.573 1.523 0.878 2.415 0.848 0.302 0.043 0.584 0.167 0.813 0.357 0.23 0.19 0.396 0.437 0.481 0.714 0.084 0.276 0.083 0.569-0.005 0.845-0.087 0.275-0.257 0.521-0.488 0.709-0.232 0.187-0.515 0.308-0.818 0.348-0.302 0.04-0.61-0.002-0.887-0.122-0.278-0.12-0.513-0.312-0.677-0.554-0.165-0.242-0.253-0.524-0.253-0.811-0.02-0.182-0.106-0.351-0.244-0.48-0.138-0.128-0.319-0.207-0.513-0.223-0.193-0.015-0.386 0.033-0.545 0.137-0.16 0.103-0.276 0.257-0.328 0.432-0.009 0.053-0.009 0.106 0 0.159 0.019 0.706 0.293 1.384 0.776 1.924s1.147 0.909 1.882 1.047v0.334c-0.014 0.103-0.005 0.208 0.025 0.309 0.031 0.1 0.082 0.194 0.151 0.275 0.069 0.082 0.155 0.149 0.252 0.199s0.204 0.081 0.314 0.092c0.111 0.01 0.222 0 0.328-0.03 0.106-0.031 0.204-0.081 0.289-0.148 0.086-0.066 0.156-0.148 0.207-0.241s0.082-0.194 0.091-0.298c0.009-0.052 0.009-0.106 0-0.158v-0.334c0.735-0.138 1.398-0.507 1.881-1.047s0.757-1.218 0.777-1.924c-0.013-0.418-0.113-0.83-0.295-1.211s-0.442-0.725-0.766-1.011-0.704-0.51-1.12-0.657c-0.415-0.147-0.858-0.215-1.301-0.201z" fill="#E93B3C"/>
 <path d="m36.415 20.656c-1.04-1.548-2.516-2.787-4.259-3.578-0.095-0.044-0.198-0.07-0.303-0.076-0.105-0.007-0.21 0.006-0.31 0.039-0.1 0.032-0.192 0.083-0.271 0.149s-0.143 0.146-0.19 0.236c-0.046 0.09-0.074 0.188-0.08 0.287-0.007 0.1 0.007 0.2 0.041 0.295s0.087 0.182 0.157 0.257c0.069 0.075 0.154 0.137 0.248 0.181 2.105 0.963 3.72 2.681 4.492 4.775 0.771 2.095 0.636 4.395-0.377 6.395l-0.153 0.283c-0.099 0.173-0.124 0.375-0.068 0.564s0.187 0.349 0.366 0.448c0.116 0.057 0.244 0.087 0.375 0.089 0.143-0.004 0.283-0.043 0.407-0.112 0.123-0.069 0.226-0.167 0.3-0.285 0.863-1.545 1.277-3.281 1.201-5.029-0.076-1.749-0.641-3.446-1.636-4.918h0.06z" fill="#E93B3C"/>
 <path d="m29 16c-0.265 0-0.52 0.105-0.707 0.293-0.188 0.187-0.293 0.442-0.293 0.707s0.105 0.52 0.293 0.707c0.187 0.188 0.442 0.293 0.707 0.293s0.52-0.105 0.707-0.293c0.188-0.187 0.293-0.442 0.293-0.707s-0.105-0.52-0.293-0.707c-0.187-0.188-0.442-0.293-0.707-0.293z" fill="#E93B3C"/>
 <path d="m23.558 33.565c-2.097-0.964-3.707-2.684-4.476-4.782-0.769-2.097-0.634-4.401 0.376-6.403l0.152-0.284c0.049-0.087 0.08-0.184 0.089-0.282 0.01-0.099-0.001-0.199-0.032-0.294-0.03-0.095-0.081-0.183-0.147-0.259-0.067-0.077-0.148-0.14-0.241-0.186-0.188-0.083-0.401-0.098-0.6-0.041s-0.369 0.181-0.478 0.349c-1.284 2.321-1.551 5.033-0.74 7.541 0.81 2.508 2.631 4.606 5.062 5.833l0.348 0.17c0.106 0.048 0.222 0.073 0.339 0.073 0.208-0.014 0.403-0.1 0.549-0.242 0.145-0.142 0.231-0.33 0.241-0.528-0.008-0.138-0.053-0.271-0.131-0.387-0.077-0.116-0.184-0.212-0.311-0.278z" fill="#E93B3C"/>
 <path d="m26.484 35c-0.128 0-0.251 0.053-0.342 0.146-0.091 0.094-0.142 0.221-0.142 0.354s0.051 0.26 0.142 0.354c0.091 0.093 0.214 0.146 0.342 0.146h0.032c0.128 0 0.251-0.053 0.342-0.146 0.091-0.094 0.142-0.221 0.142-0.354s-0.051-0.26-0.142-0.354c-0.091-0.093-0.214-0.146-0.342-0.146h-0.032z" fill="#E93B3C"/>
 <path d="m31.04 13.275c-0.101-0.221-0.221-0.433-0.359-0.634h2.084c0.976 0 1.912-0.373 2.602-1.038s1.078-1.566 1.078-2.5065c0-0.9401-0.388-1.8418-1.078-2.5066s-1.626-1.0382-2.602-1.0382h-6.413c0.379-0.5322 0.601-1.154 0.64-1.7985 0.04-0.6444-0.105-1.287-0.417-1.8584s-0.78-1.0498-1.353-1.3838c-0.574-0.33387-1.231-0.51058-1.902-0.511h-19.64c-0.9757 0-1.9118 0.37347-2.602 1.0383-0.69025 0.6647-1.078 1.5664-1.078 2.5065 0 0.9402 0.38775 1.8418 1.078 2.5066 0.6902 0.6648 1.6263 1.0383 2.6024 1.0383h6.4126c-0.4202 0.591-0.6464 1.2903-0.6487 2.0068-0.0014 0.7171 0.225 1.4175 0.6487 2.0065h-2.0662c-0.7647-0.001-1.5108 0.228-2.1345 0.654s-1.0941 1.029-1.3458 1.725c-0.2516 0.695-0.2721 1.449-0.0585 2.156 0.2136 0.708 0.6506 1.333 1.2503 1.79-0.7629 0.587-1.2533 1.441-1.3638 2.375-0.1104 0.934 0.1681 1.873 0.7746 2.609 0.1723 0.211 0.3701 0.402 0.5892 0.568-0.7629 0.586-1.2533 1.44-1.3638 2.375-0.1104 0.934 0.1681 1.872 0.7746 2.609 0.1723 0.211 0.3701 0.402 0.5892 0.568-0.5963 0.457-1.0302 1.082-1.2417 1.788s-0.1901 1.458 0.0612 2.151c0.2513 0.694 0.72 1.295 1.3415 1.721 0.6214 0.426 1.3649 0.655 2.1275 0.656h9.4362c1.434 1.478 3.205 2.615 5.172 3.323 1.968 0.708 4.079 0.968 6.168 0.759s4.099-0.881 5.874-1.964c1.774-1.083 3.264-2.546 4.353-4.276 1.088-1.73 1.746-3.68 1.922-5.695 0.176-2.016-0.135-4.044-0.909-5.925-0.774-1.88-1.99-3.563-3.552-4.915-1.562-1.353-3.427-2.339-5.451-2.88zm1.708-6.1853c0.552 0 1.082 0.2114 1.473 0.5878 0.391 0.3763 0.61 0.8868 0.61 1.419 0 0.5323-0.219 1.0425-0.61 1.4195-0.391 0.376-0.921 0.587-1.473 0.587h-19.64c-0.553 0-1.083-0.211-1.474-0.587-0.39-0.377-0.61-0.8872-0.61-1.4195 0-0.5322 0.22-1.0427 0.61-1.419 0.391-0.3764 0.921-0.5878 1.474-0.5878h19.64zm-29.034-1.538c-0.2736 0-0.5445-0.0519-0.7973-0.1528-0.2528-0.1008-0.4825-0.2487-0.676-0.435-0.1934-0.1864-0.3469-0.4076-0.4516-0.6511s-0.1586-0.5044-0.1586-0.768c0-0.2635 0.0539-0.5245 0.1586-0.7679 0.1047-0.2435 0.2582-0.4647 0.4516-0.6511 0.1935-0.1864 0.4232-0.3342 0.676-0.435 0.2528-0.1009 0.5237-0.1528 0.7973-0.1528h19.64c0.274 0 0.545 0.0519 0.798 0.1528 0.253 0.1008 0.482 0.2486 0.676 0.435 0.193 0.1864 0.347 0.4076 0.452 0.6511 0.104 0.2434 0.158 0.5044 0.158 0.7679 0 0.2636-0.054 0.5245-0.158 0.768-0.105 0.2435-0.259 0.4647-0.452 0.6511-0.194 0.1863-0.423 0.3342-0.676 0.435-0.253 0.1009-0.524 0.1528-0.797 0.1528h-19.64zm4.3209 7.0893h19.64c0.317 0.002 0.629 0.072 0.914 0.206-0.387-0.033-0.771-0.049-1.153-0.049-1.79 0-3.562 0.342-5.215 1.004s-3.154 1.631-4.417 2.853h-9.7772c-0.5526 0-1.0825-0.211-1.4733-0.588-0.3907-0.376-0.6102-0.887-0.6102-1.419s0.2195-1.042 0.6102-1.419c0.3908-0.376 0.9207-0.588 1.4733-0.588h0.0086zm0 5.552h8.3766c-0.922 1.214-1.621 2.572-2.066 4.014h-6.3192c-0.5526 0-1.0825-0.212-1.4733-0.588-0.3907-0.377-0.6102-0.887-0.6102-1.419s0.2195-1.043 0.6102-1.419c0.3908-0.377 0.9207-0.588 1.4733-0.588h0.0086zm0 5.552h5.9776c-0.123 0.715-0.185 1.438-0.188 2.163 0.003 0.619 0.049 1.237 0.137 1.85h-5.9352c-0.5526 0-1.0825-0.211-1.4733-0.587-0.3907-0.377-0.6102-0.887-0.6102-1.419 0-0.533 0.2195-1.043 0.6102-1.42 0.3908-0.376 0.9207-0.587 1.4733-0.587h0.0086zm0 9.565c-0.5526 0-1.0826-0.211-1.4733-0.588-0.3908-0.376-0.6103-0.887-0.6103-1.419s0.2195-1.043 0.6103-1.419c0.3907-0.376 0.9207-0.588 1.4733-0.588h6.2336c0.398 1.432 1.045 2.79 1.913 4.014h-8.1466zm19.376 4.162c-2.375 0.001-4.697-0.675-6.672-1.945-1.975-1.269-3.515-3.074-4.426-5.186-0.91-2.113-1.149-4.438-0.688-6.681 0.462-2.244 1.604-4.305 3.282-5.923 1.677-1.619 3.816-2.721 6.145-3.169 2.328-0.448 4.742-0.221 6.937 0.653 2.194 0.874 4.071 2.355 5.391 4.255 1.321 1.901 2.027 4.136 2.028 6.424-0.002 3.067-1.267 6.008-3.518 8.177s-5.304 3.39-8.488 3.395h0.009z" fill="#E93B3C"/>
</svg>
