<?xml version="1.0" encoding="UTF-8" standalone="no"?>
<svg width="41" xmlns="http://www.w3.org/2000/svg" viewBox="0 0 41 39" height="39">
 <path d="m40.132 15.409h-6.401c-0.021 0-0.042-0.007-0.058-0.021-0.015-0.014-0.025-0.032-0.028-0.053v-1.48c0-0.225-0.092-0.441-0.256-0.601-0.165-0.16-0.388-0.252-0.621-0.254h-17.228c-0.213 0-0.417 0.081-0.567 0.226s-0.235 0.342-0.235 0.546c0 0.205 0.085 0.402 0.235 0.546 0.15 0.145 0.354 0.227 0.567 0.227h16.407c0.021 0.002 0.041 0.011 0.055 0.027 0.014 0.015 0.022 0.035 0.022 0.055v5.838c-0.002 2.554-0.693 5.063-2.006 7.282-1.313 2.218-3.203 4.068-5.483 5.369h-15.425c-2.2837-1.298-4.177-3.148-5.4935-5.366-1.3164-2.219-2.0105-4.729-2.0139-7.285v-5.838c-0.0001-0.02 0.0076-0.04 0.0217-0.055 0.0141-0.016 0.0335-0.025 0.0546-0.027h5.2848c0.1046 0.011 0.2105 0.003 0.3117-0.025s0.1957-0.075 0.2781-0.138c0.0823-0.064 0.151-0.142 0.202-0.231 0.0511-0.088 0.0835-0.186 0.0953-0.287 0.012-0.101 0.0031-0.203-0.0259-0.3-0.029-0.098-0.0777-0.189-0.1433-0.268-0.0655-0.08-0.1466-0.146-0.2387-0.195s-0.1934-0.08-0.298-0.092c-0.0568-0.009-0.1148-0.009-0.1717 0h-6.0956c-0.23274 0-0.45597 0.089-0.62055 0.248-0.16459 0.159-0.25705 0.374-0.25705 0.598v6.61c0.0042014 2.401 0.56182 4.77 1.6325 6.937 1.0707 2.168 2.6277 4.078 4.5585 5.594 0.0134 0.014 0.0209 0.032 0.0209 0.051s-0.0075 0.037-0.0209 0.051c-0.0112 0.007-0.0245 0.011-0.0382 0.011-0.0136 0-0.0269-0.004-0.0381-0.011h-5.2371c-0.23274 0-0.45597 0.089-0.62055 0.247-0.16459 0.159-0.25705 0.374-0.25705 0.598 0.010072 1.345 0.5713 2.631 1.5613 3.578s2.3285 1.479 3.7235 1.479h24.993c1.389 0 2.723-0.526 3.713-1.465 0.991-0.939 1.559-2.216 1.581-3.555-0.002-0.225-0.097-0.44-0.263-0.598-0.166-0.159-0.39-0.248-0.624-0.248h-7.135c-0.01-0.013-0.015-0.029-0.015-0.046 0-0.016 0.005-0.032 0.015-0.046-0.004-0.015-0.004-0.03 0-0.046 1.345-1.092 2.506-2.38 3.443-3.815h2.204c2.069 0 4.054-0.792 5.517-2.203 1.464-1.41 2.286-3.323 2.286-5.318v-5.396c0.001-0.111-0.02-0.222-0.063-0.325s-0.107-0.197-0.187-0.276c-0.081-0.079-0.177-0.143-0.283-0.186-0.106-0.044-0.22-0.067-0.335-0.068zm-6.363 19.307c0.023 0 0.045 0.008 0.061 0.024s0.025 0.036 0.025 0.058c-0.203 0.766-0.665 1.444-1.313 1.929-0.648 0.484-1.444 0.747-2.264 0.747h-24.993c-0.8193 0.001-1.6153-0.261-2.2618-0.746-0.6464-0.485-1.1062-1.164-1.3061-1.93-0.0064-0.006-0.0114-0.013-0.0149-0.021-0.0034-0.007-0.0052-0.016-0.0052-0.025 0-0.008 0.0018-0.017 0.0052-0.024 0.0035-0.008 0.0085-0.016 0.0149-0.022h32.052v0.01zm-0.124-14.214v-0.423h2.48c0.023 0 0.045 0.009 0.061 0.024 0.016 0.016 0.025 0.037 0.025 0.059v1.462c-0.005 0.764-0.322 1.495-0.883 2.036-0.56 0.54-1.319 0.846-2.112 0.851-0.02 0-0.04-0.008-0.054-0.022s-0.022-0.032-0.022-0.052c0.334-1.293 0.504-2.621 0.505-3.953v0.018zm5.724 1.158c0 1.586-0.653 3.106-1.816 4.226-1.163 1.121-2.74 1.75-4.385 1.75h-1.106c-0.02-0.002-0.038-0.01-0.052-0.023-0.014-0.014-0.023-0.031-0.025-0.05 0.22-0.451 0.43-0.919 0.611-1.388h0.61c1.22 0 2.389-0.467 3.252-1.298 0.862-0.831 1.346-1.958 1.346-3.134v-2.39c0-0.227-0.093-0.444-0.26-0.605-0.166-0.16-0.392-0.25-0.627-0.25h-3.186c-0.021 0-0.042-0.007-0.058-0.021-0.015-0.014-0.025-0.032-0.028-0.053v-1.388c0-0.022 0.009-0.043 0.025-0.058 0.016-0.016 0.038-0.025 0.061-0.025h5.6c0.022 0 0.044 0.009 0.06 0.025 0.016 0.015 0.025 0.036 0.025 0.058l-0.047 4.624z" fill="#E93B3C"/>
 <path d="m17.869 4.0876l-0.225-0.2443c-0.391-0.3753-0.62-0.8424-0.655-1.3317-0.034-0.4892 0.129-0.9743 0.465-1.3828 0.11-0.16038 0.145-0.34757 0.097-0.527-0.047-0.17943-0.173-0.33899-0.355-0.44924s-0.408-0.16374-0.635-0.15061c-0.227 0.013131-0.441 0.092-0.601 0.22205-0.621 0.61842-0.96 1.3898-0.96 2.1852s0.339 1.5667 0.96 2.1851l0.438 0.4434c0.459 0.4762 0.708 1.062 0.708 1.6649s-0.249 1.1887-0.708 1.6649l-0.45 0.4705c-0.129 0.1592-0.178 0.3519-0.138 0.5393 0.041 0.1874 0.168 0.3555 0.356 0.4703 0.188 0.1149 0.423 0.1684 0.658 0.1485 0.235-0.0195 0.452-0.11 0.607-0.2533l0.461-0.4614c0.722-0.7416 1.112-1.6576 1.108-2.6-0.004-0.9425-0.402-1.8563-1.131-2.5938z" fill="#E93B3C"/>
 <path d="m22.152 5.514l-0.176-0.2555c-0.291-0.4073-0.462-0.9156-0.486-1.4477-0.025-0.5322 0.1-1.059 0.353-1.5005 0.101-0.1767 0.141-0.3921 0.111-0.6021-0.029-0.2101-0.126-0.3989-0.27-0.528-0.143-0.1348-0.326-0.19794-0.508-0.1759-0.183 0.0221-0.351 0.1275-0.468 0.2938-0.458 0.6716-0.708 1.5071-0.708 2.3684 0 0.8612 0.25 1.6967 0.708 2.3683l0.334 0.4914c0.341 0.5172 0.526 1.1534 0.526 1.8082s-0.185 1.291-0.526 1.8086l-0.343 0.501c-0.056 0.088-0.097 0.188-0.121 0.295-0.022 0.107-0.027 0.218-0.013 0.327s0.046 0.214 0.095 0.308 0.113 0.175 0.19 0.239c0.122 0.119 0.275 0.185 0.434 0.187 0.106 0 0.21-0.028 0.306-0.083 0.095-0.054 0.179-0.133 0.245-0.231l0.333-0.502c0.542-0.808 0.835-1.8087 0.832-2.8383-0.003-1.0295-0.302-2.0276-0.848-2.8317z" fill="#E93B3C"/>
 <path d="m13.164 6.0508l-0.209-0.2336c-0.292-0.3725-0.464-0.8373-0.488-1.3239s0.101-0.9684 0.355-1.3721c0.082-0.1594 0.108-0.3453 0.072-0.5235-0.035-0.1782-0.129-0.3367-0.265-0.4462-0.135-0.1095-0.303-0.1626-0.472-0.1496-0.169 0.0131-0.328 0.0914-0.448 0.2206-0.459 0.6142-0.709 1.3782-0.709 2.1658s0.25 1.5516 0.709 2.1658l0.335 0.4493c0.341 0.473 0.527 1.0547 0.527 1.6536 0 0.5988-0.186 1.1805-0.527 1.653l-0.343 0.459c-0.057 0.078-0.1 0.167-0.125 0.262-0.025 0.096-0.032 0.196-0.021 0.294 0.011 0.099 0.039 0.194 0.085 0.28 0.045 0.087 0.105 0.163 0.178 0.224 0.122 0.109 0.276 0.169 0.435 0.171 0.106 0 0.211-0.026 0.307-0.076 0.095-0.049 0.179-0.122 0.245-0.212l0.334-0.458c0.553-0.736 0.856-1.6514 0.861-2.5968 0.004-0.9455-0.29-1.8645-0.836-2.6064z" fill="#E93B3C"/>
 <path d="m12.637 13.272c-0.181-0.175-0.422-0.272-0.672-0.272s-0.491 0.097-0.672 0.272c-0.188 0.19-0.293 0.447-0.293 0.716 0 0.268 0.105 0.526 0.293 0.716 0.188 0.189 0.442 0.296 0.708 0.296 0.265 0 0.519-0.107 0.707-0.296 0.093-0.092 0.166-0.202 0.216-0.323s0.076-0.25 0.076-0.381c0-0.132-0.026-0.261-0.076-0.382s-0.123-0.23-0.216-0.322l-0.071-0.024z" fill="#E93B3C"/>
 <path d="m29.198 20c-0.203 0.005-0.398 0.089-0.542 0.236-0.144 0.146-0.227 0.343-0.231 0.55-0.008 2.948-1.156 5.775-3.197 7.87-0.072 0.073-0.13 0.16-0.169 0.255-0.039 0.096-0.059 0.198-0.059 0.302 0 0.103 0.02 0.206 0.059 0.301 0.039 0.096 0.097 0.183 0.169 0.256 0.071 0.073 0.155 0.13 0.249 0.17 0.093 0.04 0.193 0.06 0.294 0.06s0.201-0.02 0.295-0.06c0.093-0.04 0.178-0.097 0.249-0.17 2.342-2.384 3.665-5.608 3.685-8.975-0.001-0.104-0.023-0.207-0.063-0.303-0.041-0.096-0.099-0.183-0.173-0.256-0.073-0.073-0.16-0.131-0.256-0.17-0.095-0.038-0.198-0.058-0.3-0.057l-0.01-0.009z" fill="#E93B3C"/>
 <path d="m23.878 30.515c-0.13-0.23-0.346-0.401-0.602-0.475-0.255-0.074-0.53-0.045-0.764 0.08-0.117 0.065-0.219 0.153-0.3 0.258-0.082 0.105-0.142 0.225-0.177 0.353s-0.044 0.262-0.026 0.393c0.017 0.132 0.061 0.258 0.128 0.373 0.086 0.153 0.213 0.281 0.366 0.369 0.153 0.089 0.327 0.135 0.504 0.134 0.174-0.001 0.345-0.046 0.496-0.132 0.226-0.135 0.391-0.35 0.46-0.602 0.07-0.252 0.039-0.521-0.085-0.751z" fill="#E93B3C"/>
</svg>
