<?xml version="1.0" encoding="UTF-8" standalone="no"?>
<svg width="64" xmlns="http://www.w3.org/2000/svg" fill="none" viewBox="0 0 64 64" height="64">
 <path stroke-linejoin="round" stroke="#E03D3B" stroke-width="2" stroke-linecap="round" d="m31.843 42.253c10.309 0 18.667-7.668 18.667-17.127 0-9.458-8.358-17.126-18.667-17.126s-18.667 7.668-18.667 17.126c0 9.459 8.358 17.127 18.667 17.127z"/>
 <path stroke-linejoin="round" stroke="#E03D3B" stroke-width="2" stroke-linecap="round" d="m21.736 39.537l-3.227 22.288 13.334-7.339 13.333 7.339-3.227-22.313"/>
 <path stroke-linejoin="round" stroke="#E03D3B" stroke-width="2" stroke-linecap="round" d="m25.742 32.126h-2.845c-0.503 0-0.986-0.18-1.341-0.502-0.356-0.321-0.556-0.756-0.556-1.21v-5.995c0-0.454 0.2-0.889 0.556-1.211 0.355-0.321 0.838-0.501 1.341-0.501h2.845m6.639-1.713v-3.425c0-0.681-0.3-1.335-0.834-1.817-0.533-0.481-1.257-0.752-2.012-0.752l-3.793 7.707v9.419h10.698c0.457 0.005 0.901-0.14 1.25-0.408 0.348-0.267 0.578-0.639 0.646-1.048l1.309-7.706c0.041-0.246 0.023-0.496-0.054-0.735-0.076-0.238-0.209-0.459-0.39-0.646-0.18-0.187-0.404-0.337-0.655-0.439-0.25-0.102-0.523-0.153-0.798-0.15h-5.367z"/>
</svg>
