<svg width="64" height="64" viewBox="0 0 64 64" fill="none" xmlns="http://www.w3.org/2000/svg">
<path d="M28.5253 55.1674C43.2396 55.1674 55.1679 43.2391 55.1679 28.5248C55.1679 13.8106 43.2396 1.88232 28.5253 1.88232C13.8111 1.88232 1.88281 13.8106 1.88281 28.5248C1.88281 43.2391 13.8111 55.1674 28.5253 55.1674Z" stroke="#E03D3B" stroke-width="2" stroke-linecap="round" stroke-linejoin="round"/>
<path d="M62.1177 62.1172L48.2173 48.2168" stroke="#E03D3B" stroke-width="2" stroke-linecap="round" stroke-linejoin="round"/>
<path d="M34.3166 18.0991H15.7827V34.3163H34.3166V18.0991Z" stroke="#E03D3B" stroke-width="2" stroke-linecap="round" stroke-linejoin="round"/>
<path d="M34.3164 25.0508H39.6118L43.5834 28.5259V34.3177H34.3164V25.0508Z" stroke="#E03D3B" stroke-width="2" stroke-linecap="round" stroke-linejoin="round"/>
<path d="M21.5747 41.2657C23.494 41.2657 25.0498 39.7098 25.0498 37.7905C25.0498 35.8713 23.494 34.3154 21.5747 34.3154C19.6555 34.3154 18.0996 35.8713 18.0996 37.7905C18.0996 39.7098 19.6555 41.2657 21.5747 41.2657Z" stroke="#E03D3B" stroke-width="2" stroke-linecap="round" stroke-linejoin="round"/>
<path d="M37.7915 41.2657C39.7108 41.2657 41.2666 39.7098 41.2666 37.7905C41.2666 35.8713 39.7108 34.3154 37.7915 34.3154C35.8723 34.3154 34.3164 35.8713 34.3164 37.7905C34.3164 39.7098 35.8723 41.2657 37.7915 41.2657Z" stroke="#E03D3B" stroke-width="2" stroke-linecap="round" stroke-linejoin="round"/>
</svg>
