<?xml version="1.0" encoding="UTF-8" standalone="no"?>
<svg width="64" xmlns="http://www.w3.org/2000/svg" fill="none" viewBox="0 0 64 64" height="64">
 <path stroke-linejoin="round" stroke="#E03D3B" stroke-width="3.7647" stroke-linecap="round" d="m40.939 21.067l9.333-9.334m5.333-5.3331l-5.333 5.3331 5.333-5.3331zm-25.626 25.627c1.377 1.358 2.471 2.976 3.22 4.759s1.139 3.697 1.145 5.632c0.006 1.934-0.37 3.85-1.107 5.639-0.737 1.788-1.821 3.413-3.189 4.781-1.368 1.367-2.992 2.451-4.781 3.188-1.788 0.738-3.704 1.114-5.639 1.107-1.934-0.006-3.848-0.395-5.631-1.144-1.784-0.75-3.401-1.844-4.7598-3.221-2.6716-2.766-4.15-6.471-4.1165-10.317 0.0334-3.845 1.5759-7.524 4.2952-10.243 2.7191-2.719 6.3981-4.262 10.243-4.295 3.846-0.034 7.551 1.445 10.317 4.116l0.003-0.002zm0 0l10.96-10.96-10.96 10.96zm10.96-10.96l8 8 9.333-9.334-8-8-9.333 9.334z"/>
</svg>
