<?xml version="1.0" encoding="UTF-8" standalone="no"?>
<svg width="64" xmlns="http://www.w3.org/2000/svg" fill="none" viewBox="0 0 64 64" height="64">
 <path fill="#E03D3B" clip-rule="evenodd" d="m27.137 6c-1.594 0-3.097 0.7112-4.185 1.9316-1.085 1.2166-1.678 2.8444-1.678 4.5214v6.931h-12.615c-3.6445 0-6.8358 2.608-6.8358 6.099v25.494c0 3.491 3.1913 6.099 6.8354 6.099h46.682c3.644 0 6.835-2.608 6.835-6.099v-25.494c0-3.491-3.191-6.099-6.835-6.099h-12.616v-6.931c0-1.677-0.593-3.3048-1.678-4.5214-1.088-1.2204-2.59-1.9316-4.185-1.9316h-9.725zm13.588 13.384v-6.931c0-1.216-0.431-2.362-1.17-3.1903-0.736-0.8249-1.707-1.2627-2.693-1.2627h-9.725c-0.985 0-1.957 0.4378-2.692 1.2627-0.739 0.8283-1.171 1.9743-1.171 3.1903v6.931h17.451zm-18.451 2h33.067c2.801 0 4.835 1.958 4.835 4.099v25.494c0 2.142-2.034 4.099-4.835 4.099h-46.682c-2.8019 0-4.8358-1.957-4.8358-4.099v-25.494c0-2.141 2.0339-4.099 4.8354-4.099h13.615zm27.504 5.041c0.36 0.42 0.312 1.051-0.108 1.411l-23.402 20.076c-0.374 0.322-0.927 0.322-1.302 0l-10.637-9.126c-0.419-0.359-0.467-0.99-0.108-1.41 0.36-0.419 0.991-0.467 1.41-0.108l9.986 8.568 22.751-19.518c0.419-0.36 1.051-0.312 1.41 0.107z" fill-rule="evenodd"/>
</svg>
