<?xml version="1.0" encoding="UTF-8" standalone="no"?>
<svg width="64" xmlns="http://www.w3.org/2000/svg" fill="none" viewBox="0 0 64 64" height="64">
 <path stroke-linejoin="round" stroke="#E03D3B" stroke-width="2" stroke-linecap="round" d="m28.525 55.167c14.715 0 26.643-11.928 26.643-26.642s-11.928-26.643-26.643-26.643c-14.714 0.0003-26.642 11.929-26.642 26.643-0.0002 14.714 11.928 26.642 26.642 26.642z"/>
 <path stroke-linejoin="round" stroke="#E03D3B" stroke-width="2" stroke-linecap="round" d="m62.118 62.117l-13.901-13.9"/>
 <path stroke-linejoin="round" stroke="#E03D3B" stroke-width="2" stroke-linecap="round" d="m34.317 18.099h-18.534v16.217h18.534v-16.217z"/>
 <path stroke-linejoin="round" stroke="#E03D3B" stroke-width="2" stroke-linecap="round" d="m34.316 25.051h5.296l3.971 3.475v5.792h-9.267v-9.267z"/>
 <path stroke-linejoin="round" stroke="#E03D3B" stroke-width="2" stroke-linecap="round" d="m21.575 41.266c1.919 0 3.475-1.556 3.475-3.476 0-1.919-1.556-3.475-3.475-3.475s-3.475 1.556-3.475 3.475c0 1.92 1.556 3.476 3.475 3.476z"/>
 <path stroke-linejoin="round" stroke="#E03D3B" stroke-width="2" stroke-linecap="round" d="m37.792 41.266c1.919 0 3.475-1.556 3.475-3.476 0-1.919-1.556-3.475-3.475-3.475-1.92 0-3.476 1.556-3.476 3.475 0 1.92 1.556 3.476 3.476 3.476z"/>
</svg>
