<?xml version="1.0" encoding="UTF-8" standalone="no"?>
<svg width="15" xmlns="http://www.w3.org/2000/svg" fill="none" viewBox="0 0 15 15" height="15">
 <path stroke-linejoin="round" stroke="#FF5449" stroke-width="2" stroke-linecap="round" d="m14 10.733v1.957c0 0.182-0.037 0.362-0.11 0.528s-0.18 0.316-0.314 0.439-0.292 0.216-0.465 0.274c-0.172 0.058-0.355 0.08-0.536 0.064-2.012-0.218-3.9437-0.904-5.6412-2.003-1.5793-1.002-2.9183-2.3379-3.9218-3.914-1.1047-1.7019-1.7921-3.6394-2.0067-5.6558-0.01633-0.1804 0.0051-0.3622 0.0631-0.5339 0.0579-0.1717 0.151-0.3294 0.2734-0.4632 0.1223-0.1337 0.2713-0.2406 0.4373-0.3138s0.3455-0.1111 0.5269-0.1112h1.961c0.3172-0.00315 0.6247 0.109 0.8652 0.3154s0.3976 0.4931 0.442 0.8066c0.0828 0.6263 0.2363 1.2412 0.4576 1.8331 0.0879 0.2335 0.1069 0.4872 0.0548 0.7312-0.0521 0.2439-0.1732 0.4678-0.349 0.6452l-0.8301 0.8285c0.9305 1.6331 2.2854 2.9854 3.9218 3.9139l0.8301-0.8283c0.1778-0.1754 0.4026-0.2963 0.6466-0.3483 0.244-0.0521 0.499-0.0331 0.733 0.0547 0.593 0.2209 1.209 0.374 1.836 0.4566 0.318 0.0447 0.608 0.2044 0.815 0.4485 0.207 0.2438 0.318 0.5558 0.31 0.8758z"/>
</svg>
