<?xml version="1.0" encoding="UTF-8" standalone="no"?>
<svg width="34" xmlns="http://www.w3.org/2000/svg" fill="none" viewBox="0 0 34 34" height="34">
 <path stroke-linejoin="round" stroke="#303134" stroke-width="2" stroke-linecap="round" d="m15.154 29.308c7.817 0 14.154-6.337 14.154-14.154 0-7.8171-6.337-14.154-14.154-14.154-7.8171 0-14.154 6.3369-14.154 14.154 0 7.817 6.3369 14.154 14.154 14.154z"/>
 <path stroke-linejoin="round" stroke="#303134" stroke-width="2" stroke-linecap="round" d="m33 33l-7.385-7.384"/>
 <path stroke-linejoin="round" stroke="#303134" stroke-width="2" stroke-linecap="round" d="m18.231 9.6158h-9.8462v8.6152h9.8462v-8.6152z"/>
 <path stroke-linejoin="round" stroke="#303134" stroke-width="2" stroke-linecap="round" d="m18.23 13.308h2.814l2.11 1.846v3.077h-4.924v-4.923z"/>
 <path stroke-linejoin="round" stroke="#303134" stroke-width="2" stroke-linecap="round" d="m11.461 21.923c1.02 0 1.847-0.827 1.847-1.846 0-1.02-0.827-1.846-1.847-1.846-1.019 0-1.8458 0.826-1.8458 1.846 0 1.019 0.8268 1.846 1.8458 1.846z"/>
 <path stroke-linejoin="round" stroke="#303134" stroke-width="2" stroke-linecap="round" d="m20.077 21.923c1.019 0 1.846-0.827 1.846-1.846 0-1.02-0.827-1.846-1.846-1.846-1.02 0-1.847 0.826-1.847 1.846 0 1.019 0.827 1.846 1.847 1.846z"/>
</svg>
