<?xml version="1.0" encoding="UTF-8" standalone="no"?>
<svg width="34" xmlns="http://www.w3.org/2000/svg" fill="none" viewBox="0 0 34 34" height="34">
 <path fill="#303134" clip-rule="evenodd" d="m14.417 2c-1.023 0-1.952 0.4979-2.601 1.2916-0.645 0.788-0.983 1.8209-0.983 2.8658v3.5926h-6.233c-2.2178 0-4.1 1.724-4.1 3.952v14.762c0 2.228 1.8822 3.953 4.1 3.953h24.8c2.218 0 4.1-1.725 4.1-3.953v-14.762c0-2.228-1.882-3.952-4.1-3.952h-6.233v-3.5926c0-1.0449-0.338-2.0778-0.983-2.8658-0.649-0.7937-1.578-1.2916-2.601-1.2916h-5.166zm6.75 7.75v-3.5926c0-0.6299-0.207-1.2032-0.531-1.5994-0.32-0.3906-0.705-0.558-1.053-0.558h-5.166c-0.348 0-0.733 0.1674-1.053 0.558-0.324 0.3962-0.531 0.9695-0.531 1.5994v3.5926h8.334zm-9.334 2h17.567c1.206 0 2.1 0.92 2.1 1.952v14.762c0 1.033-0.894 1.953-2.1 1.953h-24.8c-1.2063 0-2.1-0.92-2.1-1.953v-14.762c0-1.032 0.8937-1.952 2.1-1.952h7.233zm14.939 2.192c0.377 0.403 0.356 1.036-0.047 1.413l-12.433 11.625c-0.384 0.36-0.981 0.36-1.366 0l-5.6507-5.284c-0.4034-0.377-0.4246-1.01-0.0474-1.413s1.01-0.425 1.4134-0.047l4.9677 4.645 11.75-10.986c0.403-0.378 1.036-0.356 1.413 0.047z" fill-rule="evenodd"/>
</svg>
