<?xml version="1.0" encoding="UTF-8" standalone="no"?>
<svg width="34" xmlns="http://www.w3.org/2000/svg" fill="none" viewBox="0 0 34 34" height="34">
 <path stroke-linejoin="round" stroke="#E03D3B" stroke-width="2" stroke-linecap="round" d="m22.25 29.5v-2.833c0-1.503-0.597-2.945-1.66-4.007-1.062-1.063-2.504-1.66-4.007-1.66h-9.9163c-1.5029 0-2.9443 0.597-4.007 1.66-1.0627 1.062-1.6597 2.504-1.6597 4.007v2.833"/>
 <path stroke-linejoin="round" stroke="#E03D3B" stroke-width="2" stroke-linecap="round" d="m11.625 15.333c3.13 0 5.667-2.537 5.667-5.6663 0-3.1297-2.537-5.6667-5.667-5.6667-3.1294 0-5.6665 2.537-5.6665 5.6667 0 3.1293 2.5371 5.6663 5.6665 5.6663z"/>
 <path stroke-linejoin="round" stroke="#E03D3B" stroke-width="2" stroke-linecap="round" d="m23.667 15.333l2.833 2.834 5.667-5.667"/>
</svg>
