<?xml version="1.0" encoding="UTF-8" standalone="no"?>
<svg width="34" xmlns="http://www.w3.org/2000/svg" fill="none" viewBox="0 0 34 34" height="34">
 <path stroke-linejoin="round" stroke="#E03D3B" stroke-width="2" stroke-linecap="round" d="m16.917 20.833c5.477 0 9.916-4.439 9.916-9.916 0-5.4772-4.439-9.917-9.916-9.917s-9.917 4.4398-9.917 9.917c0 5.477 4.44 9.916 9.917 9.916z"/>
 <path stroke-linejoin="round" stroke="#E03D3B" stroke-width="2" stroke-linecap="round" d="m11.547 19.261l-1.714 12.906 7.083-4.25 7.084 4.25-1.714-12.92"/>
 <path stroke-linejoin="round" stroke="#E03D3B" stroke-width="2" stroke-linecap="round" d="m13.769 15.167h-1.511c-0.268 0-0.524-0.105-0.713-0.291s-0.295-0.438-0.295-0.701v-3.471c0-0.263 0.106-0.515 0.295-0.701s0.445-0.2905 0.713-0.2905h1.511m3.527-0.9917v-1.9833c0-0.3945-0.159-0.7729-0.443-1.0518-0.283-0.279-0.668-0.4357-1.069-0.4357l-2.015 4.4625v5.4545h5.683c0.243 0.002 0.479-0.081 0.664-0.236 0.186-0.155 0.308-0.371 0.344-0.607l0.695-4.4628c0.022-0.1421 0.012-0.2872-0.028-0.4253-0.041-0.138-0.112-0.2657-0.208-0.3742-0.095-0.1085-0.214-0.1951-0.347-0.254-0.134-0.0589-0.278-0.0885-0.424-0.0869h-2.852z"/>
</svg>
