<?xml version="1.0" encoding="UTF-8" standalone="no"?>
<svg width="34" xmlns="http://www.w3.org/2000/svg" fill="none" viewBox="0 0 34 34" height="34">
 <path d="m31.866 20.179v-9.096l0.378-0.113c1.451-0.436 1.756-1.1734 1.756-1.7154s-0.305-1.2795-1.756-1.715l-12.421-3.7262c-0.765-0.2295-1.768-0.3559-2.823-0.3559s-2.058 0.1264-2.823 0.3559l-12.421 3.7262c-1.4513 0.4355-1.756 1.173-1.756 1.715s0.30467 1.2794 1.7563 1.7154l4.6453 1.393v4.894c0 0.932 0.6061 2.245 3.4935 3.208 1.9129 0.637 4.4359 0.989 7.1049 0.989s5.192-0.352 7.105-0.989c2.887-0.963 3.493-2.276 3.493-3.208v-4.894l2.276-0.682v8.498c-1.239 0.417-2.134 1.589-2.134 2.966v4.268c0 1.726 1.404 3.13 3.13 3.13s3.13-1.404 3.13-3.13v-4.268c0-1.377-0.895-2.549-2.134-2.966zm-17.117-14.457c0.577-0.1729 1.397-0.272 2.251-0.272s1.675 0.0991 2.251 0.2719l11.777 3.5331-4.717 1.4154c-0.003 0-0.005 0.001-0.008 0.002l-7.052 2.116c-0.576 0.173-1.397 0.272-2.251 0.272s-1.674-0.099-2.25-0.272l-7.0528-2.116c-0.0027-0.001-0.0054-0.002-0.0081-0.002l-4.7164-1.4154 11.776-3.533zm10.857 11.534c0 0.129-0.362 0.729-2.131 1.319-1.715 0.571-4.014 0.886-6.475 0.886s-4.76-0.315-6.475-0.886c-1.7694-0.59-2.1312-1.19-2.1312-1.319v-4.295l5.7832 1.735c0.765 0.23 1.768 0.356 2.823 0.356s2.058-0.126 2.823-0.356l5.783-1.735v4.295zm6.402 10.157c0 0.627-0.511 1.137-1.138 1.137s-1.138-0.51-1.138-1.137v-4.268c0-0.627 0.511-1.138 1.138-1.138 0.628 0 1.138 0.511 1.138 1.138v4.268z" fill="#303134"/>
</svg>
