<?xml version="1.0" encoding="UTF-8" standalone="no"?>
<svg width="34" xmlns="http://www.w3.org/2000/svg" fill="none" viewBox="0 0 34 34" height="34">
 <path stroke-linejoin="round" stroke="#E03D3B" stroke-width="2" stroke-linecap="round" d="m12.334 31.75c0.782 0 1.416-0.634 1.416-1.417 0-0.782-0.634-1.417-1.416-1.417-0.783 0-1.417 0.635-1.417 1.417 0 0.783 0.634 1.417 1.417 1.417z"/>
 <path stroke-linejoin="round" stroke="#E03D3B" stroke-width="2" stroke-linecap="round" d="m27.917 31.75c0.782 0 1.416-0.634 1.416-1.417 0-0.782-0.634-1.417-1.416-1.417-0.783 0-1.417 0.635-1.417 1.417 0 0.783 0.634 1.417 1.417 1.417z"/>
 <path stroke-linejoin="round" stroke="#E03D3B" stroke-width="2" stroke-linecap="round" d="m1 2h5.6667l3.7963 18.969c0.13 0.652 0.485 1.238 1.003 1.655s1.166 0.639 1.831 0.626h13.77c0.665 0.013 1.313-0.209 1.831-0.626s0.872-1.003 1.002-1.655l2.267-11.886h-24.084"/>
</svg>
