<?xml version="1.0" encoding="UTF-8" standalone="no"?>
<svg width="138" xmlns="http://www.w3.org/2000/svg" fill="none" viewBox="0 0 138 41" height="41">
 <g clip-path="url(#clip0)">
  <path d="m6.9307 14.06c-1.7009 0.022-3.3238 0.713-4.5133 1.921-1.1896 1.208-1.8488 2.835-1.8335 4.525-0.02678 0.842 0.1181 1.68 0.4259 2.464 0.3079 0.784 0.7723 1.498 1.3653 2.099s1.3023 1.077 2.0853 1.398c0.7829 0.322 1.6232 0.482 2.4703 0.473 0.8464 0 1.6843-0.167 2.4653-0.492 0.781-0.324 1.489-0.799 2.084-1.398 0.594-0.598 1.063-1.308 1.38-2.088 0.316-0.78 0.473-1.615 0.462-2.456 0.01-1.696-0.657-3.327-1.855-4.535-1.198-1.209-2.8293-1.896-4.5363-1.911zm5.4643 6.446c0.025 0.727-0.098 1.45-0.362 2.128s-0.663 1.296-1.173 1.816c-0.511 0.52-1.1224 0.933-1.7976 1.212-0.6752 0.28-1.4003 0.42-2.1317 0.414-0.73 0.006-1.4536-0.136-2.1271-0.416-0.6734-0.28-1.2827-0.693-1.7911-1.213-0.5084-0.521-0.9053-1.139-1.1667-1.816s-0.382-1.4-0.3543-2.125c-0.0251-0.727 0.0986-1.452 0.3638-2.131 0.2653-0.679 0.6664-1.297 1.1791-1.817s1.1264-0.932 1.8038-1.209c0.6774-0.278 1.4045-0.416 2.1372-0.406 0.7276-0.002 1.4482 0.142 2.1185 0.423s1.2771 0.693 1.7831 1.213c0.506 0.519 0.901 1.135 1.162 1.81s0.382 1.395 0.356 2.117z" fill="#C6C6C6"/>
  <path d="m22.315 20.284c0.325-0.351 0.575-0.764 0.734-1.214s0.225-0.927 0.193-1.402c-0.038-2.217-1.547-3.595-3.937-3.595h-3.637v12.873h0.927v-5.608h1.687l4.091 5.208 0.319 0.4h1.163l-4.474-5.64c1.074 0.048 2.125-0.318 2.934-1.022zm-5.752-5.328h2.748c1.917 0 3.049 1.016 3.049 2.718 0 1.905-1.016 2.788-3.119 2.788h-2.646l-0.032-5.506z" fill="#C6C6C6"/>
  <path d="m25.421 14.962h3.164v11.857h0.901v-11.857h3.164v-0.902h-7.229v0.902z" fill="#C6C6C6"/>
  <path d="m34.81 26.946h6.162v-0.915h-5.241v-5.061h5.171v-0.921h-5.171v-5.061h5.241v-0.915h-6.162v12.873z" fill="#C6C6C6"/>
  <path d="m63.106 14.162v-0.102h-1.253l-4.666 12.88h1.003l1.618-4.656h5.279l1.694 4.656h0.997s-2.397-6.446-4.672-12.778zm1.7 7.278h-4.666l2.307-6.452 2.359 6.452z" fill="#C6C6C6"/>
  <path d="m98.694 20.284c0.331-0.348 0.588-0.759 0.753-1.209s0.235-0.929 0.205-1.407c0-2.217-1.54-3.595-3.937-3.595h-3.656v12.873h0.921v-5.608h1.687l4.41 5.608h1.143l-4.435-5.64c1.066 0.042 2.106-0.324 2.909-1.022zm-3.1 0.178h-2.646v-5.506h2.716c1.917 0 3.055 1.016 3.055 2.718 0 1.873-1.023 2.788-3.125 2.788z" fill="#C6C6C6"/>
  <path d="m109.02 14.06c-1.7 0.02-3.32 0.71-4.51 1.919-1.19 1.208-1.85 2.837-1.83 4.527-0.03 0.842 0.11 1.68 0.42 2.464s0.77 1.498 1.37 2.099c0.59 0.601 1.3 1.077 2.08 1.398 0.79 0.322 1.63 0.482 2.47 0.473 0.85 0 1.69-0.167 2.47-0.492 0.78-0.324 1.49-0.799 2.08-1.398 0.6-0.598 1.07-1.308 1.38-2.088 0.32-0.78 0.47-1.615 0.46-2.456 0.01-1.696-0.65-3.327-1.85-4.535-1.2-1.209-2.83-1.896-4.54-1.911zm5.46 6.446c0 1.437-0.57 2.815-1.6 3.831-1.02 1.016-2.41 1.586-3.85 1.586-1.45 0-2.83-0.57-3.86-1.586-1.02-1.016-1.59-2.394-1.59-3.831 0-1.436 0.57-2.814 1.59-3.83 1.03-1.016 2.41-1.587 3.86-1.587 1.44 0 2.83 0.571 3.85 1.587 1.03 1.016 1.6 2.394 1.6 3.83z" fill="#C6C6C6"/>
  <path d="m125.7 23.364c0 1.772-1.49 2.699-2.98 2.699-1.48 0-2.96-0.927-2.96-2.699v-9.291h-0.93v9.291c0 2.464 2.01 3.582 3.88 3.582s3.9-1.232 3.9-3.582v-9.291h-0.92l0.01 9.291z" fill="#C6C6C6"/>
  <path d="m133.53 14.06h-3.43v12.88h0.87v-5.189h2.56c0.51 0.021 1.02-0.063 1.5-0.246 0.47-0.183 0.91-0.462 1.27-0.82 0.37-0.357 0.66-0.785 0.85-1.257 0.19-0.473 0.28-0.979 0.26-1.487 0.02-0.513-0.07-1.023-0.26-1.499-0.19-0.477-0.47-0.91-0.84-1.273-0.36-0.364-0.8-0.649-1.28-0.84-0.47-0.19-0.99-0.282-1.5-0.269zm2.98 3.931c0.01 0.389-0.06 0.775-0.21 1.135-0.14 0.36-0.36 0.686-0.64 0.956-0.28 0.271-0.62 0.481-0.99 0.616-0.36 0.136-0.75 0.193-1.14 0.17h-2.56v-5.957h2.56c0.4 0.004 0.79 0.088 1.16 0.246 0.36 0.158 0.69 0.387 0.97 0.675 0.27 0.287 0.48 0.626 0.63 0.997 0.14 0.371 0.2 0.766 0.18 1.162h0.04z" fill="#C6C6C6"/>
  <path d="m48.77 20.792v0.902h5.637c-0.175 1.22-0.79 2.334-1.731 3.137s-2.143 1.238-3.382 1.226c-1.453-0.023-2.838-0.617-3.852-1.651s-1.576-2.424-1.562-3.868c-0.003-0.943 0.229-1.872 0.675-2.704s1.093-1.541 1.882-2.065c0.395-0.255 0.826-0.451 1.278-0.584 0.041-0.017 0.084-0.03 0.128-0.039 0.183-0.05 0.368-0.09 0.556-0.12l0.185-0.032c0.244-0.033 0.489-0.05 0.735-0.051 0.267 0.001 0.534 0.018 0.799 0.051h0.192c0.248 0.034 0.494 0.085 0.735 0.152 0.24 0.07 0.475 0.157 0.703 0.261l0.128 0.057c0.222 0.107 0.436 0.23 0.639 0.368l0.217 0.159c0.134 0.102 0.262 0.21 0.39 0.324 0.134 0.118 0.262 0.243 0.384 0.375h1.156c-0.149-0.213-0.314-0.414-0.492-0.604l-0.102-0.101c-0.185-0.192-0.381-0.372-0.588-0.54l-0.102-0.083c-0.204-0.161-0.417-0.31-0.639-0.444l-0.231-0.134c-0.032-0.021-0.066-0.04-0.102-0.057-0.207-0.105-0.42-0.199-0.639-0.279l-0.102-0.032c-0.194-0.07-0.393-0.128-0.595-0.171l-0.159-0.038c-0.194-0.045-0.391-0.077-0.588-0.096h-0.186c-0.255 0-0.524-0.044-0.799-0.044-0.256 0.002-0.512 0.017-0.767 0.044h-0.134c-0.215 0.025-0.428 0.061-0.639 0.108h-0.077c-0.216 0.055-0.429 0.121-0.639 0.197-0.22 0.078-0.433 0.171-0.639 0.28-1.056 0.56-1.937 1.396-2.55 2.418s-0.933 2.19-0.927 3.38c-0.013 0.836 0.141 1.666 0.452 2.443s0.774 1.485 1.361 2.084 1.288 1.077 2.062 1.406c0.773 0.329 1.605 0.504 2.446 0.513 0.799 0.02 1.594-0.12 2.336-0.412 0.743-0.293 1.418-0.732 1.986-1.291 0.567-0.559 1.015-1.227 1.315-1.962 0.301-0.735 0.449-1.524 0.435-2.318v-0.152l-6.589-0.013z" fill="#C6C6C6"/>
  <path d="m83.034 20.792v0.902h5.638c-0.176 1.219-0.791 2.334-1.731 3.137-0.941 0.802-2.143 1.238-3.383 1.226-0.863-0.02-1.71-0.238-2.474-0.638-0.764-0.399-1.425-0.969-1.931-1.665-0.505-0.695-0.842-1.498-0.983-2.344-0.141-0.847-0.083-1.714 0.169-2.535 0.253-0.82 0.694-1.571 1.287-2.194 0.594-0.623 1.325-1.101 2.136-1.397 0.811-0.295 1.679-0.4 2.538-0.306 0.858 0.094 1.683 0.384 2.409 0.848 0.175 0.118 0.344 0.245 0.505 0.381 0.181 0.152 0.35 0.317 0.505 0.495h1.157c-0.153-0.222-0.319-0.434-0.498-0.635l-0.096-0.101-0.122-0.115c-0.115-0.114-0.223-0.228-0.345-0.33-0.121-0.102-0.345-0.279-0.524-0.407l-0.07-0.044c-0.18-0.122-0.368-0.232-0.563-0.33h-0.038c-0.958-0.473-2.017-0.711-3.087-0.692-0.847 0.004-1.685 0.177-2.464 0.506-0.78 0.329-1.485 0.809-2.077 1.412-0.591 0.603-1.055 1.316-1.366 2.099-0.312 0.783-0.463 1.619-0.446 2.46-0.007 0.835 0.152 1.663 0.468 2.437s0.782 1.479 1.372 2.073c0.59 0.595 1.292 1.068 2.067 1.393 0.774 0.324 1.605 0.494 2.446 0.499 0.8 0.021 1.595-0.12 2.339-0.413 0.744-0.294 1.42-0.734 1.987-1.294 0.568-0.561 1.015-1.23 1.315-1.967s0.447-1.526 0.431-2.321v-0.153l-6.571 0.013z" fill="#C6C6C6"/>
  <path d="m132.68 0h-132.11v9.3736h4.7169v-4.6868h127.38v4.6868h4.71v-9.3736h-4.71z" fill="#E03D3B"/>
  <path d="m5.3009 41h132.09v-9.374h-4.71v4.687h-127.39v-4.687h-4.7169v9.374h4.7169z" fill="#bbb"/>
 </g>
 <defs>
  <clipPath id="clip0">
   <rect width="136.81" fill="#fff" transform="translate(.58398)" height="41"/>
  </clipPath>
 </defs>
</svg>
