<svg width="1188" height="654" viewBox="0 0 1188 654" fill="none" xmlns="http://www.w3.org/2000/svg">
<g opacity="0.12">
<path d="M0 653.5L-1.96276e-07 649.01L4.49149 649.01L4.49149 653.5L0 653.5Z" fill="white"/>
<path d="M-1.66835e-06 615.333L-1.86462e-06 610.842L4.49149 610.842L4.49149 615.333L-1.66835e-06 615.333Z" fill="white"/>
<path d="M38.1777 649.01L38.1777 653.5L42.6692 653.5L42.6692 649.01L38.1777 649.01Z" fill="white"/>
<path d="M38.1777 615.333L38.1777 610.842L42.6692 610.842L42.6692 615.333L38.1777 615.333Z" fill="white"/>
<path d="M-3.53297e-06 572.675L-3.33669e-06 577.165L4.49149 577.165L4.49149 572.675L-3.53297e-06 572.675Z" fill="white"/>
<path d="M-5.00504e-06 538.998L-5.20131e-06 534.508L4.49149 534.508L4.49149 538.998L-5.00504e-06 538.998Z" fill="white"/>
<path d="M38.1777 572.675L38.1777 577.165L42.6692 577.165L42.6692 572.675L38.1777 572.675Z" fill="white"/>
<path d="M38.1777 538.998L38.1777 534.508L42.6692 534.508L42.6692 538.998L38.1777 538.998Z" fill="white"/>
<path d="M76.3554 649.01L76.3554 653.5L80.8469 653.5L80.8469 649.01L76.3554 649.01Z" fill="white"/>
<path d="M76.3554 615.333L76.3554 610.842L80.8469 610.842L80.8469 615.333L76.3554 615.333Z" fill="white"/>
<path d="M114.533 649.01L114.533 653.5L119.025 653.5L119.025 649.01L114.533 649.01Z" fill="white"/>
<path d="M114.533 615.333L114.533 610.842L119.025 610.842L119.025 615.333L114.533 615.333Z" fill="white"/>
<path d="M76.3554 572.675L76.3554 577.165L80.8469 577.165L80.8469 572.675L76.3554 572.675Z" fill="white"/>
<path d="M76.3554 538.998L76.3554 534.508L80.8469 534.508L80.8469 538.998L76.3554 538.998Z" fill="white"/>
<path d="M114.533 572.675L114.533 577.165L119.025 577.165L119.025 572.675L114.533 572.675Z" fill="white"/>
<path d="M114.533 538.998L114.533 534.508L119.025 534.508L119.025 538.998L114.533 538.998Z" fill="white"/>
<path d="M-6.67338e-06 500.831L-6.86966e-06 496.34L4.49149 496.34L4.49149 500.831L-6.67338e-06 500.831Z" fill="white"/>
<path d="M-8.34173e-06 462.663L-8.53801e-06 458.173L4.49148 458.173L4.49148 462.663L-8.34173e-06 462.663Z" fill="white"/>
<path d="M38.1777 496.34L38.1777 500.831L42.6692 500.831L42.6692 496.34L38.1777 496.34Z" fill="white"/>
<path d="M38.1777 462.663L38.1777 458.173L42.6692 458.173L42.6692 462.663L38.1777 462.663Z" fill="white"/>
<path d="M-1.02064e-05 420.006L-1.00101e-05 424.496L4.49148 424.496L4.49148 420.006L-1.02064e-05 420.006Z" fill="white"/>
<path d="M-1.16784e-05 386.329L-1.18747e-05 381.839L4.49148 381.839L4.49148 386.329L-1.16784e-05 386.329Z" fill="white"/>
<path d="M38.1777 420.006L38.1777 424.496L42.6692 424.496L42.6692 420.006L38.1777 420.006Z" fill="white"/>
<path d="M38.1777 386.329L38.1777 381.839L42.6692 381.839L42.6692 386.329L38.1777 386.329Z" fill="white"/>
<path d="M76.3554 496.34L76.3554 500.831L80.8469 500.831L80.8469 496.34L76.3554 496.34Z" fill="white"/>
<path d="M76.3554 462.663L76.3554 458.173L80.8469 458.173L80.8469 462.663L76.3554 462.663Z" fill="white"/>
<path d="M114.533 496.34L114.533 500.831L119.025 500.831L119.025 496.34L114.533 496.34Z" fill="white"/>
<path d="M114.533 462.663L114.533 458.173L119.025 458.173L119.025 462.663L114.533 462.663Z" fill="white"/>
<path d="M76.3554 420.006L76.3554 424.496L80.8469 424.496L80.8469 420.006L76.3554 420.006Z" fill="white"/>
<path d="M76.3554 386.329L76.3554 381.839L80.8469 381.839L80.8469 386.329L76.3554 386.329Z" fill="white"/>
<path d="M114.533 420.006L114.533 424.496L119.025 424.496L119.025 420.006L114.533 420.006Z" fill="white"/>
<path d="M114.533 386.329L114.533 381.839L119.025 381.839L119.025 386.329L114.533 386.329Z" fill="white"/>
<path d="M152.711 653.5L152.711 649.01L157.202 649.01L157.202 653.5L152.711 653.5Z" fill="white"/>
<path d="M152.711 615.333L152.711 610.842L157.202 610.842L157.202 615.333L152.711 615.333Z" fill="white"/>
<path d="M190.888 649.01L190.888 653.5L195.38 653.5L195.38 649.01L190.888 649.01Z" fill="white"/>
<path d="M190.888 615.333L190.888 610.842L195.38 610.842L195.38 615.333L190.888 615.333Z" fill="white"/>
<path d="M152.711 572.675L152.711 577.165L157.202 577.165L157.202 572.675L152.711 572.675Z" fill="white"/>
<path d="M152.711 538.998L152.711 534.508L157.202 534.508L157.202 538.998L152.711 538.998Z" fill="white"/>
<path d="M190.888 572.675L190.888 577.165L195.38 577.165L195.38 572.675L190.888 572.675Z" fill="white"/>
<path d="M190.888 538.998L190.888 534.508L195.38 534.508L195.38 538.998L190.888 538.998Z" fill="white"/>
<path d="M229.066 649.01L229.066 653.5L233.558 653.5L233.558 649.01L229.066 649.01Z" fill="white"/>
<path d="M229.066 615.333L229.066 610.842L233.558 610.842L233.558 615.333L229.066 615.333Z" fill="white"/>
<path d="M267.244 649.01L267.244 653.5L271.735 653.5L271.735 649.01L267.244 649.01Z" fill="white"/>
<path d="M267.244 615.333L267.244 610.842L271.735 610.842L271.735 615.333L267.244 615.333Z" fill="white"/>
<path d="M229.066 572.675L229.066 577.165L233.558 577.165L233.558 572.675L229.066 572.675Z" fill="white"/>
<path d="M229.066 538.998L229.066 534.508L233.558 534.508L233.558 538.998L229.066 538.998Z" fill="white"/>
<path d="M267.244 572.675L267.244 577.165L271.735 577.165L271.735 572.675L267.244 572.675Z" fill="white"/>
<path d="M267.244 538.998L267.244 534.508L271.735 534.508L271.735 538.998L267.244 538.998Z" fill="white"/>
<path d="M152.711 500.831L152.711 496.34L157.202 496.34L157.202 500.831L152.711 500.831Z" fill="white"/>
<path d="M152.711 462.663L152.711 458.173L157.202 458.173L157.202 462.663L152.711 462.663Z" fill="white"/>
<path d="M190.888 496.34L190.888 500.831L195.38 500.831L195.38 496.34L190.888 496.34Z" fill="white"/>
<path d="M190.888 462.663L190.888 458.173L195.38 458.173L195.38 462.663L190.888 462.663Z" fill="white"/>
<path d="M152.711 420.006L152.711 424.496L157.202 424.496L157.202 420.006L152.711 420.006Z" fill="white"/>
<path d="M152.711 386.329L152.711 381.839L157.202 381.839L157.202 386.329L152.711 386.329Z" fill="white"/>
<path d="M190.888 420.006L190.888 424.496L195.38 424.496L195.38 420.006L190.888 420.006Z" fill="white"/>
<path d="M190.888 386.329L190.888 381.839L195.38 381.839L195.38 386.329L190.888 386.329Z" fill="white"/>
<path d="M229.066 496.34L229.066 500.831L233.558 500.831L233.558 496.34L229.066 496.34Z" fill="white"/>
<path d="M229.066 462.663L229.066 458.173L233.558 458.173L233.558 462.663L229.066 462.663Z" fill="white"/>
<path d="M267.244 496.34L267.244 500.831L271.735 500.831L271.735 496.34L267.244 496.34Z" fill="white"/>
<path d="M267.244 462.663L267.244 458.173L271.735 458.173L271.735 462.663L267.244 462.663Z" fill="white"/>
<path d="M229.066 420.006L229.066 424.496L233.558 424.496L233.558 420.006L229.066 420.006Z" fill="white"/>
<path d="M229.066 386.329L229.066 381.839L233.558 381.839L233.558 386.329L229.066 386.329Z" fill="white"/>
<path d="M267.244 420.006L267.244 424.496L271.735 424.496L271.735 420.006L267.244 420.006Z" fill="white"/>
<path d="M267.244 386.329L267.244 381.839L271.735 381.839L271.735 386.329L267.244 386.329Z" fill="white"/>
<path d="M-1.33468e-05 348.161L-1.3543e-05 343.671L4.49148 343.671L4.49148 348.161L-1.33468e-05 348.161Z" fill="white"/>
<path d="M-1.50151e-05 309.994L-1.52114e-05 305.504L4.49148 305.504L4.49148 309.994L-1.50151e-05 309.994Z" fill="white"/>
<path d="M38.1777 343.671L38.1777 348.161L42.6692 348.161L42.6692 343.671L38.1777 343.671Z" fill="white"/>
<path d="M38.1777 309.994L38.1777 305.504L42.6692 305.504L42.6692 309.994L38.1777 309.994Z" fill="white"/>
<path d="M-1.68797e-05 267.337L-1.66835e-05 271.827L4.49148 271.827L4.49148 267.337L-1.68797e-05 267.337Z" fill="white"/>
<path d="M-1.83518e-05 233.66L-1.85481e-05 229.169L4.49147 229.169L4.49147 233.66L-1.83518e-05 233.66Z" fill="white"/>
<path d="M38.1777 267.337L38.1777 271.827L42.6692 271.827L42.6692 267.337L38.1777 267.337Z" fill="white"/>
<path d="M38.1777 233.66L38.1777 229.169L42.6692 229.169L42.6692 233.66L38.1777 233.66Z" fill="white"/>
<path d="M76.3554 343.671L76.3554 348.161L80.8469 348.161L80.8469 343.671L76.3554 343.671Z" fill="white"/>
<path d="M76.3554 309.994L76.3554 305.504L80.8469 305.504L80.8469 309.994L76.3554 309.994Z" fill="white"/>
<path d="M114.533 343.671L114.533 348.161L119.025 348.161L119.025 343.671L114.533 343.671Z" fill="white"/>
<path d="M114.533 309.994L114.533 305.504L119.025 305.504L119.025 309.994L114.533 309.994Z" fill="white"/>
<path d="M76.3554 267.337L76.3554 271.827L80.8469 271.827L80.8469 267.337L76.3554 267.337Z" fill="white"/>
<path d="M76.3554 233.66L76.3554 229.169L80.8469 229.169L80.8469 233.66L76.3554 233.66Z" fill="white"/>
<path d="M114.533 267.337L114.533 271.827L119.025 271.827L119.025 267.337L114.533 267.337Z" fill="white"/>
<path d="M114.533 233.66L114.533 229.169L119.025 229.169L119.025 233.66L114.533 233.66Z" fill="white"/>
<path d="M-2.00202e-05 195.492L-2.02164e-05 191.002L4.49147 191.002L4.49147 195.492L-2.00202e-05 195.492Z" fill="white"/>
<path d="M-2.16885e-05 157.325L-2.18848e-05 152.835L4.49147 152.835L4.49147 157.325L-2.16885e-05 157.325Z" fill="white"/>
<path d="M38.1777 191.002L38.1777 195.492L42.6692 195.492L42.6692 191.002L38.1777 191.002Z" fill="white"/>
<path d="M38.1777 157.325L38.1777 152.835L42.6692 152.835L42.6692 157.325L38.1777 157.325Z" fill="white"/>
<path d="M-2.35531e-05 114.667L-2.33568e-05 119.158L4.49147 119.158L4.49147 114.667L-2.35531e-05 114.667Z" fill="white"/>
<path d="M-2.50252e-05 80.9903L-2.52215e-05 76.5001L4.49147 76.5001L4.49147 80.9903L-2.50252e-05 80.9903Z" fill="white"/>
<path d="M38.1777 114.667L38.1777 119.158L42.6692 119.158L42.6692 114.667L38.1777 114.667Z" fill="white"/>
<path d="M38.1777 80.9903L38.1777 76.5001L42.6692 76.5001L42.6692 80.9903L38.1777 80.9903Z" fill="white"/>
<path d="M76.3554 191.002L76.3554 195.492L80.8469 195.492L80.8469 191.002L76.3554 191.002Z" fill="white"/>
<path d="M76.3554 157.325L76.3554 152.835L80.8469 152.835L80.8469 157.325L76.3554 157.325Z" fill="white"/>
<path d="M114.533 191.002L114.533 195.492L119.025 195.492L119.025 191.002L114.533 191.002Z" fill="white"/>
<path d="M114.533 157.325L114.533 152.835L119.025 152.835L119.025 157.325L114.533 157.325Z" fill="white"/>
<path d="M76.3554 114.667L76.3554 119.158L80.8469 119.158L80.8469 114.667L76.3554 114.667Z" fill="white"/>
<path d="M76.3554 80.9903L76.3554 76.5001L80.8469 76.5001L80.8469 80.9903L76.3554 80.9903Z" fill="white"/>
<path d="M114.533 114.667L114.533 119.158L119.025 119.158L119.025 114.667L114.533 114.667Z" fill="white"/>
<path d="M114.533 80.9903L114.533 76.5001L119.025 76.5001L119.025 80.9903L114.533 80.9903Z" fill="white"/>
<path d="M152.711 348.161L152.711 343.671L157.202 343.671L157.202 348.161L152.711 348.161Z" fill="white"/>
<path d="M152.711 309.994L152.711 305.504L157.202 305.504L157.202 309.994L152.711 309.994Z" fill="white"/>
<path d="M190.888 343.671L190.888 348.161L195.38 348.161L195.38 343.671L190.888 343.671Z" fill="white"/>
<path d="M190.888 309.994L190.888 305.504L195.38 305.504L195.38 309.994L190.888 309.994Z" fill="white"/>
<path d="M152.711 267.337L152.711 271.827L157.202 271.827L157.202 267.337L152.711 267.337Z" fill="white"/>
<path d="M152.711 233.66L152.711 229.169L157.202 229.169L157.202 233.66L152.711 233.66Z" fill="white"/>
<path d="M190.888 267.337L190.888 271.827L195.38 271.827L195.38 267.337L190.888 267.337Z" fill="white"/>
<path d="M190.888 233.66L190.888 229.169L195.38 229.169L195.38 233.66L190.888 233.66Z" fill="white"/>
<path d="M229.066 343.671L229.066 348.161L233.558 348.161L233.558 343.671L229.066 343.671Z" fill="white"/>
<path d="M229.066 309.994L229.066 305.504L233.558 305.504L233.558 309.994L229.066 309.994Z" fill="white"/>
<path d="M267.244 343.671L267.244 348.161L271.735 348.161L271.735 343.671L267.244 343.671Z" fill="white"/>
<path d="M267.244 309.994L267.244 305.504L271.735 305.504L271.735 309.994L267.244 309.994Z" fill="white"/>
<path d="M229.066 267.337L229.066 271.827L233.558 271.827L233.558 267.337L229.066 267.337Z" fill="white"/>
<path d="M229.066 233.66L229.066 229.169L233.558 229.169L233.558 233.66L229.066 233.66Z" fill="white"/>
<path d="M267.244 267.337L267.244 271.827L271.735 271.827L271.735 267.337L267.244 267.337Z" fill="white"/>
<path d="M267.244 233.66L267.244 229.169L271.735 229.169L271.735 233.66L267.244 233.66Z" fill="white"/>
<path d="M152.711 195.492L152.711 191.002L157.202 191.002L157.202 195.492L152.711 195.492Z" fill="white"/>
<path d="M152.711 157.325L152.711 152.835L157.202 152.835L157.202 157.325L152.711 157.325Z" fill="white"/>
<path d="M190.888 191.002L190.888 195.492L195.38 195.492L195.38 191.002L190.888 191.002Z" fill="white"/>
<path d="M190.888 157.325L190.888 152.835L195.38 152.835L195.38 157.325L190.888 157.325Z" fill="white"/>
<path d="M152.711 114.667L152.711 119.158L157.202 119.158L157.202 114.667L152.711 114.667Z" fill="white"/>
<path d="M152.711 80.9903L152.711 76.5001L157.202 76.5001L157.202 80.9903L152.711 80.9903Z" fill="white"/>
<path d="M190.888 114.667L190.888 119.158L195.38 119.158L195.38 114.667L190.888 114.667Z" fill="white"/>
<path d="M190.888 80.9903L190.888 76.5001L195.38 76.5001L195.38 80.9903L190.888 80.9903Z" fill="white"/>
<path d="M229.066 191.002L229.066 195.492L233.558 195.492L233.558 191.002L229.066 191.002Z" fill="white"/>
<path d="M229.066 157.325L229.066 152.835L233.558 152.835L233.558 157.325L229.066 157.325Z" fill="white"/>
<path d="M267.244 191.002L267.244 195.492L271.735 195.492L271.735 191.002L267.244 191.002Z" fill="white"/>
<path d="M267.244 157.325L267.244 152.835L271.735 152.835L271.735 157.325L267.244 157.325Z" fill="white"/>
<path d="M229.066 114.667L229.066 119.158L233.558 119.158L233.558 114.667L229.066 114.667Z" fill="white"/>
<path d="M229.066 80.9903L229.066 76.5001L233.558 76.5001L233.558 80.9903L229.066 80.9903Z" fill="white"/>
<path d="M267.244 114.667L267.244 119.158L271.735 119.158L271.735 114.667L267.244 114.667Z" fill="white"/>
<path d="M267.244 80.9903L267.244 76.5L271.735 76.5L271.735 80.9903L267.244 80.9903Z" fill="white"/>
<path d="M305.422 649.01L305.422 653.5L309.913 653.5L309.913 649.01L305.422 649.01Z" fill="white"/>
<path d="M305.422 610.842L305.422 615.333L309.913 615.333L309.913 610.842L305.422 610.842Z" fill="white"/>
<path d="M343.599 653.5L343.599 649.01L348.091 649.01L348.091 653.5L343.599 653.5Z" fill="white"/>
<path d="M343.599 610.842L343.599 615.333L348.091 615.333L348.091 610.842L343.599 610.842Z" fill="white"/>
<path d="M305.422 577.165L305.422 572.675L309.913 572.675L309.913 577.165L305.422 577.165Z" fill="white"/>
<path d="M305.422 534.508L305.422 538.998L309.913 538.998L309.913 534.508L305.422 534.508Z" fill="white"/>
<path d="M343.599 577.165L343.599 572.675L348.091 572.675L348.091 577.165L343.599 577.165Z" fill="white"/>
<path d="M343.599 534.508L343.599 538.998L348.091 538.998L348.091 534.508L343.599 534.508Z" fill="white"/>
<path d="M381.777 653.5L381.777 649.01L386.268 649.01L386.268 653.5L381.777 653.5Z" fill="white"/>
<path d="M381.777 610.842L381.777 615.333L386.268 615.333L386.268 610.842L381.777 610.842Z" fill="white"/>
<path d="M419.955 653.5L419.955 649.01L424.446 649.01L424.446 653.5L419.955 653.5Z" fill="white"/>
<path d="M419.955 610.842L419.955 615.333L424.446 615.333L424.446 610.842L419.955 610.842Z" fill="white"/>
<path d="M381.777 577.165L381.777 572.675L386.268 572.675L386.268 577.165L381.777 577.165Z" fill="white"/>
<path d="M381.777 534.508L381.777 538.998L386.268 538.998L386.268 534.508L381.777 534.508Z" fill="white"/>
<path d="M419.955 577.165L419.955 572.675L424.446 572.675L424.446 577.165L419.955 577.165Z" fill="white"/>
<path d="M419.955 534.508L419.955 538.998L424.446 538.998L424.446 534.508L419.955 534.508Z" fill="white"/>
<path d="M305.422 496.34L305.422 500.831L309.913 500.831L309.913 496.34L305.422 496.34Z" fill="white"/>
<path d="M305.422 458.173L305.422 462.663L309.913 462.663L309.913 458.173L305.422 458.173Z" fill="white"/>
<path d="M343.599 500.831L343.599 496.34L348.091 496.34L348.091 500.831L343.599 500.831Z" fill="white"/>
<path d="M343.599 458.173L343.599 462.663L348.091 462.663L348.091 458.173L343.599 458.173Z" fill="white"/>
<path d="M305.422 424.496L305.422 420.006L309.913 420.006L309.913 424.496L305.422 424.496Z" fill="white"/>
<path d="M305.422 381.839L305.422 386.329L309.913 386.329L309.913 381.839L305.422 381.839Z" fill="white"/>
<path d="M343.599 424.496L343.599 420.006L348.091 420.006L348.091 424.496L343.599 424.496Z" fill="white"/>
<path d="M343.599 381.839L343.599 386.329L348.091 386.329L348.091 381.839L343.599 381.839Z" fill="white"/>
<path d="M381.777 500.831L381.777 496.34L386.268 496.34L386.268 500.831L381.777 500.831Z" fill="white"/>
<path d="M381.777 458.173L381.777 462.663L386.268 462.663L386.268 458.173L381.777 458.173Z" fill="white"/>
<path d="M419.955 500.831L419.955 496.34L424.446 496.34L424.446 500.831L419.955 500.831Z" fill="white"/>
<path d="M419.955 458.173L419.955 462.663L424.446 462.663L424.446 458.173L419.955 458.173Z" fill="white"/>
<path d="M381.777 424.496L381.777 420.006L386.268 420.006L386.268 424.496L381.777 424.496Z" fill="white"/>
<path d="M381.777 381.839L381.777 386.329L386.268 386.329L386.268 381.839L381.777 381.839Z" fill="white"/>
<path d="M419.955 424.496L419.955 420.006L424.446 420.006L424.446 424.496L419.955 424.496Z" fill="white"/>
<path d="M419.955 381.839L419.955 386.329L424.446 386.329L424.446 381.839L419.955 381.839Z" fill="white"/>
<path d="M458.132 649.01L458.132 653.5L462.624 653.5L462.624 649.01L458.132 649.01Z" fill="white"/>
<path d="M458.132 610.842L458.132 615.333L462.624 615.333L462.624 610.842L458.132 610.842Z" fill="white"/>
<path d="M496.31 653.5L496.31 649.01L500.801 649.01L500.801 653.5L496.31 653.5Z" fill="white"/>
<path d="M496.31 610.842L496.31 615.333L500.801 615.333L500.801 610.842L496.31 610.842Z" fill="white"/>
<path d="M458.132 577.165L458.132 572.675L462.624 572.675L462.624 577.165L458.132 577.165Z" fill="white"/>
<path d="M458.132 534.508L458.132 538.998L462.624 538.998L462.624 534.508L458.132 534.508Z" fill="white"/>
<path d="M496.31 577.165L496.31 572.675L500.801 572.675L500.801 577.165L496.31 577.165Z" fill="white"/>
<path d="M496.31 534.508L496.31 538.998L500.801 538.998L500.801 534.508L496.31 534.508Z" fill="white"/>
<path d="M534.488 653.5L534.488 649.01L538.979 649.01L538.979 653.5L534.488 653.5Z" fill="white"/>
<path d="M534.488 610.842L534.488 615.333L538.979 615.333L538.979 610.842L534.488 610.842Z" fill="white"/>
<path d="M572.665 653.5L572.665 649.01L577.157 649.01L577.157 653.5L572.665 653.5Z" fill="white"/>
<path d="M572.665 610.842L572.665 615.333L577.157 615.333L577.157 610.842L572.665 610.842Z" fill="white"/>
<path d="M534.488 577.165L534.488 572.675L538.979 572.675L538.979 577.165L534.488 577.165Z" fill="white"/>
<path d="M534.488 534.508L534.488 538.998L538.979 538.998L538.979 534.508L534.488 534.508Z" fill="white"/>
<path d="M572.665 577.165L572.665 572.675L577.157 572.675L577.157 577.165L572.665 577.165Z" fill="white"/>
<path d="M572.665 534.508L572.665 538.998L577.157 538.998L577.157 534.508L572.665 534.508Z" fill="white"/>
<path d="M458.132 496.34L458.132 500.831L462.624 500.831L462.624 496.34L458.132 496.34Z" fill="white"/>
<path d="M458.132 458.173L458.132 462.663L462.624 462.663L462.624 458.173L458.132 458.173Z" fill="white"/>
<path d="M496.31 500.831L496.31 496.34L500.801 496.34L500.801 500.831L496.31 500.831Z" fill="white"/>
<path d="M496.31 458.173L496.31 462.663L500.801 462.663L500.801 458.173L496.31 458.173Z" fill="white"/>
<path d="M458.132 424.496L458.132 420.006L462.624 420.006L462.624 424.496L458.132 424.496Z" fill="white"/>
<path d="M458.132 381.839L458.132 386.329L462.624 386.329L462.624 381.839L458.132 381.839Z" fill="white"/>
<path d="M496.31 424.496L496.31 420.006L500.801 420.006L500.801 424.496L496.31 424.496Z" fill="white"/>
<path d="M496.31 381.839L496.31 386.329L500.801 386.329L500.801 381.839L496.31 381.839Z" fill="white"/>
<path d="M534.488 500.831L534.488 496.34L538.979 496.34L538.979 500.831L534.488 500.831Z" fill="white"/>
<path d="M534.488 458.173L534.488 462.663L538.979 462.663L538.979 458.173L534.488 458.173Z" fill="white"/>
<path d="M572.665 500.831L572.665 496.34L577.157 496.34L577.157 500.831L572.665 500.831Z" fill="white"/>
<path d="M572.665 458.173L572.665 462.663L577.157 462.663L577.157 458.173L572.665 458.173Z" fill="white"/>
<path d="M534.488 424.496L534.488 420.006L538.979 420.006L538.979 424.496L534.488 424.496Z" fill="white"/>
<path d="M534.488 381.839L534.488 386.329L538.979 386.329L538.979 381.839L534.488 381.839Z" fill="white"/>
<path d="M572.665 424.496L572.665 420.006L577.157 420.006L577.157 424.496L572.665 424.496Z" fill="white"/>
<path d="M572.665 381.839L572.665 386.329L577.157 386.329L577.157 381.839L572.665 381.839Z" fill="white"/>
<path d="M305.422 348.161L305.422 343.671L309.913 343.671L309.913 348.161L305.422 348.161Z" fill="white"/>
<path d="M305.422 309.994L305.422 305.504L309.913 305.504L309.913 309.994L305.422 309.994Z" fill="white"/>
<path d="M343.599 343.671L343.599 348.161L348.091 348.161L348.091 343.671L343.599 343.671Z" fill="white"/>
<path d="M343.599 309.994L343.599 305.504L348.091 305.504L348.091 309.994L343.599 309.994Z" fill="white"/>
<path d="M305.422 267.337L305.422 271.827L309.913 271.827L309.913 267.337L305.422 267.337Z" fill="white"/>
<path d="M305.422 233.66L305.422 229.169L309.913 229.169L309.913 233.66L305.422 233.66Z" fill="white"/>
<path d="M343.599 267.337L343.599 271.827L348.091 271.827L348.091 267.337L343.599 267.337Z" fill="white"/>
<path d="M343.599 233.66L343.599 229.169L348.091 229.169L348.091 233.66L343.599 233.66Z" fill="white"/>
<path d="M381.777 343.671L381.777 348.161L386.268 348.161L386.268 343.671L381.777 343.671Z" fill="white"/>
<path d="M381.777 309.994L381.777 305.504L386.268 305.504L386.268 309.994L381.777 309.994Z" fill="white"/>
<path d="M419.955 343.671L419.955 348.161L424.446 348.161L424.446 343.671L419.955 343.671Z" fill="white"/>
<path d="M419.955 309.994L419.955 305.504L424.446 305.504L424.446 309.994L419.955 309.994Z" fill="white"/>
<path d="M381.777 267.337L381.777 271.827L386.268 271.827L386.268 267.337L381.777 267.337Z" fill="white"/>
<path d="M381.777 233.66L381.777 229.169L386.268 229.169L386.268 233.66L381.777 233.66Z" fill="white"/>
<path d="M419.955 267.337L419.955 271.827L424.446 271.827L424.446 267.337L419.955 267.337Z" fill="white"/>
<path d="M419.955 233.66L419.955 229.169L424.446 229.169L424.446 233.66L419.955 233.66Z" fill="white"/>
<path d="M305.422 195.492L305.422 191.002L309.913 191.002L309.913 195.492L305.422 195.492Z" fill="white"/>
<path d="M305.422 157.325L305.422 152.835L309.913 152.835L309.913 157.325L305.422 157.325Z" fill="white"/>
<path d="M343.599 191.002L343.599 195.492L348.091 195.492L348.091 191.002L343.599 191.002Z" fill="white"/>
<path d="M343.599 157.325L343.599 152.835L348.091 152.835L348.091 157.325L343.599 157.325Z" fill="white"/>
<path d="M305.422 114.667L305.422 119.158L309.913 119.158L309.913 114.667L305.422 114.667Z" fill="white"/>
<path d="M305.422 80.9903L305.422 76.5L309.913 76.5L309.913 80.9903L305.422 80.9903Z" fill="white"/>
<path d="M343.599 114.667L343.599 119.158L348.091 119.158L348.091 114.667L343.599 114.667Z" fill="white"/>
<path d="M343.599 80.9903L343.599 76.5L348.091 76.5L348.091 80.9903L343.599 80.9903Z" fill="white"/>
<path d="M381.777 191.002L381.777 195.492L386.268 195.492L386.268 191.002L381.777 191.002Z" fill="white"/>
<path d="M381.777 157.325L381.777 152.835L386.268 152.835L386.268 157.325L381.777 157.325Z" fill="white"/>
<path d="M419.955 191.002L419.955 195.492L424.446 195.492L424.446 191.002L419.955 191.002Z" fill="white"/>
<path d="M419.955 157.325L419.955 152.835L424.446 152.835L424.446 157.325L419.955 157.325Z" fill="white"/>
<path d="M381.777 114.667L381.777 119.158L386.268 119.158L386.268 114.667L381.777 114.667Z" fill="white"/>
<path d="M381.777 80.9903L381.777 76.5L386.268 76.5L386.268 80.9903L381.777 80.9903Z" fill="white"/>
<path d="M419.955 114.667L419.955 119.158L424.446 119.158L424.446 114.667L419.955 114.667Z" fill="white"/>
<path d="M419.955 80.9903L419.955 76.5L424.446 76.5L424.446 80.9903L419.955 80.9903Z" fill="white"/>
<path d="M458.132 348.161L458.132 343.671L462.624 343.671L462.624 348.161L458.132 348.161Z" fill="white"/>
<path d="M458.132 309.994L458.132 305.504L462.624 305.504L462.624 309.994L458.132 309.994Z" fill="white"/>
<path d="M496.31 343.671L496.31 348.161L500.801 348.161L500.801 343.671L496.31 343.671Z" fill="white"/>
<path d="M496.31 309.994L496.31 305.504L500.801 305.504L500.801 309.994L496.31 309.994Z" fill="white"/>
<path d="M458.132 267.337L458.132 271.827L462.624 271.827L462.624 267.337L458.132 267.337Z" fill="white"/>
<path d="M458.132 233.66L458.132 229.169L462.624 229.169L462.624 233.66L458.132 233.66Z" fill="white"/>
<path d="M496.31 267.337L496.31 271.827L500.801 271.827L500.801 267.337L496.31 267.337Z" fill="white"/>
<path d="M496.31 233.66L496.31 229.169L500.801 229.169L500.801 233.66L496.31 233.66Z" fill="white"/>
<path d="M534.488 343.671L534.488 348.161L538.979 348.161L538.979 343.671L534.488 343.671Z" fill="white"/>
<path d="M534.488 309.994L534.488 305.504L538.979 305.504L538.979 309.994L534.488 309.994Z" fill="white"/>
<path d="M572.665 343.671L572.665 348.161L577.157 348.161L577.157 343.671L572.665 343.671Z" fill="white"/>
<path d="M572.665 309.994L572.665 305.504L577.157 305.504L577.157 309.994L572.665 309.994Z" fill="white"/>
<path d="M534.488 267.337L534.488 271.827L538.979 271.827L538.979 267.337L534.488 267.337Z" fill="white"/>
<path d="M534.488 233.66L534.488 229.169L538.979 229.169L538.979 233.66L534.488 233.66Z" fill="white"/>
<path d="M572.665 267.337L572.665 271.827L577.157 271.827L577.157 267.337L572.665 267.337Z" fill="white"/>
<path d="M572.665 233.66L572.665 229.169L577.157 229.169L577.157 233.66L572.665 233.66Z" fill="white"/>
<path d="M458.132 195.492L458.132 191.002L462.624 191.002L462.624 195.492L458.132 195.492Z" fill="white"/>
<path d="M458.132 157.325L458.132 152.835L462.624 152.835L462.624 157.325L458.132 157.325Z" fill="white"/>
<path d="M496.31 191.002L496.31 195.492L500.801 195.492L500.801 191.002L496.31 191.002Z" fill="white"/>
<path d="M496.31 157.325L496.31 152.835L500.801 152.835L500.801 157.325L496.31 157.325Z" fill="white"/>
<path d="M458.132 114.667L458.132 119.158L462.624 119.158L462.624 114.667L458.132 114.667Z" fill="white"/>
<path d="M458.132 80.9903L458.132 76.5L462.624 76.5L462.624 80.9903L458.132 80.9903Z" fill="white"/>
<path d="M496.31 114.667L496.31 119.158L500.801 119.158L500.801 114.667L496.31 114.667Z" fill="white"/>
<path d="M496.31 80.9903L496.31 76.5L500.801 76.5L500.801 80.9903L496.31 80.9903Z" fill="white"/>
<path d="M534.488 191.002L534.488 195.492L538.979 195.492L538.979 191.002L534.488 191.002Z" fill="white"/>
<path d="M534.488 157.325L534.488 152.835L538.979 152.835L538.979 157.325L534.488 157.325Z" fill="white"/>
<path d="M572.665 191.002L572.665 195.492L577.157 195.492L577.157 191.002L572.665 191.002Z" fill="white"/>
<path d="M572.665 157.325L572.665 152.835L577.157 152.835L577.157 157.325L572.665 157.325Z" fill="white"/>
<path d="M534.488 114.667L534.488 119.158L538.979 119.158L538.979 114.667L534.488 114.667Z" fill="white"/>
<path d="M534.488 80.9903L534.488 76.5L538.979 76.5L538.979 80.9903L534.488 80.9903Z" fill="white"/>
<path d="M572.665 114.667L572.665 119.158L577.157 119.158L577.157 114.667L572.665 114.667Z" fill="white"/>
<path d="M572.665 80.9903L572.665 76.5L577.157 76.5L577.157 80.9903L572.665 80.9903Z" fill="white"/>
<path d="M610.843 653.5L610.843 649.01L615.335 649.01L615.335 653.5L610.843 653.5Z" fill="white"/>
<path d="M610.843 615.333L610.843 610.842L615.335 610.842L615.335 615.333L610.843 615.333Z" fill="white"/>
<path d="M649.021 649.01L649.021 653.5L653.512 653.5L653.512 649.01L649.021 649.01Z" fill="white"/>
<path d="M649.021 615.333L649.021 610.842L653.512 610.842L653.512 615.333L649.021 615.333Z" fill="white"/>
<path d="M610.843 572.675L610.843 577.165L615.335 577.165L615.335 572.675L610.843 572.675Z" fill="white"/>
<path d="M610.843 538.998L610.843 534.508L615.335 534.508L615.335 538.998L610.843 538.998Z" fill="white"/>
<path d="M649.021 572.675L649.021 577.165L653.512 577.165L653.512 572.675L649.021 572.675Z" fill="white"/>
<path d="M649.021 538.998L649.021 534.508L653.512 534.508L653.512 538.998L649.021 538.998Z" fill="white"/>
<path d="M687.198 649.01L687.198 653.5L691.69 653.5L691.69 649.01L687.198 649.01Z" fill="white"/>
<path d="M687.198 615.333L687.198 610.842L691.69 610.842L691.69 615.333L687.198 615.333Z" fill="white"/>
<path d="M725.376 649.01L725.376 653.5L729.868 653.5L729.868 649.01L725.376 649.01Z" fill="white"/>
<path d="M725.376 615.333L725.376 610.842L729.868 610.842L729.868 615.333L725.376 615.333Z" fill="white"/>
<path d="M687.198 572.675L687.198 577.165L691.69 577.165L691.69 572.675L687.198 572.675Z" fill="white"/>
<path d="M687.198 538.998L687.198 534.508L691.69 534.508L691.69 538.998L687.198 538.998Z" fill="white"/>
<path d="M725.376 572.675L725.376 577.165L729.868 577.165L729.868 572.675L725.376 572.675Z" fill="white"/>
<path d="M725.376 538.998L725.376 534.508L729.868 534.508L729.868 538.998L725.376 538.998Z" fill="white"/>
<path d="M610.843 500.831L610.843 496.34L615.335 496.34L615.335 500.831L610.843 500.831Z" fill="white"/>
<path d="M610.843 462.663L610.843 458.173L615.335 458.173L615.335 462.663L610.843 462.663Z" fill="white"/>
<path d="M649.021 496.34L649.021 500.831L653.512 500.831L653.512 496.34L649.021 496.34Z" fill="white"/>
<path d="M649.021 462.663L649.021 458.173L653.512 458.173L653.512 462.663L649.021 462.663Z" fill="white"/>
<path d="M610.843 420.006L610.843 424.496L615.335 424.496L615.335 420.006L610.843 420.006Z" fill="white"/>
<path d="M610.843 386.329L610.843 381.839L615.335 381.839L615.335 386.329L610.843 386.329Z" fill="white"/>
<path d="M649.021 420.006L649.021 424.496L653.512 424.496L653.512 420.006L649.021 420.006Z" fill="white"/>
<path d="M649.021 386.329L649.021 381.839L653.512 381.839L653.512 386.329L649.021 386.329Z" fill="white"/>
<path d="M687.198 496.34L687.198 500.831L691.69 500.831L691.69 496.34L687.198 496.34Z" fill="white"/>
<path d="M687.198 462.663L687.198 458.173L691.69 458.173L691.69 462.663L687.198 462.663Z" fill="white"/>
<path d="M725.376 496.34L725.376 500.831L729.868 500.831L729.868 496.34L725.376 496.34Z" fill="white"/>
<path d="M725.376 462.663L725.376 458.173L729.868 458.173L729.868 462.663L725.376 462.663Z" fill="white"/>
<path d="M687.198 420.006L687.198 424.496L691.69 424.496L691.69 420.006L687.198 420.006Z" fill="white"/>
<path d="M687.198 386.329L687.198 381.839L691.69 381.839L691.69 386.329L687.198 386.329Z" fill="white"/>
<path d="M725.376 420.006L725.376 424.496L729.868 424.496L729.868 420.006L725.376 420.006Z" fill="white"/>
<path d="M725.376 386.329L725.376 381.838L729.868 381.838L729.868 386.329L725.376 386.329Z" fill="white"/>
<path d="M763.554 653.5L763.554 649.01L768.045 649.01L768.045 653.5L763.554 653.5Z" fill="white"/>
<path d="M763.554 615.333L763.554 610.842L768.045 610.842L768.045 615.333L763.554 615.333Z" fill="white"/>
<path d="M801.732 649.01L801.732 653.5L806.223 653.5L806.223 649.01L801.732 649.01Z" fill="white"/>
<path d="M801.732 615.333L801.732 610.842L806.223 610.842L806.223 615.333L801.732 615.333Z" fill="white"/>
<path d="M763.554 572.675L763.554 577.165L768.045 577.165L768.045 572.675L763.554 572.675Z" fill="white"/>
<path d="M763.554 538.998L763.554 534.508L768.045 534.508L768.045 538.998L763.554 538.998Z" fill="white"/>
<path d="M801.732 572.675L801.732 577.165L806.223 577.165L806.223 572.675L801.732 572.675Z" fill="white"/>
<path d="M801.732 538.998L801.732 534.508L806.223 534.508L806.223 538.998L801.732 538.998Z" fill="white"/>
<path d="M839.909 649.01L839.909 653.5L844.401 653.5L844.401 649.01L839.909 649.01Z" fill="white"/>
<path d="M839.909 615.333L839.909 610.842L844.401 610.842L844.401 615.333L839.909 615.333Z" fill="white"/>
<path d="M878.087 649.01L878.087 653.5L882.578 653.5L882.578 649.01L878.087 649.01Z" fill="white"/>
<path d="M878.087 615.333L878.087 610.842L882.578 610.842L882.578 615.333L878.087 615.333Z" fill="white"/>
<path d="M839.909 572.675L839.909 577.165L844.401 577.165L844.401 572.675L839.909 572.675Z" fill="white"/>
<path d="M839.909 538.998L839.909 534.508L844.401 534.508L844.401 538.998L839.909 538.998Z" fill="white"/>
<path d="M878.087 572.675L878.087 577.165L882.578 577.165L882.578 572.675L878.087 572.675Z" fill="white"/>
<path d="M878.087 538.998L878.087 534.508L882.578 534.508L882.578 538.998L878.087 538.998Z" fill="white"/>
<path d="M763.554 500.831L763.554 496.34L768.045 496.34L768.045 500.831L763.554 500.831Z" fill="white"/>
<path d="M763.554 462.663L763.554 458.173L768.045 458.173L768.045 462.663L763.554 462.663Z" fill="white"/>
<path d="M801.732 496.34L801.732 500.831L806.223 500.831L806.223 496.34L801.732 496.34Z" fill="white"/>
<path d="M801.732 462.663L801.732 458.173L806.223 458.173L806.223 462.663L801.732 462.663Z" fill="white"/>
<path d="M763.554 420.006L763.554 424.496L768.045 424.496L768.045 420.006L763.554 420.006Z" fill="white"/>
<path d="M763.554 386.329L763.554 381.838L768.045 381.838L768.045 386.329L763.554 386.329Z" fill="white"/>
<path d="M801.732 420.006L801.732 424.496L806.223 424.496L806.223 420.006L801.732 420.006Z" fill="white"/>
<path d="M801.732 386.329L801.732 381.838L806.223 381.838L806.223 386.329L801.732 386.329Z" fill="white"/>
<path d="M839.909 496.34L839.909 500.831L844.401 500.831L844.401 496.34L839.909 496.34Z" fill="white"/>
<path d="M839.909 462.663L839.909 458.173L844.401 458.173L844.401 462.663L839.909 462.663Z" fill="white"/>
<path d="M878.087 496.34L878.087 500.831L882.578 500.831L882.578 496.34L878.087 496.34Z" fill="white"/>
<path d="M878.087 462.663L878.087 458.173L882.578 458.173L882.578 462.663L878.087 462.663Z" fill="white"/>
<path d="M839.909 420.006L839.909 424.496L844.401 424.496L844.401 420.006L839.909 420.006Z" fill="white"/>
<path d="M839.909 386.329L839.909 381.838L844.401 381.838L844.401 386.329L839.909 386.329Z" fill="white"/>
<path d="M878.087 420.006L878.087 424.496L882.578 424.496L882.578 420.006L878.087 420.006Z" fill="white"/>
<path d="M878.087 386.329L878.087 381.838L882.578 381.838L882.578 386.329L878.087 386.329Z" fill="white"/>
<path d="M610.843 348.161L610.843 343.671L615.335 343.671L615.335 348.161L610.843 348.161Z" fill="white"/>
<path d="M610.843 309.994L610.843 305.504L615.335 305.504L615.335 309.994L610.843 309.994Z" fill="white"/>
<path d="M649.021 343.671L649.021 348.161L653.512 348.161L653.512 343.671L649.021 343.671Z" fill="white"/>
<path d="M649.021 309.994L649.021 305.504L653.512 305.504L653.512 309.994L649.021 309.994Z" fill="white"/>
<path d="M610.843 267.337L610.843 271.827L615.335 271.827L615.335 267.337L610.843 267.337Z" fill="white"/>
<path d="M610.843 233.66L610.843 229.169L615.335 229.169L615.335 233.66L610.843 233.66Z" fill="white"/>
<path d="M649.021 267.337L649.021 271.827L653.512 271.827L653.512 267.337L649.021 267.337Z" fill="white"/>
<path d="M649.021 233.66L649.021 229.169L653.512 229.169L653.512 233.66L649.021 233.66Z" fill="white"/>
<path d="M687.198 343.671L687.198 348.161L691.69 348.161L691.69 343.671L687.198 343.671Z" fill="white"/>
<path d="M687.198 309.994L687.198 305.504L691.69 305.504L691.69 309.994L687.198 309.994Z" fill="white"/>
<path d="M725.376 343.671L725.376 348.161L729.868 348.161L729.868 343.671L725.376 343.671Z" fill="white"/>
<path d="M725.376 309.994L725.376 305.504L729.868 305.504L729.868 309.994L725.376 309.994Z" fill="white"/>
<path d="M687.198 267.337L687.198 271.827L691.69 271.827L691.69 267.337L687.198 267.337Z" fill="white"/>
<path d="M687.198 233.66L687.198 229.169L691.69 229.169L691.69 233.66L687.198 233.66Z" fill="white"/>
<path d="M725.376 267.337L725.376 271.827L729.868 271.827L729.868 267.337L725.376 267.337Z" fill="white"/>
<path d="M725.376 233.66L725.376 229.169L729.868 229.169L729.868 233.66L725.376 233.66Z" fill="white"/>
<path d="M610.843 195.492L610.843 191.002L615.335 191.002L615.335 195.492L610.843 195.492Z" fill="white"/>
<path d="M610.843 157.325L610.843 152.835L615.335 152.835L615.335 157.325L610.843 157.325Z" fill="white"/>
<path d="M649.021 191.002L649.021 195.492L653.512 195.492L653.512 191.002L649.021 191.002Z" fill="white"/>
<path d="M649.021 157.325L649.021 152.835L653.512 152.835L653.512 157.325L649.021 157.325Z" fill="white"/>
<path d="M610.843 114.667L610.843 119.158L615.335 119.158L615.335 114.667L610.843 114.667Z" fill="white"/>
<path d="M610.843 80.9903L610.843 76.5L615.335 76.5L615.335 80.9903L610.843 80.9903Z" fill="white"/>
<path d="M649.021 114.667L649.021 119.158L653.512 119.158L653.512 114.667L649.021 114.667Z" fill="white"/>
<path d="M649.021 80.9903L649.021 76.5L653.512 76.5L653.512 80.9903L649.021 80.9903Z" fill="white"/>
<path d="M687.198 191.002L687.198 195.492L691.69 195.492L691.69 191.002L687.198 191.002Z" fill="white"/>
<path d="M687.198 157.325L687.198 152.835L691.69 152.835L691.69 157.325L687.198 157.325Z" fill="white"/>
<path d="M725.376 191.002L725.376 195.492L729.868 195.492L729.868 191.002L725.376 191.002Z" fill="white"/>
<path d="M725.376 157.325L725.376 152.835L729.868 152.835L729.868 157.325L725.376 157.325Z" fill="white"/>
<path d="M687.198 114.667L687.198 119.158L691.69 119.158L691.69 114.667L687.198 114.667Z" fill="white"/>
<path d="M687.198 80.9903L687.198 76.5L691.69 76.5L691.69 80.9903L687.198 80.9903Z" fill="white"/>
<path d="M725.376 114.667L725.376 119.158L729.868 119.158L729.868 114.667L725.376 114.667Z" fill="white"/>
<path d="M725.376 80.9903L725.376 76.5L729.868 76.5L729.868 80.9903L725.376 80.9903Z" fill="white"/>
<path d="M763.554 348.161L763.554 343.671L768.045 343.671L768.045 348.161L763.554 348.161Z" fill="white"/>
<path d="M763.554 309.994L763.554 305.504L768.045 305.504L768.045 309.994L763.554 309.994Z" fill="white"/>
<path d="M801.732 343.671L801.732 348.161L806.223 348.161L806.223 343.671L801.732 343.671Z" fill="white"/>
<path d="M801.732 309.994L801.732 305.504L806.223 305.504L806.223 309.994L801.732 309.994Z" fill="white"/>
<path d="M763.554 267.337L763.554 271.827L768.045 271.827L768.045 267.337L763.554 267.337Z" fill="white"/>
<path d="M763.554 233.66L763.554 229.169L768.045 229.169L768.045 233.66L763.554 233.66Z" fill="white"/>
<path d="M801.732 267.337L801.732 271.827L806.223 271.827L806.223 267.337L801.732 267.337Z" fill="white"/>
<path d="M801.732 233.66L801.732 229.169L806.223 229.169L806.223 233.66L801.732 233.66Z" fill="white"/>
<path d="M839.909 343.671L839.909 348.161L844.401 348.161L844.401 343.671L839.909 343.671Z" fill="white"/>
<path d="M839.909 309.994L839.909 305.504L844.401 305.504L844.401 309.994L839.909 309.994Z" fill="white"/>
<path d="M878.087 343.671L878.087 348.161L882.578 348.161L882.578 343.671L878.087 343.671Z" fill="white"/>
<path d="M878.087 309.994L878.087 305.504L882.578 305.504L882.578 309.994L878.087 309.994Z" fill="white"/>
<path d="M839.909 267.337L839.909 271.827L844.401 271.827L844.401 267.337L839.909 267.337Z" fill="white"/>
<path d="M839.909 233.66L839.909 229.169L844.401 229.169L844.401 233.66L839.909 233.66Z" fill="white"/>
<path d="M878.087 267.337L878.087 271.827L882.578 271.827L882.578 267.337L878.087 267.337Z" fill="white"/>
<path d="M878.087 233.66L878.087 229.169L882.578 229.169L882.578 233.66L878.087 233.66Z" fill="white"/>
<path d="M763.554 195.492L763.554 191.002L768.045 191.002L768.045 195.492L763.554 195.492Z" fill="white"/>
<path d="M763.554 157.325L763.554 152.835L768.045 152.835L768.045 157.325L763.554 157.325Z" fill="white"/>
<path d="M801.732 191.002L801.732 195.492L806.223 195.492L806.223 191.002L801.732 191.002Z" fill="white"/>
<path d="M801.732 157.325L801.732 152.835L806.223 152.835L806.223 157.325L801.732 157.325Z" fill="white"/>
<path d="M763.554 114.667L763.554 119.158L768.045 119.158L768.045 114.667L763.554 114.667Z" fill="white"/>
<path d="M763.554 80.9903L763.554 76.5L768.045 76.5L768.045 80.9903L763.554 80.9903Z" fill="white"/>
<path d="M801.732 114.667L801.732 119.158L806.223 119.158L806.223 114.667L801.732 114.667Z" fill="white"/>
<path d="M801.732 80.9903L801.732 76.5L806.223 76.5L806.223 80.9903L801.732 80.9903Z" fill="white"/>
<path d="M839.909 191.002L839.909 195.492L844.401 195.492L844.401 191.002L839.909 191.002Z" fill="white"/>
<path d="M839.909 157.325L839.909 152.835L844.401 152.835L844.401 157.325L839.909 157.325Z" fill="white"/>
<path d="M878.087 191.002L878.087 195.492L882.578 195.492L882.578 191.002L878.087 191.002Z" fill="white"/>
<path d="M878.087 157.325L878.087 152.835L882.578 152.835L882.578 157.325L878.087 157.325Z" fill="white"/>
<path d="M839.909 114.667L839.909 119.158L844.401 119.158L844.401 114.667L839.909 114.667Z" fill="white"/>
<path d="M839.909 80.9903L839.909 76.5L844.401 76.5L844.401 80.9903L839.909 80.9903Z" fill="white"/>
<path d="M878.087 114.667L878.087 119.158L882.578 119.158L882.578 114.667L878.087 114.667Z" fill="white"/>
<path d="M878.087 80.9903L878.087 76.5L882.578 76.5L882.578 80.9903L878.087 80.9903Z" fill="white"/>
<path d="M916.265 649.01L916.265 653.5L920.756 653.5L920.756 649.01L916.265 649.01Z" fill="white"/>
<path d="M916.265 610.842L916.265 615.333L920.756 615.333L920.756 610.842L916.265 610.842Z" fill="white"/>
<path d="M954.442 653.5L954.442 649.01L958.934 649.01L958.934 653.5L954.442 653.5Z" fill="white"/>
<path d="M954.442 610.842L954.442 615.333L958.934 615.333L958.934 610.842L954.442 610.842Z" fill="white"/>
<path d="M916.265 577.165L916.265 572.675L920.756 572.675L920.756 577.165L916.265 577.165Z" fill="white"/>
<path d="M916.265 534.508L916.265 538.998L920.756 538.998L920.756 534.508L916.265 534.508Z" fill="white"/>
<path d="M954.442 577.165L954.442 572.675L958.934 572.675L958.934 577.165L954.442 577.165Z" fill="white"/>
<path d="M954.442 534.508L954.442 538.998L958.934 538.998L958.934 534.508L954.442 534.508Z" fill="white"/>
<path d="M992.62 653.5L992.62 649.01L997.112 649.01L997.112 653.5L992.62 653.5Z" fill="white"/>
<path d="M992.62 610.842L992.62 615.333L997.112 615.333L997.112 610.842L992.62 610.842Z" fill="white"/>
<path d="M1030.8 653.5L1030.8 649.01L1035.29 649.01L1035.29 653.5L1030.8 653.5Z" fill="white"/>
<path d="M1030.8 610.842L1030.8 615.333L1035.29 615.333L1035.29 610.842L1030.8 610.842Z" fill="white"/>
<path d="M992.62 577.165L992.62 572.675L997.112 572.675L997.112 577.165L992.62 577.165Z" fill="white"/>
<path d="M992.62 534.508L992.62 538.998L997.112 538.998L997.112 534.508L992.62 534.508Z" fill="white"/>
<path d="M1030.8 577.165L1030.8 572.675L1035.29 572.675L1035.29 577.165L1030.8 577.165Z" fill="white"/>
<path d="M1030.8 534.508L1030.8 538.998L1035.29 538.998L1035.29 534.508L1030.8 534.508Z" fill="white"/>
<path d="M916.265 496.34L916.265 500.831L920.756 500.831L920.756 496.34L916.265 496.34Z" fill="white"/>
<path d="M916.265 458.173L916.265 462.663L920.756 462.663L920.756 458.173L916.265 458.173Z" fill="white"/>
<path d="M954.442 500.831L954.442 496.34L958.934 496.34L958.934 500.831L954.442 500.831Z" fill="white"/>
<path d="M954.442 458.173L954.442 462.663L958.934 462.663L958.934 458.173L954.442 458.173Z" fill="white"/>
<path d="M916.265 424.496L916.265 420.006L920.756 420.006L920.756 424.496L916.265 424.496Z" fill="white"/>
<path d="M916.265 381.838L916.265 386.329L920.756 386.329L920.756 381.838L916.265 381.838Z" fill="white"/>
<path d="M954.442 424.496L954.442 420.006L958.934 420.006L958.934 424.496L954.442 424.496Z" fill="white"/>
<path d="M954.442 381.838L954.442 386.329L958.934 386.329L958.934 381.838L954.442 381.838Z" fill="white"/>
<path d="M992.62 500.831L992.62 496.34L997.112 496.34L997.112 500.831L992.62 500.831Z" fill="white"/>
<path d="M992.62 458.173L992.62 462.663L997.112 462.663L997.112 458.173L992.62 458.173Z" fill="white"/>
<path d="M1030.8 500.831L1030.8 496.34L1035.29 496.34L1035.29 500.831L1030.8 500.831Z" fill="white"/>
<path d="M1030.8 458.173L1030.8 462.663L1035.29 462.663L1035.29 458.173L1030.8 458.173Z" fill="white"/>
<path d="M992.62 424.496L992.62 420.006L997.112 420.006L997.112 424.496L992.62 424.496Z" fill="white"/>
<path d="M992.62 381.838L992.62 386.329L997.111 386.329L997.111 381.838L992.62 381.838Z" fill="white"/>
<path d="M1030.8 424.496L1030.8 420.006L1035.29 420.006L1035.29 424.496L1030.8 424.496Z" fill="white"/>
<path d="M1030.8 381.838L1030.8 386.329L1035.29 386.329L1035.29 381.838L1030.8 381.838Z" fill="white"/>
<path d="M1068.98 649.01L1068.98 653.5L1073.47 653.5L1073.47 649.01L1068.98 649.01Z" fill="white"/>
<path d="M1068.98 610.842L1068.98 615.333L1073.47 615.333L1073.47 610.842L1068.98 610.842Z" fill="white"/>
<path d="M1107.15 653.5L1107.15 649.01L1111.64 649.01L1111.64 653.5L1107.15 653.5Z" fill="white"/>
<path d="M1107.15 610.842L1107.15 615.333L1111.64 615.333L1111.64 610.842L1107.15 610.842Z" fill="white"/>
<path d="M1068.98 577.165L1068.98 572.675L1073.47 572.675L1073.47 577.165L1068.98 577.165Z" fill="white"/>
<path d="M1068.98 534.508L1068.98 538.998L1073.47 538.998L1073.47 534.508L1068.98 534.508Z" fill="white"/>
<path d="M1107.15 577.165L1107.15 572.675L1111.64 572.675L1111.64 577.165L1107.15 577.165Z" fill="white"/>
<path d="M1107.15 534.508L1107.15 538.998L1111.64 538.998L1111.64 534.508L1107.15 534.508Z" fill="white"/>
<path d="M1145.33 653.5L1145.33 649.01L1149.82 649.01L1149.82 653.5L1145.33 653.5Z" fill="white"/>
<path d="M1145.33 610.842L1145.33 615.333L1149.82 615.333L1149.82 610.842L1145.33 610.842Z" fill="white"/>
<path d="M1183.51 653.5L1183.51 649.01L1188 649.01L1188 653.5L1183.51 653.5Z" fill="white"/>
<path d="M1183.51 610.842L1183.51 615.333L1188 615.333L1188 610.842L1183.51 610.842Z" fill="white"/>
<path d="M1145.33 577.165L1145.33 572.675L1149.82 572.675L1149.82 577.165L1145.33 577.165Z" fill="white"/>
<path d="M1145.33 534.508L1145.33 538.998L1149.82 538.998L1149.82 534.508L1145.33 534.508Z" fill="white"/>
<path d="M1183.51 577.165L1183.51 572.675L1188 572.675L1188 577.165L1183.51 577.165Z" fill="white"/>
<path d="M1183.51 534.508L1183.51 538.998L1188 538.998L1188 534.508L1183.51 534.508Z" fill="white"/>
<path d="M1068.98 496.34L1068.98 500.831L1073.47 500.831L1073.47 496.34L1068.98 496.34Z" fill="white"/>
<path d="M1068.98 458.173L1068.98 462.663L1073.47 462.663L1073.47 458.173L1068.98 458.173Z" fill="white"/>
<path d="M1107.15 500.831L1107.15 496.34L1111.64 496.34L1111.64 500.831L1107.15 500.831Z" fill="white"/>
<path d="M1107.15 458.173L1107.15 462.663L1111.64 462.663L1111.64 458.173L1107.15 458.173Z" fill="white"/>
<path d="M1068.98 424.496L1068.98 420.006L1073.47 420.006L1073.47 424.496L1068.98 424.496Z" fill="white"/>
<path d="M1068.98 381.838L1068.98 386.329L1073.47 386.329L1073.47 381.838L1068.98 381.838Z" fill="white"/>
<path d="M1107.15 424.496L1107.15 420.006L1111.64 420.006L1111.64 424.496L1107.15 424.496Z" fill="white"/>
<path d="M1107.15 381.838L1107.15 386.329L1111.64 386.329L1111.64 381.838L1107.15 381.838Z" fill="white"/>
<path d="M1145.33 500.831L1145.33 496.34L1149.82 496.34L1149.82 500.831L1145.33 500.831Z" fill="white"/>
<path d="M1145.33 458.173L1145.33 462.663L1149.82 462.663L1149.82 458.173L1145.33 458.173Z" fill="white"/>
<path d="M1183.51 500.831L1183.51 496.34L1188 496.34L1188 500.831L1183.51 500.831Z" fill="white"/>
<path d="M1183.51 458.173L1183.51 462.663L1188 462.663L1188 458.173L1183.51 458.173Z" fill="white"/>
<path d="M1145.33 424.496L1145.33 420.006L1149.82 420.006L1149.82 424.496L1145.33 424.496Z" fill="white"/>
<path d="M1145.33 381.838L1145.33 386.329L1149.82 386.329L1149.82 381.838L1145.33 381.838Z" fill="white"/>
<path d="M1183.51 424.496L1183.51 420.006L1188 420.006L1188 424.496L1183.51 424.496Z" fill="white"/>
<path d="M1183.51 381.838L1183.51 386.329L1188 386.329L1188 381.838L1183.51 381.838Z" fill="white"/>
<path d="M916.265 348.161L916.265 343.671L920.756 343.671L920.756 348.161L916.265 348.161Z" fill="white"/>
<path d="M916.265 309.994L916.265 305.504L920.756 305.504L920.756 309.994L916.265 309.994Z" fill="white"/>
<path d="M954.442 343.671L954.442 348.161L958.934 348.161L958.934 343.671L954.442 343.671Z" fill="white"/>
<path d="M954.442 309.994L954.442 305.504L958.934 305.504L958.934 309.994L954.442 309.994Z" fill="white"/>
<path d="M916.265 267.337L916.265 271.827L920.756 271.827L920.756 267.337L916.265 267.337Z" fill="white"/>
<path d="M916.265 233.66L916.265 229.169L920.756 229.169L920.756 233.66L916.265 233.66Z" fill="white"/>
<path d="M954.442 267.337L954.442 271.827L958.934 271.827L958.934 267.337L954.442 267.337Z" fill="white"/>
<path d="M954.442 233.66L954.442 229.169L958.934 229.169L958.934 233.66L954.442 233.66Z" fill="white"/>
<path d="M992.62 343.671L992.62 348.161L997.111 348.161L997.111 343.671L992.62 343.671Z" fill="white"/>
<path d="M992.62 309.994L992.62 305.504L997.111 305.504L997.111 309.994L992.62 309.994Z" fill="white"/>
<path d="M1030.8 343.671L1030.8 348.161L1035.29 348.161L1035.29 343.671L1030.8 343.671Z" fill="white"/>
<path d="M1030.8 309.994L1030.8 305.504L1035.29 305.504L1035.29 309.994L1030.8 309.994Z" fill="white"/>
<path d="M992.62 267.337L992.62 271.827L997.111 271.827L997.111 267.337L992.62 267.337Z" fill="white"/>
<path d="M992.62 233.66L992.62 229.169L997.111 229.169L997.111 233.66L992.62 233.66Z" fill="white"/>
<path d="M1030.8 267.337L1030.8 271.827L1035.29 271.827L1035.29 267.337L1030.8 267.337Z" fill="white"/>
<path d="M1030.8 233.66L1030.8 229.169L1035.29 229.169L1035.29 233.66L1030.8 233.66Z" fill="white"/>
<path d="M916.265 195.492L916.265 191.002L920.756 191.002L920.756 195.492L916.265 195.492Z" fill="white"/>
<path d="M916.265 157.325L916.265 152.835L920.756 152.835L920.756 157.325L916.265 157.325Z" fill="white"/>
<path d="M954.442 191.002L954.442 195.492L958.934 195.492L958.934 191.002L954.442 191.002Z" fill="white"/>
<path d="M954.442 157.325L954.442 152.835L958.934 152.835L958.934 157.325L954.442 157.325Z" fill="white"/>
<path d="M916.265 114.667L916.265 119.158L920.756 119.158L920.756 114.667L916.265 114.667Z" fill="white"/>
<path d="M916.265 80.9903L916.265 76.5L920.756 76.5L920.756 80.9903L916.265 80.9903Z" fill="white"/>
<path d="M954.442 114.667L954.442 119.158L958.934 119.158L958.934 114.667L954.442 114.667Z" fill="white"/>
<path d="M954.442 80.9903L954.442 76.5L958.934 76.5L958.934 80.9903L954.442 80.9903Z" fill="white"/>
<path d="M992.62 191.002L992.62 195.492L997.111 195.492L997.111 191.002L992.62 191.002Z" fill="white"/>
<path d="M992.62 157.325L992.62 152.835L997.111 152.835L997.111 157.325L992.62 157.325Z" fill="white"/>
<path d="M1030.8 191.002L1030.8 195.492L1035.29 195.492L1035.29 191.002L1030.8 191.002Z" fill="white"/>
<path d="M1030.8 157.325L1030.8 152.835L1035.29 152.835L1035.29 157.325L1030.8 157.325Z" fill="white"/>
<path d="M992.62 114.667L992.62 119.158L997.111 119.158L997.111 114.667L992.62 114.667Z" fill="white"/>
<path d="M992.62 80.9903L992.62 76.5L997.111 76.5L997.111 80.9903L992.62 80.9903Z" fill="white"/>
<path d="M1030.8 114.667L1030.8 119.158L1035.29 119.158L1035.29 114.667L1030.8 114.667Z" fill="white"/>
<path d="M1030.8 80.9903L1030.8 76.5L1035.29 76.5L1035.29 80.9903L1030.8 80.9903Z" fill="white"/>
<path d="M1068.98 348.161L1068.98 343.671L1073.47 343.671L1073.47 348.161L1068.98 348.161Z" fill="white"/>
<path d="M1068.98 309.994L1068.98 305.504L1073.47 305.504L1073.47 309.994L1068.98 309.994Z" fill="white"/>
<path d="M1107.15 343.671L1107.15 348.161L1111.64 348.161L1111.64 343.671L1107.15 343.671Z" fill="white"/>
<path d="M1107.15 309.994L1107.15 305.504L1111.64 305.504L1111.64 309.994L1107.15 309.994Z" fill="white"/>
<path d="M1068.98 267.337L1068.98 271.827L1073.47 271.827L1073.47 267.337L1068.98 267.337Z" fill="white"/>
<path d="M1068.98 233.66L1068.98 229.169L1073.47 229.169L1073.47 233.66L1068.98 233.66Z" fill="white"/>
<path d="M1107.15 267.337L1107.15 271.827L1111.64 271.827L1111.64 267.337L1107.15 267.337Z" fill="white"/>
<path d="M1107.15 233.66L1107.15 229.169L1111.64 229.169L1111.64 233.66L1107.15 233.66Z" fill="white"/>
<path d="M1145.33 343.671L1145.33 348.161L1149.82 348.161L1149.82 343.671L1145.33 343.671Z" fill="white"/>
<path d="M1145.33 309.994L1145.33 305.504L1149.82 305.504L1149.82 309.994L1145.33 309.994Z" fill="white"/>
<path d="M1183.51 343.671L1183.51 348.161L1188 348.161L1188 343.671L1183.51 343.671Z" fill="white"/>
<path d="M1183.51 309.994L1183.51 305.504L1188 305.504L1188 309.994L1183.51 309.994Z" fill="white"/>
<path d="M1145.33 267.337L1145.33 271.827L1149.82 271.827L1149.82 267.337L1145.33 267.337Z" fill="white"/>
<path d="M1145.33 233.66L1145.33 229.169L1149.82 229.169L1149.82 233.66L1145.33 233.66Z" fill="white"/>
<path d="M1183.51 267.337L1183.51 271.827L1188 271.827L1188 267.337L1183.51 267.337Z" fill="white"/>
<path d="M1183.51 233.66L1183.51 229.169L1188 229.169L1188 233.66L1183.51 233.66Z" fill="white"/>
<path d="M1068.98 195.492L1068.98 191.002L1073.47 191.002L1073.47 195.492L1068.98 195.492Z" fill="white"/>
<path d="M1068.98 157.325L1068.98 152.835L1073.47 152.835L1073.47 157.325L1068.98 157.325Z" fill="white"/>
<path d="M1107.15 191.002L1107.15 195.492L1111.64 195.492L1111.64 191.002L1107.15 191.002Z" fill="white"/>
<path d="M1107.15 157.325L1107.15 152.835L1111.64 152.835L1111.64 157.325L1107.15 157.325Z" fill="white"/>
<path d="M1068.98 114.667L1068.98 119.158L1073.47 119.158L1073.47 114.667L1068.98 114.667Z" fill="white"/>
<path d="M1068.98 80.9902L1068.98 76.5L1073.47 76.5L1073.47 80.9902L1068.98 80.9902Z" fill="white"/>
<path d="M1107.15 114.667L1107.15 119.158L1111.64 119.158L1111.64 114.667L1107.15 114.667Z" fill="white"/>
<path d="M1107.15 80.9902L1107.15 76.5L1111.64 76.5L1111.64 80.9902L1107.15 80.9902Z" fill="white"/>
<path d="M1145.33 191.002L1145.33 195.492L1149.82 195.492L1149.82 191.002L1145.33 191.002Z" fill="white"/>
<path d="M1145.33 157.325L1145.33 152.835L1149.82 152.835L1149.82 157.325L1145.33 157.325Z" fill="white"/>
<path d="M1183.51 191.002L1183.51 195.492L1188 195.492L1188 191.002L1183.51 191.002Z" fill="white"/>
<path d="M1183.51 157.325L1183.51 152.835L1188 152.835L1188 157.325L1183.51 157.325Z" fill="white"/>
<path d="M1145.33 114.667L1145.33 119.158L1149.82 119.158L1149.82 114.667L1145.33 114.667Z" fill="white"/>
<path d="M1145.33 80.9902L1145.33 76.5L1149.82 76.5L1149.82 80.9902L1145.33 80.9902Z" fill="white"/>
<path d="M1183.51 114.667L1183.51 119.158L1188 119.158L1188 114.667L1183.51 114.667Z" fill="white"/>
<path d="M1183.51 80.9902L1183.51 76.5L1188 76.5L1188 80.9902L1183.51 80.9902Z" fill="white"/>
<path d="M-2.52215e-05 76.5001L-2.50252e-05 80.9903L4.49147 80.9903L4.49147 76.5001L-2.52215e-05 76.5001Z" fill="white"/>
<path d="M38.1777 76.5001L38.1777 80.9903L42.6692 80.9903L42.6692 76.5001L38.1777 76.5001Z" fill="white"/>
<path d="M76.3554 76.5001L76.3554 80.9903L80.8469 80.9903L80.8469 76.5001L76.3554 76.5001Z" fill="white"/>
<path d="M114.533 76.5001L114.533 80.9903L119.025 80.9903L119.025 76.5001L114.533 76.5001Z" fill="white"/>
<path d="M152.711 76.5001L152.711 80.9903L157.202 80.9903L157.202 76.5001L152.711 76.5001Z" fill="white"/>
<path d="M190.888 76.5001L190.888 80.9903L195.38 80.9903L195.38 76.5001L190.888 76.5001Z" fill="white"/>
<path d="M229.066 76.5001L229.066 80.9903L233.558 80.9903L233.558 76.5001L229.066 76.5001Z" fill="white"/>
<path d="M267.244 76.5L267.244 80.9903L271.735 80.9903L271.735 76.5L267.244 76.5Z" fill="white"/>
<path d="M305.422 76.5L305.422 80.9903L309.913 80.9903L309.913 76.5L305.422 76.5Z" fill="white"/>
<path d="M343.599 76.5L343.599 80.9903L348.091 80.9903L348.091 76.5L343.599 76.5Z" fill="white"/>
<path d="M381.777 76.5L381.777 80.9903L386.268 80.9903L386.268 76.5L381.777 76.5Z" fill="white"/>
<path d="M419.955 76.5L419.955 80.9903L424.446 80.9903L424.446 76.5L419.955 76.5Z" fill="white"/>
<path d="M458.132 76.5L458.132 80.9903L462.624 80.9903L462.624 76.5L458.132 76.5Z" fill="white"/>
<path d="M496.31 76.5L496.31 80.9903L500.801 80.9903L500.801 76.5L496.31 76.5Z" fill="white"/>
<path d="M534.488 76.5L534.488 80.9903L538.979 80.9903L538.979 76.5L534.488 76.5Z" fill="white"/>
<path d="M572.665 76.5L572.665 80.9903L577.157 80.9903L577.157 76.5L572.665 76.5Z" fill="white"/>
<path d="M610.843 76.5L610.843 80.9903L615.335 80.9903L615.335 76.5L610.843 76.5Z" fill="white"/>
<path d="M649.021 76.5L649.021 80.9903L653.512 80.9903L653.512 76.5L649.021 76.5Z" fill="white"/>
<path d="M687.198 76.5L687.198 80.9903L691.69 80.9903L691.69 76.5L687.198 76.5Z" fill="white"/>
<path d="M725.376 76.5L725.376 80.9903L729.868 80.9903L729.868 76.5L725.376 76.5Z" fill="white"/>
<path d="M763.554 76.5L763.554 80.9903L768.045 80.9903L768.045 76.5L763.554 76.5Z" fill="white"/>
<path d="M801.732 76.5L801.732 80.9903L806.223 80.9903L806.223 76.5L801.732 76.5Z" fill="white"/>
<path d="M839.909 76.5L839.909 80.9903L844.401 80.9903L844.401 76.5L839.909 76.5Z" fill="white"/>
<path d="M878.087 76.5L878.087 80.9903L882.578 80.9903L882.578 76.5L878.087 76.5Z" fill="white"/>
<path d="M916.265 76.5L916.265 80.9903L920.756 80.9903L920.756 76.5L916.265 76.5Z" fill="white"/>
<path d="M954.442 76.5L954.442 80.9903L958.934 80.9903L958.934 76.5L954.442 76.5Z" fill="white"/>
<path d="M992.62 76.5L992.62 80.9903L997.111 80.9903L997.111 76.5L992.62 76.5Z" fill="white"/>
<path d="M1030.8 76.5L1030.8 80.9903L1035.29 80.9903L1035.29 76.5L1030.8 76.5Z" fill="white"/>
<path d="M1068.98 76.5L1068.98 80.9902L1073.47 80.9902L1073.47 76.5L1068.98 76.5Z" fill="white"/>
<path d="M1107.15 76.5L1107.15 80.9902L1111.64 80.9902L1111.64 76.5L1107.15 76.5Z" fill="white"/>
<path d="M1145.33 76.5L1145.33 80.9902L1149.82 80.9902L1149.82 76.5L1145.33 76.5Z" fill="white"/>
<path d="M1183.51 76.5L1183.51 80.9902L1188 80.9902L1188 76.5L1183.51 76.5Z" fill="white"/>
<path d="M-2.16885e-05 80.825L-2.18848e-05 76.3347L4.49147 76.3347L4.49147 80.825L-2.16885e-05 80.825Z" fill="white"/>
<path d="M38.1777 80.8249L38.1777 76.3347L42.6692 76.3347L42.6692 80.8249L38.1777 80.8249Z" fill="white"/>
<path d="M-2.35531e-05 38.1674L-2.33568e-05 42.6577L4.49147 42.6577L4.49147 38.1674L-2.35531e-05 38.1674Z" fill="white"/>
<path d="M-2.50252e-05 4.4903L-2.52215e-05 6.10352e-05L4.49147 6.08388e-05L4.49147 4.4903L-2.50252e-05 4.4903Z" fill="white"/>
<path d="M38.1777 38.1674L38.1777 42.6577L42.6692 42.6577L42.6692 38.1674L38.1777 38.1674Z" fill="white"/>
<path d="M38.1777 4.49029L38.1777 5.93664e-05L42.6692 5.917e-05L42.6692 4.49029L38.1777 4.49029Z" fill="white"/>
<path d="M76.3554 80.8249L76.3554 76.3347L80.8469 76.3347L80.8469 80.8249L76.3554 80.8249Z" fill="white"/>
<path d="M114.533 80.8249L114.533 76.3347L119.025 76.3347L119.025 80.8249L114.533 80.8249Z" fill="white"/>
<path d="M76.3554 38.1674L76.3554 42.6577L80.8469 42.6577L80.8469 38.1674L76.3554 38.1674Z" fill="white"/>
<path d="M76.3554 4.49029L76.3554 5.76976e-05L80.8468 5.75012e-05L80.8468 4.49029L76.3554 4.49029Z" fill="white"/>
<path d="M114.533 38.1674L114.533 42.6576L119.025 42.6576L119.025 38.1674L114.533 38.1674Z" fill="white"/>
<path d="M114.533 4.49029L114.533 5.60288e-05L119.025 5.58324e-05L119.025 4.49029L114.533 4.49029Z" fill="white"/>
<path d="M152.711 80.8249L152.711 76.3346L157.202 76.3346L157.202 80.8249L152.711 80.8249Z" fill="white"/>
<path d="M190.888 80.8249L190.888 76.3346L195.38 76.3346L195.38 80.8249L190.888 80.8249Z" fill="white"/>
<path d="M152.711 38.1674L152.711 42.6576L157.202 42.6576L157.202 38.1674L152.711 38.1674Z" fill="white"/>
<path d="M152.711 4.49029L152.711 5.436e-05L157.202 5.41636e-05L157.202 4.49029L152.711 4.49029Z" fill="white"/>
<path d="M190.888 38.1674L190.888 42.6576L195.38 42.6576L195.38 38.1673L190.888 38.1674Z" fill="white"/>
<path d="M190.888 4.49029L190.888 5.26912e-05L195.38 5.24948e-05L195.38 4.49029L190.888 4.49029Z" fill="white"/>
<path d="M229.066 80.8249L229.066 76.3346L233.558 76.3346L233.558 80.8249L229.066 80.8249Z" fill="white"/>
<path d="M267.244 80.8249L267.244 76.3346L271.735 76.3346L271.735 80.8249L267.244 80.8249Z" fill="white"/>
<path d="M229.066 38.1673L229.066 42.6576L233.558 42.6576L233.558 38.1673L229.066 38.1673Z" fill="white"/>
<path d="M229.066 4.49029L229.066 5.10224e-05L233.558 5.0826e-05L233.558 4.49029L229.066 4.49029Z" fill="white"/>
<path d="M267.244 38.1673L267.244 42.6576L271.735 42.6576L271.735 38.1673L267.244 38.1673Z" fill="white"/>
<path d="M267.244 4.49028L267.244 4.93536e-05L271.735 4.91572e-05L271.735 4.49028L267.244 4.49028Z" fill="white"/>
<path d="M305.422 80.8249L305.422 76.3346L309.913 76.3346L309.913 80.8249L305.422 80.8249Z" fill="white"/>
<path d="M343.599 80.8249L343.599 76.3346L348.091 76.3346L348.091 80.8249L343.599 80.8249Z" fill="white"/>
<path d="M305.422 38.1673L305.422 42.6576L309.913 42.6576L309.913 38.1673L305.422 38.1673Z" fill="white"/>
<path d="M305.422 4.49028L305.422 4.76848e-05L309.913 4.74884e-05L309.913 4.49028L305.422 4.49028Z" fill="white"/>
<path d="M343.599 38.1673L343.599 42.6576L348.091 42.6576L348.091 38.1673L343.599 38.1673Z" fill="white"/>
<path d="M343.599 4.49028L343.599 4.6016e-05L348.091 4.58196e-05L348.091 4.49028L343.599 4.49028Z" fill="white"/>
<path d="M381.777 80.8249L381.777 76.3346L386.268 76.3346L386.268 80.8249L381.777 80.8249Z" fill="white"/>
<path d="M419.955 80.8249L419.955 76.3346L424.446 76.3346L424.446 80.8249L419.955 80.8249Z" fill="white"/>
<path d="M381.777 38.1673L381.777 42.6576L386.268 42.6576L386.268 38.1673L381.777 38.1673Z" fill="white"/>
<path d="M381.777 4.49028L381.777 4.43472e-05L386.268 4.41508e-05L386.268 4.49028L381.777 4.49028Z" fill="white"/>
<path d="M419.955 38.1673L419.955 42.6576L424.446 42.6576L424.446 38.1673L419.955 38.1673Z" fill="white"/>
<path d="M419.955 4.49028L419.955 4.26784e-05L424.446 4.2482e-05L424.446 4.49028L419.955 4.49028Z" fill="white"/>
<path d="M458.132 80.8249L458.132 76.3346L462.624 76.3346L462.624 80.8249L458.132 80.8249Z" fill="white"/>
<path d="M496.31 80.8249L496.31 76.3346L500.801 76.3346L500.801 80.8249L496.31 80.8249Z" fill="white"/>
<path d="M458.132 38.1673L458.132 42.6576L462.624 42.6576L462.624 38.1673L458.132 38.1673Z" fill="white"/>
<path d="M458.132 4.49028L458.132 4.10096e-05L462.624 4.08132e-05L462.624 4.49028L458.132 4.49028Z" fill="white"/>
<path d="M496.31 38.1673L496.31 42.6576L500.801 42.6576L500.801 38.1673L496.31 38.1673Z" fill="white"/>
<path d="M496.31 4.49027L496.31 3.93408e-05L500.801 3.91444e-05L500.801 4.49027L496.31 4.49027Z" fill="white"/>
<path d="M534.488 80.8249L534.488 76.3346L538.979 76.3346L538.979 80.8249L534.488 80.8249Z" fill="white"/>
<path d="M572.665 80.8249L572.665 76.3346L577.157 76.3346L577.157 80.8249L572.665 80.8249Z" fill="white"/>
<path d="M534.488 38.1673L534.488 42.6576L538.979 42.6576L538.979 38.1673L534.488 38.1673Z" fill="white"/>
<path d="M534.488 4.49027L534.488 3.7672e-05L538.979 3.74756e-05L538.979 4.49027L534.488 4.49027Z" fill="white"/>
<path d="M572.665 38.1673L572.665 42.6576L577.157 42.6576L577.157 38.1673L572.665 38.1673Z" fill="white"/>
<path d="M572.665 4.49027L572.665 3.60032e-05L577.157 3.58068e-05L577.157 4.49027L572.665 4.49027Z" fill="white"/>
<path d="M610.843 80.8249L610.843 76.3346L615.335 76.3346L615.335 80.8249L610.843 80.8249Z" fill="white"/>
<path d="M649.021 80.8249L649.021 76.3346L653.512 76.3346L653.512 80.8249L649.021 80.8249Z" fill="white"/>
<path d="M610.843 38.1673L610.843 42.6576L615.335 42.6576L615.335 38.1673L610.843 38.1673Z" fill="white"/>
<path d="M610.843 4.49027L610.843 3.43344e-05L615.335 3.4138e-05L615.335 4.49027L610.843 4.49027Z" fill="white"/>
<path d="M649.021 38.1673L649.021 42.6576L653.512 42.6576L653.512 38.1673L649.021 38.1673Z" fill="white"/>
<path d="M649.021 4.49027L649.021 3.26656e-05L653.512 3.24692e-05L653.512 4.49027L649.021 4.49027Z" fill="white"/>
<path d="M687.198 80.8249L687.198 76.3346L691.69 76.3346L691.69 80.8249L687.198 80.8249Z" fill="white"/>
<path d="M725.376 80.8249L725.376 76.3346L729.868 76.3346L729.868 80.8249L725.376 80.8249Z" fill="white"/>
<path d="M687.198 38.1673L687.198 42.6576L691.69 42.6576L691.69 38.1673L687.198 38.1673Z" fill="white"/>
<path d="M687.198 4.49027L687.198 3.09968e-05L691.69 3.08004e-05L691.69 4.49027L687.198 4.49027Z" fill="white"/>
<path d="M725.376 38.1673L725.376 42.6576L729.868 42.6576L729.868 38.1673L725.376 38.1673Z" fill="white"/>
<path d="M725.376 4.49026L725.376 2.9328e-05L729.868 2.91316e-05L729.868 4.49026L725.376 4.49026Z" fill="white"/>
<path d="M763.554 80.8249L763.554 76.3346L768.045 76.3346L768.045 80.8249L763.554 80.8249Z" fill="white"/>
<path d="M801.732 80.8249L801.732 76.3346L806.223 76.3346L806.223 80.8249L801.732 80.8249Z" fill="white"/>
<path d="M763.554 38.1673L763.554 42.6576L768.045 42.6576L768.045 38.1673L763.554 38.1673Z" fill="white"/>
<path d="M763.554 4.49026L763.554 2.76592e-05L768.045 2.74628e-05L768.045 4.49026L763.554 4.49026Z" fill="white"/>
<path d="M801.732 38.1673L801.732 42.6576L806.223 42.6576L806.223 38.1673L801.732 38.1673Z" fill="white"/>
<path d="M801.732 4.49026L801.732 2.59904e-05L806.223 2.5794e-05L806.223 4.49026L801.732 4.49026Z" fill="white"/>
<path d="M839.909 80.8249L839.909 76.3346L844.401 76.3346L844.401 80.8249L839.909 80.8249Z" fill="white"/>
<path d="M878.087 80.8249L878.087 76.3346L882.578 76.3346L882.578 80.8249L878.087 80.8249Z" fill="white"/>
<path d="M839.909 38.1673L839.909 42.6576L844.401 42.6576L844.401 38.1673L839.909 38.1673Z" fill="white"/>
<path d="M839.909 4.49026L839.909 2.43216e-05L844.401 2.41252e-05L844.401 4.49026L839.909 4.49026Z" fill="white"/>
<path d="M878.087 38.1673L878.087 42.6576L882.578 42.6576L882.578 38.1673L878.087 38.1673Z" fill="white"/>
<path d="M878.087 4.49026L878.087 2.26528e-05L882.578 2.24564e-05L882.578 4.49026L878.087 4.49026Z" fill="white"/>
<path d="M916.265 80.8249L916.265 76.3346L920.756 76.3346L920.756 80.8249L916.265 80.8249Z" fill="white"/>
<path d="M954.442 80.8249L954.442 76.3346L958.934 76.3346L958.934 80.8249L954.442 80.8249Z" fill="white"/>
<path d="M916.265 38.1673L916.265 42.6576L920.756 42.6576L920.756 38.1673L916.265 38.1673Z" fill="white"/>
<path d="M916.265 4.49026L916.265 2.0984e-05L920.756 2.07876e-05L920.756 4.49026L916.265 4.49026Z" fill="white"/>
<path d="M954.442 38.1673L954.442 42.6576L958.934 42.6576L958.934 38.1673L954.442 38.1673Z" fill="white"/>
<path d="M954.442 4.49025L954.442 1.93152e-05L958.934 1.91188e-05L958.934 4.49025L954.442 4.49025Z" fill="white"/>
<path d="M992.62 80.8249L992.62 76.3346L997.111 76.3346L997.111 80.8249L992.62 80.8249Z" fill="white"/>
<path d="M1030.8 80.8249L1030.8 76.3346L1035.29 76.3346L1035.29 80.8249L1030.8 80.8249Z" fill="white"/>
<path d="M992.62 38.1673L992.62 42.6576L997.111 42.6576L997.111 38.1673L992.62 38.1673Z" fill="white"/>
<path d="M992.62 4.49025L992.62 1.76464e-05L997.111 1.745e-05L997.111 4.49025L992.62 4.49025Z" fill="white"/>
<path d="M1030.8 38.1673L1030.8 42.6576L1035.29 42.6576L1035.29 38.1673L1030.8 38.1673Z" fill="white"/>
<path d="M1030.8 4.49025L1030.8 1.59776e-05L1035.29 1.57812e-05L1035.29 4.49025L1030.8 4.49025Z" fill="white"/>
<path d="M1068.98 80.8249L1068.98 76.3346L1073.47 76.3346L1073.47 80.8249L1068.98 80.8249Z" fill="white"/>
<path d="M1107.15 80.8249L1107.15 76.3346L1111.64 76.3346L1111.64 80.8249L1107.15 80.8249Z" fill="white"/>
<path d="M1068.98 38.1673L1068.98 42.6576L1073.47 42.6576L1073.47 38.1673L1068.98 38.1673Z" fill="white"/>
<path d="M1068.98 4.49025L1068.98 1.43088e-05L1073.47 1.41124e-05L1073.47 4.49025L1068.98 4.49025Z" fill="white"/>
<path d="M1107.15 38.1673L1107.15 42.6576L1111.64 42.6576L1111.64 38.1673L1107.15 38.1673Z" fill="white"/>
<path d="M1107.15 4.49025L1107.15 1.264e-05L1111.64 1.24436e-05L1111.64 4.49025L1107.15 4.49025Z" fill="white"/>
<path d="M1145.33 80.8249L1145.33 76.3346L1149.82 76.3346L1149.82 80.8249L1145.33 80.8249Z" fill="white"/>
<path d="M1183.51 80.8249L1183.51 76.3346L1188 76.3346L1188 80.8249L1183.51 80.8249Z" fill="white"/>
<path d="M1145.33 38.1673L1145.33 42.6576L1149.82 42.6576L1149.82 38.1673L1145.33 38.1673Z" fill="white"/>
<path d="M1145.33 4.49025L1145.33 1.09712e-05L1149.82 1.07748e-05L1149.82 4.49025L1145.33 4.49025Z" fill="white"/>
<path d="M1183.51 38.1673L1183.51 42.6576L1188 42.6576L1188 38.1673L1183.51 38.1673Z" fill="white"/>
<path d="M1183.51 4.49024L1183.51 9.30236e-06L1188 9.10603e-06L1188 4.49024L1183.51 4.49024Z" fill="white"/>
<path d="M-2.52215e-05 6.10352e-05L-2.50252e-05 4.4903L4.49147 4.4903L4.49147 6.08388e-05L-2.52215e-05 6.10352e-05Z" fill="white"/>
<path d="M38.1777 5.93664e-05L38.1777 4.49029L42.6692 4.49029L42.6692 5.917e-05L38.1777 5.93664e-05Z" fill="white"/>
<path d="M76.3554 5.76976e-05L76.3554 4.49029L80.8468 4.49029L80.8468 5.75012e-05L76.3554 5.76976e-05Z" fill="white"/>
<path d="M114.533 5.60288e-05L114.533 4.49029L119.025 4.49029L119.025 5.58324e-05L114.533 5.60288e-05Z" fill="white"/>
<path d="M152.711 5.436e-05L152.711 4.49029L157.202 4.49029L157.202 5.41636e-05L152.711 5.436e-05Z" fill="white"/>
<path d="M190.888 5.26912e-05L190.888 4.49029L195.38 4.49029L195.38 5.24948e-05L190.888 5.26912e-05Z" fill="white"/>
<path d="M229.066 5.10224e-05L229.066 4.49029L233.558 4.49029L233.558 5.0826e-05L229.066 5.10224e-05Z" fill="white"/>
<path d="M267.244 4.93536e-05L267.244 4.49028L271.735 4.49028L271.735 4.91572e-05L267.244 4.93536e-05Z" fill="white"/>
<path d="M305.422 4.76848e-05L305.422 4.49028L309.913 4.49028L309.913 4.74884e-05L305.422 4.76848e-05Z" fill="white"/>
<path d="M343.599 4.6016e-05L343.599 4.49028L348.091 4.49028L348.091 4.58196e-05L343.599 4.6016e-05Z" fill="white"/>
<path d="M381.777 4.43472e-05L381.777 4.49028L386.268 4.49028L386.268 4.41508e-05L381.777 4.43472e-05Z" fill="white"/>
<path d="M419.955 4.26784e-05L419.955 4.49028L424.446 4.49028L424.446 4.2482e-05L419.955 4.26784e-05Z" fill="white"/>
<path d="M458.132 4.10096e-05L458.132 4.49028L462.624 4.49028L462.624 4.08132e-05L458.132 4.10096e-05Z" fill="white"/>
<path d="M496.31 3.93408e-05L496.31 4.49027L500.801 4.49027L500.801 3.91444e-05L496.31 3.93408e-05Z" fill="white"/>
<path d="M534.488 3.7672e-05L534.488 4.49027L538.979 4.49027L538.979 3.74756e-05L534.488 3.7672e-05Z" fill="white"/>
<path d="M572.665 3.60032e-05L572.665 4.49027L577.157 4.49027L577.157 3.58068e-05L572.665 3.60032e-05Z" fill="white"/>
<path d="M610.843 3.43344e-05L610.843 4.49027L615.335 4.49027L615.335 3.4138e-05L610.843 3.43344e-05Z" fill="white"/>
<path d="M649.021 3.26656e-05L649.021 4.49027L653.512 4.49027L653.512 3.24692e-05L649.021 3.26656e-05Z" fill="white"/>
<path d="M687.198 3.09968e-05L687.198 4.49027L691.69 4.49027L691.69 3.08004e-05L687.198 3.09968e-05Z" fill="white"/>
<path d="M725.376 2.9328e-05L725.376 4.49026L729.868 4.49026L729.868 2.91316e-05L725.376 2.9328e-05Z" fill="white"/>
<path d="M763.554 2.76592e-05L763.554 4.49026L768.045 4.49026L768.045 2.74628e-05L763.554 2.76592e-05Z" fill="white"/>
<path d="M801.732 2.59904e-05L801.732 4.49026L806.223 4.49026L806.223 2.5794e-05L801.732 2.59904e-05Z" fill="white"/>
<path d="M839.909 2.43216e-05L839.909 4.49026L844.401 4.49026L844.401 2.41252e-05L839.909 2.43216e-05Z" fill="white"/>
<path d="M878.087 2.26528e-05L878.087 4.49026L882.578 4.49026L882.578 2.24564e-05L878.087 2.26528e-05Z" fill="white"/>
<path d="M916.265 2.0984e-05L916.265 4.49026L920.756 4.49026L920.756 2.07876e-05L916.265 2.0984e-05Z" fill="white"/>
<path d="M954.442 1.93152e-05L954.442 4.49025L958.934 4.49025L958.934 1.91188e-05L954.442 1.93152e-05Z" fill="white"/>
<path d="M992.62 1.76464e-05L992.62 4.49025L997.111 4.49025L997.111 1.745e-05L992.62 1.76464e-05Z" fill="white"/>
<path d="M1030.8 1.59776e-05L1030.8 4.49025L1035.29 4.49025L1035.29 1.57812e-05L1030.8 1.59776e-05Z" fill="white"/>
<path d="M1068.98 1.43088e-05L1068.98 4.49025L1073.47 4.49025L1073.47 1.41124e-05L1068.98 1.43088e-05Z" fill="white"/>
<path d="M1107.15 1.264e-05L1107.15 4.49025L1111.64 4.49025L1111.64 1.24436e-05L1107.15 1.264e-05Z" fill="white"/>
<path d="M1145.33 1.09712e-05L1145.33 4.49025L1149.82 4.49025L1149.82 1.07748e-05L1145.33 1.09712e-05Z" fill="white"/>
<path d="M1183.51 9.30236e-06L1183.51 4.49024L1188 4.49024L1188 9.10603e-06L1183.51 9.30236e-06Z" fill="white"/>
</g>
</svg>
