<?xml version="1.0" encoding="UTF-8" standalone="no"?>
<svg width="1188" xmlns="http://www.w3.org/2000/svg" fill="none" viewBox="0 0 1188 654" height="654">
 <g opacity=".12" fill="#fff">
  <path d="m0 653.5l-1.9628e-7 -4.49h4.4915v4.49h-4.4915z"/>
  <path d="m-0.0000016684 615.33l-1.962e-7 -4.49h4.4915v4.49h-4.4915z"/>
  <path d="m38.178 649.01v4.49h4.491v-4.49h-4.491z"/>
  <path d="m38.178 615.33v-4.49h4.491v4.49h-4.491z"/>
  <path d="m-0.000003533 572.68l1.963e-7 4.48h4.4915v-4.48h-4.4915z"/>
  <path d="m-0.000005005 539l-1.963e-7 -4.49h4.4915v4.49h-4.4915z"/>
  <path d="m38.178 572.68v4.48h4.491v-4.48h-4.491z"/>
  <path d="m38.178 539v-4.49h4.491v4.49h-4.491z"/>
  <path d="m76.355 649.01v4.49h4.492v-4.49h-4.492z"/>
  <path d="m76.355 615.33v-4.49h4.492v4.49h-4.492z"/>
  <path d="m114.53 649.01v4.49h4.49v-4.49h-4.49z"/>
  <path d="m114.53 615.33v-4.49h4.49v4.49h-4.49z"/>
  <path d="m76.355 572.68v4.48h4.492v-4.48h-4.492z"/>
  <path d="m76.355 539v-4.49h4.492v4.49h-4.492z"/>
  <path d="m114.53 572.68v4.48h4.49v-4.48h-4.49z"/>
  <path d="m114.53 539v-4.49h4.49v4.49h-4.49z"/>
  <path d="m-0.0000066734 500.83l-1.963e-7 -4.49h4.4915v4.49h-4.4915z"/>
  <path d="m-0.0000083417 462.66l-1.963e-7 -4.49h4.4915v4.49h-4.4915z"/>
  <path d="m38.178 496.34v4.49h4.491v-4.49h-4.491z"/>
  <path d="m38.178 462.66v-4.49h4.491v4.49h-4.491z"/>
  <path d="m-0.000010206 420.01l1.96e-7 4.49h4.4915v-4.49h-4.4915z"/>
  <path d="m-0.000011678 386.33l-1.97e-7 -4.49h4.4915v4.49h-4.4915z"/>
  <path d="m38.178 420.01v4.49h4.491v-4.49h-4.491z"/>
  <path d="m38.178 386.33v-4.49h4.491v4.49h-4.491z"/>
  <path d="m76.355 496.34v4.49h4.492v-4.49h-4.492z"/>
  <path d="m76.355 462.66v-4.49h4.492v4.49h-4.492z"/>
  <path d="m114.53 496.34v4.49h4.49v-4.49h-4.49z"/>
  <path d="m114.53 462.66v-4.49h4.49v4.49h-4.49z"/>
  <path d="m76.355 420.01v4.49h4.492v-4.49h-4.492z"/>
  <path d="m76.355 386.33v-4.49h4.492v4.49h-4.492z"/>
  <path d="m114.53 420.01v4.49h4.49v-4.49h-4.49z"/>
  <path d="m114.53 386.33v-4.49h4.49v4.49h-4.49z"/>
  <path d="m152.71 653.5v-4.49h4.49v4.49h-4.49z"/>
  <path d="m152.71 615.33v-4.49h4.49v4.49h-4.49z"/>
  <path d="m190.89 649.01v4.49h4.49v-4.49h-4.49z"/>
  <path d="m190.89 615.33v-4.49h4.49v4.49h-4.49z"/>
  <path d="m152.71 572.68v4.48h4.49v-4.48h-4.49z"/>
  <path d="m152.71 539v-4.49h4.49v4.49h-4.49z"/>
  <path d="m190.89 572.68v4.48h4.49v-4.48h-4.49z"/>
  <path d="m190.89 539v-4.49h4.49v4.49h-4.49z"/>
  <path d="m229.07 649.01v4.49h4.49v-4.49h-4.49z"/>
  <path d="m229.07 615.33v-4.49h4.49v4.49h-4.49z"/>
  <path d="m267.24 649.01v4.49h4.5v-4.49h-4.5z"/>
  <path d="m267.24 615.33v-4.49h4.5v4.49h-4.5z"/>
  <path d="m229.07 572.68v4.48h4.49v-4.48h-4.49z"/>
  <path d="m229.07 539v-4.49h4.49v4.49h-4.49z"/>
  <path d="m267.24 572.68v4.48h4.5v-4.48h-4.5z"/>
  <path d="m267.24 539v-4.49h4.5v4.49h-4.5z"/>
  <path d="m152.71 500.83v-4.49h4.49v4.49h-4.49z"/>
  <path d="m152.71 462.66v-4.49h4.49v4.49h-4.49z"/>
  <path d="m190.89 496.34v4.49h4.49v-4.49h-4.49z"/>
  <path d="m190.89 462.66v-4.49h4.49v4.49h-4.49z"/>
  <path d="m152.71 420.01v4.49h4.49v-4.49h-4.49z"/>
  <path d="m152.71 386.33v-4.49h4.49v4.49h-4.49z"/>
  <path d="m190.89 420.01v4.49h4.49v-4.49h-4.49z"/>
  <path d="m190.89 386.33v-4.49h4.49v4.49h-4.49z"/>
  <path d="m229.07 496.34v4.49h4.49v-4.49h-4.49z"/>
  <path d="m229.07 462.66v-4.49h4.49v4.49h-4.49z"/>
  <path d="m267.24 496.34v4.49h4.5v-4.49h-4.5z"/>
  <path d="m267.24 462.66v-4.49h4.5v4.49h-4.5z"/>
  <path d="m229.07 420.01v4.49h4.49v-4.49h-4.49z"/>
  <path d="m229.07 386.33v-4.49h4.49v4.49h-4.49z"/>
  <path d="m267.24 420.01v4.49h4.5v-4.49h-4.5z"/>
  <path d="m267.24 386.33v-4.49h4.5v4.49h-4.5z"/>
  <path d="m-0.000013347 348.16l-1.96e-7 -4.49h4.4915v4.49h-4.4915z"/>
  <path d="m-0.000015015 309.99l-1.96e-7 -4.49h4.4915v4.49h-4.4915z"/>
  <path d="m38.178 343.67v4.49h4.491v-4.49h-4.491z"/>
  <path d="m38.178 309.99v-4.49h4.491v4.49h-4.491z"/>
  <path d="m-0.00001688 267.34l1.96e-7 4.49h4.4915v-4.49h-4.4915z"/>
  <path d="m-0.000018352 233.66l-1.96e-7 -4.49h4.4915v4.49h-4.4915z"/>
  <path d="m38.178 267.34v4.49h4.491v-4.49h-4.491z"/>
  <path d="m38.178 233.66v-4.49h4.491v4.49h-4.491z"/>
  <path d="m76.355 343.67v4.49h4.492v-4.49h-4.492z"/>
  <path d="m76.355 309.99v-4.49h4.492v4.49h-4.492z"/>
  <path d="m114.53 343.67v4.49h4.49v-4.49h-4.49z"/>
  <path d="m114.53 309.99v-4.49h4.49v4.49h-4.49z"/>
  <path d="m76.355 267.34v4.49h4.492v-4.49h-4.492z"/>
  <path d="m76.355 233.66v-4.49h4.492v4.49h-4.492z"/>
  <path d="m114.53 267.34v4.49h4.49v-4.49h-4.49z"/>
  <path d="m114.53 233.66v-4.49h4.49v4.49h-4.49z"/>
  <path d="m-0.00002002 195.49l-1.96e-7 -4.49h4.4915v4.49h-4.4915z"/>
  <path d="m-0.000021688 157.32l-1.97e-7 -4.48h4.4915v4.48h-4.4915z"/>
  <path d="m38.178 191v4.49h4.491v-4.49h-4.491z"/>
  <path d="m38.178 157.32v-4.48h4.491v4.48h-4.491z"/>
  <path d="m-0.000023553 114.67l1.96e-7 4.49h4.4915v-4.49h-4.4915z"/>
  <path d="m-0.000025025 80.99l-1.97e-7 -4.49h4.4915v4.49h-4.4915z"/>
  <path d="m38.178 114.67v4.49h4.491v-4.49h-4.491z"/>
  <path d="m38.178 80.99v-4.49h4.491v4.49h-4.491z"/>
  <path d="m76.355 191v4.49h4.492v-4.49h-4.492z"/>
  <path d="m76.355 157.32v-4.48h4.492v4.48h-4.492z"/>
  <path d="m114.53 191v4.49h4.49v-4.49h-4.49z"/>
  <path d="m114.53 157.32v-4.48h4.49v4.48h-4.49z"/>
  <path d="m76.355 114.67v4.49h4.492v-4.49h-4.492z"/>
  <path d="m76.355 80.99v-4.49h4.492v4.49h-4.492z"/>
  <path d="m114.53 114.67v4.49h4.49v-4.49h-4.49z"/>
  <path d="m114.53 80.99v-4.49h4.49v4.49h-4.49z"/>
  <path d="m152.71 348.16v-4.49h4.49v4.49h-4.49z"/>
  <path d="m152.71 309.99v-4.49h4.49v4.49h-4.49z"/>
  <path d="m190.89 343.67v4.49h4.49v-4.49h-4.49z"/>
  <path d="m190.89 309.99v-4.49h4.49v4.49h-4.49z"/>
  <path d="m152.71 267.34v4.49h4.49v-4.49h-4.49z"/>
  <path d="m152.71 233.66v-4.49h4.49v4.49h-4.49z"/>
  <path d="m190.89 267.34v4.49h4.49v-4.49h-4.49z"/>
  <path d="m190.89 233.66v-4.49h4.49v4.49h-4.49z"/>
  <path d="m229.07 343.67v4.49h4.49v-4.49h-4.49z"/>
  <path d="m229.07 309.99v-4.49h4.49v4.49h-4.49z"/>
  <path d="m267.24 343.67v4.49h4.5v-4.49h-4.5z"/>
  <path d="m267.24 309.99v-4.49h4.5v4.49h-4.5z"/>
  <path d="m229.07 267.34v4.49h4.49v-4.49h-4.49z"/>
  <path d="m229.07 233.66v-4.49h4.49v4.49h-4.49z"/>
  <path d="m267.24 267.34v4.49h4.5v-4.49h-4.5z"/>
  <path d="m267.24 233.66v-4.49h4.5v4.49h-4.5z"/>
  <path d="m152.71 195.49v-4.49h4.49v4.49h-4.49z"/>
  <path d="m152.71 157.32v-4.48h4.49v4.48h-4.49z"/>
  <path d="m190.89 191v4.49h4.49v-4.49h-4.49z"/>
  <path d="m190.89 157.32v-4.48h4.49v4.48h-4.49z"/>
  <path d="m152.71 114.67v4.49h4.49v-4.49h-4.49z"/>
  <path d="m152.71 80.99v-4.49h4.49v4.49h-4.49z"/>
  <path d="m190.89 114.67v4.49h4.49v-4.49h-4.49z"/>
  <path d="m190.89 80.99v-4.49h4.49v4.49h-4.49z"/>
  <path d="m229.07 191v4.49h4.49v-4.49h-4.49z"/>
  <path d="m229.07 157.32v-4.48h4.49v4.48h-4.49z"/>
  <path d="m267.24 191v4.49h4.5v-4.49h-4.5z"/>
  <path d="m267.24 157.32v-4.48h4.5v4.48h-4.5z"/>
  <path d="m229.07 114.67v4.49h4.49v-4.49h-4.49z"/>
  <path d="m229.07 80.99v-4.49h4.49v4.49h-4.49z"/>
  <path d="m267.24 114.67v4.49h4.5v-4.49h-4.5z"/>
  <path d="m267.24 80.99v-4.49h4.5v4.49h-4.5z"/>
  <path d="m305.42 649.01v4.49h4.49v-4.49h-4.49z"/>
  <path d="m305.42 610.84v4.49h4.49v-4.49h-4.49z"/>
  <path d="m343.6 653.5v-4.49h4.49v4.49h-4.49z"/>
  <path d="m343.6 610.84v4.49h4.49v-4.49h-4.49z"/>
  <path d="m305.42 577.16v-4.48h4.49v4.48h-4.49z"/>
  <path d="m305.42 534.51v4.49h4.49v-4.49h-4.49z"/>
  <path d="m343.6 577.16v-4.48h4.49v4.48h-4.49z"/>
  <path d="m343.6 534.51v4.49h4.49v-4.49h-4.49z"/>
  <path d="m381.78 653.5v-4.49h4.49v4.49h-4.49z"/>
  <path d="m381.78 610.84v4.49h4.49v-4.49h-4.49z"/>
  <path d="m419.96 653.5v-4.49h4.49v4.49h-4.49z"/>
  <path d="m419.96 610.84v4.49h4.49v-4.49h-4.49z"/>
  <path d="m381.78 577.16v-4.48h4.49v4.48h-4.49z"/>
  <path d="m381.78 534.51v4.49h4.49v-4.49h-4.49z"/>
  <path d="m419.96 577.16v-4.48h4.49v4.48h-4.49z"/>
  <path d="m419.96 534.51v4.49h4.49v-4.49h-4.49z"/>
  <path d="m305.42 496.34v4.49h4.49v-4.49h-4.49z"/>
  <path d="m305.42 458.17v4.49h4.49v-4.49h-4.49z"/>
  <path d="m343.6 500.83v-4.49h4.49v4.49h-4.49z"/>
  <path d="m343.6 458.17v4.49h4.49v-4.49h-4.49z"/>
  <path d="m305.42 424.5v-4.49h4.49v4.49h-4.49z"/>
  <path d="m305.42 381.84v4.49h4.49v-4.49h-4.49z"/>
  <path d="m343.6 424.5v-4.49h4.49v4.49h-4.49z"/>
  <path d="m343.6 381.84v4.49h4.49v-4.49h-4.49z"/>
  <path d="m381.78 500.83v-4.49h4.49v4.49h-4.49z"/>
  <path d="m381.78 458.17v4.49h4.49v-4.49h-4.49z"/>
  <path d="m419.96 500.83v-4.49h4.49v4.49h-4.49z"/>
  <path d="m419.96 458.17v4.49h4.49v-4.49h-4.49z"/>
  <path d="m381.78 424.5v-4.49h4.49v4.49h-4.49z"/>
  <path d="m381.78 381.84v4.49h4.49v-4.49h-4.49z"/>
  <path d="m419.96 424.5v-4.49h4.49v4.49h-4.49z"/>
  <path d="m419.96 381.84v4.49h4.49v-4.49h-4.49z"/>
  <path d="m458.13 649.01v4.49h4.49v-4.49h-4.49z"/>
  <path d="m458.13 610.84v4.49h4.49v-4.49h-4.49z"/>
  <path d="m496.31 653.5v-4.49h4.49v4.49h-4.49z"/>
  <path d="m496.31 610.84v4.49h4.49v-4.49h-4.49z"/>
  <path d="m458.13 577.16v-4.48h4.49v4.48h-4.49z"/>
  <path d="m458.13 534.51v4.49h4.49v-4.49h-4.49z"/>
  <path d="m496.31 577.16v-4.48h4.49v4.48h-4.49z"/>
  <path d="m496.31 534.51v4.49h4.49v-4.49h-4.49z"/>
  <path d="m534.49 653.5v-4.49h4.49v4.49h-4.49z"/>
  <path d="m534.49 610.84v4.49h4.49v-4.49h-4.49z"/>
  <path d="m572.66 653.5v-4.49h4.5v4.49h-4.5z"/>
  <path d="m572.66 610.84v4.49h4.5v-4.49h-4.5z"/>
  <path d="m534.49 577.16v-4.48h4.49v4.48h-4.49z"/>
  <path d="m534.49 534.51v4.49h4.49v-4.49h-4.49z"/>
  <path d="m572.66 577.16v-4.48h4.5v4.48h-4.5z"/>
  <path d="m572.66 534.51v4.49h4.5v-4.49h-4.5z"/>
  <path d="m458.13 496.34v4.49h4.49v-4.49h-4.49z"/>
  <path d="m458.13 458.17v4.49h4.49v-4.49h-4.49z"/>
  <path d="m496.31 500.83v-4.49h4.49v4.49h-4.49z"/>
  <path d="m496.31 458.17v4.49h4.49v-4.49h-4.49z"/>
  <path d="m458.13 424.5v-4.49h4.49v4.49h-4.49z"/>
  <path d="m458.13 381.84v4.49h4.49v-4.49h-4.49z"/>
  <path d="m496.31 424.5v-4.49h4.49v4.49h-4.49z"/>
  <path d="m496.31 381.84v4.49h4.49v-4.49h-4.49z"/>
  <path d="m534.49 500.83v-4.49h4.49v4.49h-4.49z"/>
  <path d="m534.49 458.17v4.49h4.49v-4.49h-4.49z"/>
  <path d="m572.66 500.83v-4.49h4.5v4.49h-4.5z"/>
  <path d="m572.66 458.17v4.49h4.5v-4.49h-4.5z"/>
  <path d="m534.49 424.5v-4.49h4.49v4.49h-4.49z"/>
  <path d="m534.49 381.84v4.49h4.49v-4.49h-4.49z"/>
  <path d="m572.66 424.5v-4.49h4.5v4.49h-4.5z"/>
  <path d="m572.66 381.84v4.49h4.5v-4.49h-4.5z"/>
  <path d="m305.42 348.16v-4.49h4.49v4.49h-4.49z"/>
  <path d="m305.42 309.99v-4.49h4.49v4.49h-4.49z"/>
  <path d="m343.6 343.67v4.49h4.49v-4.49h-4.49z"/>
  <path d="m343.6 309.99v-4.49h4.49v4.49h-4.49z"/>
  <path d="m305.42 267.34v4.49h4.49v-4.49h-4.49z"/>
  <path d="m305.42 233.66v-4.49h4.49v4.49h-4.49z"/>
  <path d="m343.6 267.34v4.49h4.49v-4.49h-4.49z"/>
  <path d="m343.6 233.66v-4.49h4.49v4.49h-4.49z"/>
  <path d="m381.78 343.67v4.49h4.49v-4.49h-4.49z"/>
  <path d="m381.78 309.99v-4.49h4.49v4.49h-4.49z"/>
  <path d="m419.96 343.67v4.49h4.49v-4.49h-4.49z"/>
  <path d="m419.96 309.99v-4.49h4.49v4.49h-4.49z"/>
  <path d="m381.78 267.34v4.49h4.49v-4.49h-4.49z"/>
  <path d="m381.78 233.66v-4.49h4.49v4.49h-4.49z"/>
  <path d="m419.96 267.34v4.49h4.49v-4.49h-4.49z"/>
  <path d="m419.96 233.66v-4.49h4.49v4.49h-4.49z"/>
  <path d="m305.42 195.49v-4.49h4.49v4.49h-4.49z"/>
  <path d="m305.42 157.32v-4.48h4.49v4.48h-4.49z"/>
  <path d="m343.6 191v4.49h4.49v-4.49h-4.49z"/>
  <path d="m343.6 157.32v-4.48h4.49v4.48h-4.49z"/>
  <path d="m305.42 114.67v4.49h4.49v-4.49h-4.49z"/>
  <path d="m305.42 80.99v-4.49h4.49v4.49h-4.49z"/>
  <path d="m343.6 114.67v4.49h4.49v-4.49h-4.49z"/>
  <path d="m343.6 80.99v-4.49h4.49v4.49h-4.49z"/>
  <path d="m381.78 191v4.49h4.49v-4.49h-4.49z"/>
  <path d="m381.78 157.32v-4.48h4.49v4.48h-4.49z"/>
  <path d="m419.96 191v4.49h4.49v-4.49h-4.49z"/>
  <path d="m419.96 157.32v-4.48h4.49v4.48h-4.49z"/>
  <path d="m381.78 114.67v4.49h4.49v-4.49h-4.49z"/>
  <path d="m381.78 80.99v-4.49h4.49v4.49h-4.49z"/>
  <path d="m419.96 114.67v4.49h4.49v-4.49h-4.49z"/>
  <path d="m419.96 80.99v-4.49h4.49v4.49h-4.49z"/>
  <path d="m458.13 348.16v-4.49h4.49v4.49h-4.49z"/>
  <path d="m458.13 309.99v-4.49h4.49v4.49h-4.49z"/>
  <path d="m496.31 343.67v4.49h4.49v-4.49h-4.49z"/>
  <path d="m496.31 309.99v-4.49h4.49v4.49h-4.49z"/>
  <path d="m458.13 267.34v4.49h4.49v-4.49h-4.49z"/>
  <path d="m458.13 233.66v-4.49h4.49v4.49h-4.49z"/>
  <path d="m496.31 267.34v4.49h4.49v-4.49h-4.49z"/>
  <path d="m496.31 233.66v-4.49h4.49v4.49h-4.49z"/>
  <path d="m534.49 343.67v4.49h4.49v-4.49h-4.49z"/>
  <path d="m534.49 309.99v-4.49h4.49v4.49h-4.49z"/>
  <path d="m572.66 343.67v4.49h4.5v-4.49h-4.5z"/>
  <path d="m572.66 309.99v-4.49h4.5v4.49h-4.5z"/>
  <path d="m534.49 267.34v4.49h4.49v-4.49h-4.49z"/>
  <path d="m534.49 233.66v-4.49h4.49v4.49h-4.49z"/>
  <path d="m572.66 267.34v4.49h4.5v-4.49h-4.5z"/>
  <path d="m572.66 233.66v-4.49h4.5v4.49h-4.5z"/>
  <path d="m458.13 195.49v-4.49h4.49v4.49h-4.49z"/>
  <path d="m458.13 157.32v-4.48h4.49v4.48h-4.49z"/>
  <path d="m496.31 191v4.49h4.49v-4.49h-4.49z"/>
  <path d="m496.31 157.32v-4.48h4.49v4.48h-4.49z"/>
  <path d="m458.13 114.67v4.49h4.49v-4.49h-4.49z"/>
  <path d="m458.13 80.99v-4.49h4.49v4.49h-4.49z"/>
  <path d="m496.31 114.67v4.49h4.49v-4.49h-4.49z"/>
  <path d="m496.31 80.99v-4.49h4.49v4.49h-4.49z"/>
  <path d="m534.49 191v4.49h4.49v-4.49h-4.49z"/>
  <path d="m534.49 157.32v-4.48h4.49v4.48h-4.49z"/>
  <path d="m572.66 191v4.49h4.5v-4.49h-4.5z"/>
  <path d="m572.66 157.32v-4.48h4.5v4.48h-4.5z"/>
  <path d="m534.49 114.67v4.49h4.49v-4.49h-4.49z"/>
  <path d="m534.49 80.99v-4.49h4.49v4.49h-4.49z"/>
  <path d="m572.66 114.67v4.49h4.5v-4.49h-4.5z"/>
  <path d="m572.66 80.99v-4.49h4.5v4.49h-4.5z"/>
  <path d="m610.84 653.5v-4.49h4.5v4.49h-4.5z"/>
  <path d="m610.84 615.33v-4.49h4.5v4.49h-4.5z"/>
  <path d="m649.02 649.01v4.49h4.49v-4.49h-4.49z"/>
  <path d="m649.02 615.33v-4.49h4.49v4.49h-4.49z"/>
  <path d="m610.84 572.68v4.48h4.5v-4.48h-4.5z"/>
  <path d="m610.84 539v-4.49h4.5v4.49h-4.5z"/>
  <path d="m649.02 572.68v4.48h4.49v-4.48h-4.49z"/>
  <path d="m649.02 539v-4.49h4.49v4.49h-4.49z"/>
  <path d="m687.2 649.01v4.49h4.49v-4.49h-4.49z"/>
  <path d="m687.2 615.33v-4.49h4.49v4.49h-4.49z"/>
  <path d="m725.38 649.01v4.49h4.49v-4.49h-4.49z"/>
  <path d="m725.38 615.33v-4.49h4.49v4.49h-4.49z"/>
  <path d="m687.2 572.68v4.48h4.49v-4.48h-4.49z"/>
  <path d="m687.2 539v-4.49h4.49v4.49h-4.49z"/>
  <path d="m725.38 572.68v4.48h4.49v-4.48h-4.49z"/>
  <path d="m725.38 539v-4.49h4.49v4.49h-4.49z"/>
  <path d="m610.84 500.83v-4.49h4.5v4.49h-4.5z"/>
  <path d="m610.84 462.66v-4.49h4.5v4.49h-4.5z"/>
  <path d="m649.02 496.34v4.49h4.49v-4.49h-4.49z"/>
  <path d="m649.02 462.66v-4.49h4.49v4.49h-4.49z"/>
  <path d="m610.84 420.01v4.49h4.5v-4.49h-4.5z"/>
  <path d="m610.84 386.33v-4.49h4.5v4.49h-4.5z"/>
  <path d="m649.02 420.01v4.49h4.49v-4.49h-4.49z"/>
  <path d="m649.02 386.33v-4.49h4.49v4.49h-4.49z"/>
  <path d="m687.2 496.34v4.49h4.49v-4.49h-4.49z"/>
  <path d="m687.2 462.66v-4.49h4.49v4.49h-4.49z"/>
  <path d="m725.38 496.34v4.49h4.49v-4.49h-4.49z"/>
  <path d="m725.38 462.66v-4.49h4.49v4.49h-4.49z"/>
  <path d="m687.2 420.01v4.49h4.49v-4.49h-4.49z"/>
  <path d="m687.2 386.33v-4.49h4.49v4.49h-4.49z"/>
  <path d="m725.38 420.01v4.49h4.49v-4.49h-4.49z"/>
  <path d="m725.38 386.33v-4.49h4.49v4.49h-4.49z"/>
  <path d="m763.55 653.5v-4.49h4.49v4.49h-4.49z"/>
  <path d="m763.55 615.33v-4.49h4.49v4.49h-4.49z"/>
  <path d="m801.73 649.01v4.49h4.49v-4.49h-4.49z"/>
  <path d="m801.73 615.33v-4.49h4.49v4.49h-4.49z"/>
  <path d="m763.55 572.68v4.48h4.49v-4.48h-4.49z"/>
  <path d="m763.55 539v-4.49h4.49v4.49h-4.49z"/>
  <path d="m801.73 572.68v4.48h4.49v-4.48h-4.49z"/>
  <path d="m801.73 539v-4.49h4.49v4.49h-4.49z"/>
  <path d="m839.91 649.01v4.49h4.49v-4.49h-4.49z"/>
  <path d="m839.91 615.33v-4.49h4.49v4.49h-4.49z"/>
  <path d="m878.09 649.01v4.49h4.49v-4.49h-4.49z"/>
  <path d="m878.09 615.33v-4.49h4.49v4.49h-4.49z"/>
  <path d="m839.91 572.68v4.48h4.49v-4.48h-4.49z"/>
  <path d="m839.91 539v-4.49h4.49v4.49h-4.49z"/>
  <path d="m878.09 572.68v4.48h4.49v-4.48h-4.49z"/>
  <path d="m878.09 539v-4.49h4.49v4.49h-4.49z"/>
  <path d="m763.55 500.83v-4.49h4.49v4.49h-4.49z"/>
  <path d="m763.55 462.66v-4.49h4.49v4.49h-4.49z"/>
  <path d="m801.73 496.34v4.49h4.49v-4.49h-4.49z"/>
  <path d="m801.73 462.66v-4.49h4.49v4.49h-4.49z"/>
  <path d="m763.55 420.01v4.49h4.49v-4.49h-4.49z"/>
  <path d="m763.55 386.33v-4.49h4.49v4.49h-4.49z"/>
  <path d="m801.73 420.01v4.49h4.49v-4.49h-4.49z"/>
  <path d="m801.73 386.33v-4.49h4.49v4.49h-4.49z"/>
  <path d="m839.91 496.34v4.49h4.49v-4.49h-4.49z"/>
  <path d="m839.91 462.66v-4.49h4.49v4.49h-4.49z"/>
  <path d="m878.09 496.34v4.49h4.49v-4.49h-4.49z"/>
  <path d="m878.09 462.66v-4.49h4.49v4.49h-4.49z"/>
  <path d="m839.91 420.01v4.49h4.49v-4.49h-4.49z"/>
  <path d="m839.91 386.33v-4.49h4.49v4.49h-4.49z"/>
  <path d="m878.09 420.01v4.49h4.49v-4.49h-4.49z"/>
  <path d="m878.09 386.33v-4.49h4.49v4.49h-4.49z"/>
  <path d="m610.84 348.16v-4.49h4.5v4.49h-4.5z"/>
  <path d="m610.84 309.99v-4.49h4.5v4.49h-4.5z"/>
  <path d="m649.02 343.67v4.49h4.49v-4.49h-4.49z"/>
  <path d="m649.02 309.99v-4.49h4.49v4.49h-4.49z"/>
  <path d="m610.84 267.34v4.49h4.5v-4.49h-4.5z"/>
  <path d="m610.84 233.66v-4.49h4.5v4.49h-4.5z"/>
  <path d="m649.02 267.34v4.49h4.49v-4.49h-4.49z"/>
  <path d="m649.02 233.66v-4.49h4.49v4.49h-4.49z"/>
  <path d="m687.2 343.67v4.49h4.49v-4.49h-4.49z"/>
  <path d="m687.2 309.99v-4.49h4.49v4.49h-4.49z"/>
  <path d="m725.38 343.67v4.49h4.49v-4.49h-4.49z"/>
  <path d="m725.38 309.99v-4.49h4.49v4.49h-4.49z"/>
  <path d="m687.2 267.34v4.49h4.49v-4.49h-4.49z"/>
  <path d="m687.2 233.66v-4.49h4.49v4.49h-4.49z"/>
  <path d="m725.38 267.34v4.49h4.49v-4.49h-4.49z"/>
  <path d="m725.38 233.66v-4.49h4.49v4.49h-4.49z"/>
  <path d="m610.84 195.49v-4.49h4.5v4.49h-4.5z"/>
  <path d="m610.84 157.32v-4.48h4.5v4.48h-4.5z"/>
  <path d="m649.02 191v4.49h4.49v-4.49h-4.49z"/>
  <path d="m649.02 157.32v-4.48h4.49v4.48h-4.49z"/>
  <path d="m610.84 114.67v4.49h4.5v-4.49h-4.5z"/>
  <path d="m610.84 80.99v-4.49h4.5v4.49h-4.5z"/>
  <path d="m649.02 114.67v4.49h4.49v-4.49h-4.49z"/>
  <path d="m649.02 80.99v-4.49h4.49v4.49h-4.49z"/>
  <path d="m687.2 191v4.49h4.49v-4.49h-4.49z"/>
  <path d="m687.2 157.32v-4.48h4.49v4.48h-4.49z"/>
  <path d="m725.38 191v4.49h4.49v-4.49h-4.49z"/>
  <path d="m725.38 157.32v-4.48h4.49v4.48h-4.49z"/>
  <path d="m687.2 114.67v4.49h4.49v-4.49h-4.49z"/>
  <path d="m687.2 80.99v-4.49h4.49v4.49h-4.49z"/>
  <path d="m725.38 114.67v4.49h4.49v-4.49h-4.49z"/>
  <path d="m725.38 80.99v-4.49h4.49v4.49h-4.49z"/>
  <path d="m763.55 348.16v-4.49h4.49v4.49h-4.49z"/>
  <path d="m763.55 309.99v-4.49h4.49v4.49h-4.49z"/>
  <path d="m801.73 343.67v4.49h4.49v-4.49h-4.49z"/>
  <path d="m801.73 309.99v-4.49h4.49v4.49h-4.49z"/>
  <path d="m763.55 267.34v4.49h4.49v-4.49h-4.49z"/>
  <path d="m763.55 233.66v-4.49h4.49v4.49h-4.49z"/>
  <path d="m801.73 267.34v4.49h4.49v-4.49h-4.49z"/>
  <path d="m801.73 233.66v-4.49h4.49v4.49h-4.49z"/>
  <path d="m839.91 343.67v4.49h4.49v-4.49h-4.49z"/>
  <path d="m839.91 309.99v-4.49h4.49v4.49h-4.49z"/>
  <path d="m878.09 343.67v4.49h4.49v-4.49h-4.49z"/>
  <path d="m878.09 309.99v-4.49h4.49v4.49h-4.49z"/>
  <path d="m839.91 267.34v4.49h4.49v-4.49h-4.49z"/>
  <path d="m839.91 233.66v-4.49h4.49v4.49h-4.49z"/>
  <path d="m878.09 267.34v4.49h4.49v-4.49h-4.49z"/>
  <path d="m878.09 233.66v-4.49h4.49v4.49h-4.49z"/>
  <path d="m763.55 195.49v-4.49h4.49v4.49h-4.49z"/>
  <path d="m763.55 157.32v-4.48h4.49v4.48h-4.49z"/>
  <path d="m801.73 191v4.49h4.49v-4.49h-4.49z"/>
  <path d="m801.73 157.32v-4.48h4.49v4.48h-4.49z"/>
  <path d="m763.55 114.67v4.49h4.49v-4.49h-4.49z"/>
  <path d="m763.55 80.99v-4.49h4.49v4.49h-4.49z"/>
  <path d="m801.73 114.67v4.49h4.49v-4.49h-4.49z"/>
  <path d="m801.73 80.99v-4.49h4.49v4.49h-4.49z"/>
  <path d="m839.91 191v4.49h4.49v-4.49h-4.49z"/>
  <path d="m839.91 157.32v-4.48h4.49v4.48h-4.49z"/>
  <path d="m878.09 191v4.49h4.49v-4.49h-4.49z"/>
  <path d="m878.09 157.32v-4.48h4.49v4.48h-4.49z"/>
  <path d="m839.91 114.67v4.49h4.49v-4.49h-4.49z"/>
  <path d="m839.91 80.99v-4.49h4.49v4.49h-4.49z"/>
  <path d="m878.09 114.67v4.49h4.49v-4.49h-4.49z"/>
  <path d="m878.09 80.99v-4.49h4.49v4.49h-4.49z"/>
  <path d="m916.26 649.01v4.49h4.5v-4.49h-4.5z"/>
  <path d="m916.26 610.84v4.49h4.5v-4.49h-4.5z"/>
  <path d="m954.44 653.5v-4.49h4.49v4.49h-4.49z"/>
  <path d="m954.44 610.84v4.49h4.49v-4.49h-4.49z"/>
  <path d="m916.26 577.16v-4.48h4.5v4.48h-4.5z"/>
  <path d="m916.26 534.51v4.49h4.5v-4.49h-4.5z"/>
  <path d="m954.44 577.16v-4.48h4.49v4.48h-4.49z"/>
  <path d="m954.44 534.51v4.49h4.49v-4.49h-4.49z"/>
  <path d="m992.62 653.5v-4.49h4.49v4.49h-4.49z"/>
  <path d="m992.62 610.84v4.49h4.49v-4.49h-4.49z"/>
  <path d="m1030.8 653.5v-4.49h4.5v4.49h-4.5z"/>
  <path d="m1030.8 610.84v4.49h4.5v-4.49h-4.5z"/>
  <path d="m992.62 577.16v-4.48h4.49v4.48h-4.49z"/>
  <path d="m992.62 534.51v4.49h4.49v-4.49h-4.49z"/>
  <path d="m1030.8 577.16v-4.48h4.5v4.48h-4.5z"/>
  <path d="m1030.8 534.51v4.49h4.5v-4.49h-4.5z"/>
  <path d="m916.26 496.34v4.49h4.5v-4.49h-4.5z"/>
  <path d="m916.26 458.17v4.49h4.5v-4.49h-4.5z"/>
  <path d="m954.44 500.83v-4.49h4.49v4.49h-4.49z"/>
  <path d="m954.44 458.17v4.49h4.49v-4.49h-4.49z"/>
  <path d="m916.26 424.5v-4.49h4.5v4.49h-4.5z"/>
  <path d="m916.26 381.84v4.49h4.5v-4.49h-4.5z"/>
  <path d="m954.44 424.5v-4.49h4.49v4.49h-4.49z"/>
  <path d="m954.44 381.84v4.49h4.49v-4.49h-4.49z"/>
  <path d="m992.62 500.83v-4.49h4.49v4.49h-4.49z"/>
  <path d="m992.62 458.17v4.49h4.49v-4.49h-4.49z"/>
  <path d="m1030.8 500.83v-4.49h4.5v4.49h-4.5z"/>
  <path d="m1030.8 458.17v4.49h4.5v-4.49h-4.5z"/>
  <path d="m992.62 424.5v-4.49h4.49v4.49h-4.49z"/>
  <path d="m992.62 381.84v4.49h4.49v-4.49h-4.49z"/>
  <path d="m1030.8 424.5v-4.49h4.5v4.49h-4.5z"/>
  <path d="m1030.8 381.84v4.49h4.5v-4.49h-4.5z"/>
  <path d="m1069 649.01v4.49h4.5v-4.49h-4.5z"/>
  <path d="m1069 610.84v4.49h4.5v-4.49h-4.5z"/>
  <path d="m1107.2 653.5v-4.49h4.4v4.49h-4.4z"/>
  <path d="m1107.2 610.84v4.49h4.4v-4.49h-4.4z"/>
  <path d="m1069 577.16v-4.48h4.5v4.48h-4.5z"/>
  <path d="m1069 534.51v4.49h4.5v-4.49h-4.5z"/>
  <path d="m1107.2 577.16v-4.48h4.4v4.48h-4.4z"/>
  <path d="m1107.2 534.51v4.49h4.4v-4.49h-4.4z"/>
  <path d="m1145.3 653.5v-4.49h4.5v4.49h-4.5z"/>
  <path d="m1145.3 610.84v4.49h4.5v-4.49h-4.5z"/>
  <path d="m1183.5 653.5v-4.49h4.5v4.49h-4.5z"/>
  <path d="m1183.5 610.84v4.49h4.5v-4.49h-4.5z"/>
  <path d="m1145.3 577.16v-4.48h4.5v4.48h-4.5z"/>
  <path d="m1145.3 534.51v4.49h4.5v-4.49h-4.5z"/>
  <path d="m1183.5 577.16v-4.48h4.5v4.48h-4.5z"/>
  <path d="m1183.5 534.51v4.49h4.5v-4.49h-4.5z"/>
  <path d="m1069 496.34v4.49h4.5v-4.49h-4.5z"/>
  <path d="m1069 458.17v4.49h4.5v-4.49h-4.5z"/>
  <path d="m1107.2 500.83v-4.49h4.4v4.49h-4.4z"/>
  <path d="m1107.2 458.17v4.49h4.4v-4.49h-4.4z"/>
  <path d="m1069 424.5v-4.49h4.5v4.49h-4.5z"/>
  <path d="m1069 381.84v4.49h4.5v-4.49h-4.5z"/>
  <path d="m1107.2 424.5v-4.49h4.4v4.49h-4.4z"/>
  <path d="m1107.2 381.84v4.49h4.4v-4.49h-4.4z"/>
  <path d="m1145.3 500.83v-4.49h4.5v4.49h-4.5z"/>
  <path d="m1145.3 458.17v4.49h4.5v-4.49h-4.5z"/>
  <path d="m1183.5 500.83v-4.49h4.5v4.49h-4.5z"/>
  <path d="m1183.5 458.17v4.49h4.5v-4.49h-4.5z"/>
  <path d="m1145.3 424.5v-4.49h4.5v4.49h-4.5z"/>
  <path d="m1145.3 381.84v4.49h4.5v-4.49h-4.5z"/>
  <path d="m1183.5 424.5v-4.49h4.5v4.49h-4.5z"/>
  <path d="m1183.5 381.84v4.49h4.5v-4.49h-4.5z"/>
  <path d="m916.26 348.16v-4.49h4.5v4.49h-4.5z"/>
  <path d="m916.26 309.99v-4.49h4.5v4.49h-4.5z"/>
  <path d="m954.44 343.67v4.49h4.49v-4.49h-4.49z"/>
  <path d="m954.44 309.99v-4.49h4.49v4.49h-4.49z"/>
  <path d="m916.26 267.34v4.49h4.5v-4.49h-4.5z"/>
  <path d="m916.26 233.66v-4.49h4.5v4.49h-4.5z"/>
  <path d="m954.44 267.34v4.49h4.49v-4.49h-4.49z"/>
  <path d="m954.44 233.66v-4.49h4.49v4.49h-4.49z"/>
  <path d="m992.62 343.67v4.49h4.49v-4.49h-4.49z"/>
  <path d="m992.62 309.99v-4.49h4.49v4.49h-4.49z"/>
  <path d="m1030.8 343.67v4.49h4.5v-4.49h-4.5z"/>
  <path d="m1030.8 309.99v-4.49h4.5v4.49h-4.5z"/>
  <path d="m992.62 267.34v4.49h4.49v-4.49h-4.49z"/>
  <path d="m992.62 233.66v-4.49h4.49v4.49h-4.49z"/>
  <path d="m1030.8 267.34v4.49h4.5v-4.49h-4.5z"/>
  <path d="m1030.8 233.66v-4.49h4.5v4.49h-4.5z"/>
  <path d="m916.26 195.49v-4.49h4.5v4.49h-4.5z"/>
  <path d="m916.26 157.32v-4.48h4.5v4.48h-4.5z"/>
  <path d="m954.44 191v4.49h4.49v-4.49h-4.49z"/>
  <path d="m954.44 157.32v-4.48h4.49v4.48h-4.49z"/>
  <path d="m916.26 114.67v4.49h4.5v-4.49h-4.5z"/>
  <path d="m916.26 80.99v-4.49h4.5v4.49h-4.5z"/>
  <path d="m954.44 114.67v4.49h4.49v-4.49h-4.49z"/>
  <path d="m954.44 80.99v-4.49h4.49v4.49h-4.49z"/>
  <path d="m992.62 191v4.49h4.49v-4.49h-4.49z"/>
  <path d="m992.62 157.32v-4.48h4.49v4.48h-4.49z"/>
  <path d="m1030.8 191v4.49h4.5v-4.49h-4.5z"/>
  <path d="m1030.8 157.32v-4.48h4.5v4.48h-4.5z"/>
  <path d="m992.62 114.67v4.49h4.49v-4.49h-4.49z"/>
  <path d="m992.62 80.99v-4.49h4.49v4.49h-4.49z"/>
  <path d="m1030.8 114.67v4.49h4.5v-4.49h-4.5z"/>
  <path d="m1030.8 80.99v-4.49h4.5v4.49h-4.5z"/>
  <path d="m1069 348.16v-4.49h4.5v4.49h-4.5z"/>
  <path d="m1069 309.99v-4.49h4.5v4.49h-4.5z"/>
  <path d="m1107.2 343.67v4.49h4.4v-4.49h-4.4z"/>
  <path d="m1107.2 309.99v-4.49h4.4v4.49h-4.4z"/>
  <path d="m1069 267.34v4.49h4.5v-4.49h-4.5z"/>
  <path d="m1069 233.66v-4.49h4.5v4.49h-4.5z"/>
  <path d="m1107.2 267.34v4.49h4.4v-4.49h-4.4z"/>
  <path d="m1107.2 233.66v-4.49h4.4v4.49h-4.4z"/>
  <path d="m1145.3 343.67v4.49h4.5v-4.49h-4.5z"/>
  <path d="m1145.3 309.99v-4.49h4.5v4.49h-4.5z"/>
  <path d="m1183.5 343.67v4.49h4.5v-4.49h-4.5z"/>
  <path d="m1183.5 309.99v-4.49h4.5v4.49h-4.5z"/>
  <path d="m1145.3 267.34v4.49h4.5v-4.49h-4.5z"/>
  <path d="m1145.3 233.66v-4.49h4.5v4.49h-4.5z"/>
  <path d="m1183.5 267.34v4.49h4.5v-4.49h-4.5z"/>
  <path d="m1183.5 233.66v-4.49h4.5v4.49h-4.5z"/>
  <path d="m1069 195.49v-4.49h4.5v4.49h-4.5z"/>
  <path d="m1069 157.32v-4.48h4.5v4.48h-4.5z"/>
  <path d="m1107.2 191v4.49h4.4v-4.49h-4.4z"/>
  <path d="m1107.2 157.32v-4.48h4.4v4.48h-4.4z"/>
  <path d="m1069 114.67v4.49h4.5v-4.49h-4.5z"/>
  <path d="m1069 80.99v-4.49h4.5v4.49h-4.5z"/>
  <path d="m1107.2 114.67v4.49h4.4v-4.49h-4.4z"/>
  <path d="m1107.2 80.99v-4.49h4.4v4.49h-4.4z"/>
  <path d="m1145.3 191v4.49h4.5v-4.49h-4.5z"/>
  <path d="m1145.3 157.32v-4.48h4.5v4.48h-4.5z"/>
  <path d="m1183.5 191v4.49h4.5v-4.49h-4.5z"/>
  <path d="m1183.5 157.32v-4.48h4.5v4.48h-4.5z"/>
  <path d="m1145.3 114.67v4.49h4.5v-4.49h-4.5z"/>
  <path d="m1145.3 80.99v-4.49h4.5v4.49h-4.5z"/>
  <path d="m1183.5 114.67v4.49h4.5v-4.49h-4.5z"/>
  <path d="m1183.5 80.99v-4.49h4.5v4.49h-4.5z"/>
  <path d="m-0.000025222 76.5l1.97e-7 4.49h4.4915v-4.49h-4.4915z"/>
  <path d="m38.178 76.5v4.49h4.491v-4.49h-4.491z"/>
  <path d="m76.355 76.5v4.49h4.492v-4.49h-4.492z"/>
  <path d="m114.53 76.5v4.49h4.49v-4.49h-4.49z"/>
  <path d="m152.71 76.5v4.49h4.49v-4.49h-4.49z"/>
  <path d="m190.89 76.5v4.49h4.49v-4.49h-4.49z"/>
  <path d="m229.07 76.5v4.49h4.49v-4.49h-4.49z"/>
  <path d="m267.24 76.5v4.49h4.5v-4.49h-4.5z"/>
  <path d="m305.42 76.5v4.49h4.49v-4.49h-4.49z"/>
  <path d="m343.6 76.5v4.49h4.49v-4.49h-4.49z"/>
  <path d="m381.78 76.5v4.49h4.49v-4.49h-4.49z"/>
  <path d="m419.96 76.5v4.49h4.49v-4.49h-4.49z"/>
  <path d="m458.13 76.5v4.49h4.49v-4.49h-4.49z"/>
  <path d="m496.31 76.5v4.49h4.49v-4.49h-4.49z"/>
  <path d="m534.49 76.5v4.49h4.49v-4.49h-4.49z"/>
  <path d="m572.66 76.5v4.49h4.5v-4.49h-4.5z"/>
  <path d="m610.84 76.5v4.49h4.5v-4.49h-4.5z"/>
  <path d="m649.02 76.5v4.49h4.49v-4.49h-4.49z"/>
  <path d="m687.2 76.5v4.49h4.49v-4.49h-4.49z"/>
  <path d="m725.38 76.5v4.49h4.49v-4.49h-4.49z"/>
  <path d="m763.55 76.5v4.49h4.49v-4.49h-4.49z"/>
  <path d="m801.73 76.5v4.49h4.49v-4.49h-4.49z"/>
  <path d="m839.91 76.5v4.49h4.49v-4.49h-4.49z"/>
  <path d="m878.09 76.5v4.49h4.49v-4.49h-4.49z"/>
  <path d="m916.26 76.5v4.49h4.5v-4.49h-4.5z"/>
  <path d="m954.44 76.5v4.49h4.49v-4.49h-4.49z"/>
  <path d="m992.62 76.5v4.49h4.49v-4.49h-4.49z"/>
  <path d="m1030.8 76.5v4.49h4.5v-4.49h-4.5z"/>
  <path d="m1069 76.5v4.49h4.5v-4.49h-4.5z"/>
  <path d="m1107.2 76.5v4.49h4.4v-4.49h-4.4z"/>
  <path d="m1145.3 76.5v4.49h4.5v-4.49h-4.5z"/>
  <path d="m1183.5 76.5v4.49h4.5v-4.49h-4.5z"/>
  <path d="m-0.000021688 80.825l-1.97e-7 -4.49h4.4915v4.49h-4.4915z"/>
  <path d="m38.178 80.825v-4.49h4.491v4.49h-4.491z"/>
  <path d="m-0.000023553 38.167l1.96e-7 4.491h4.4915v-4.491h-4.4915z"/>
  <path d="m-0.000025025 4.4903l-1.97e-7 -4.4902 4.4915-0.000039161v4.4902h-4.4915z"/>
  <path d="m38.178 38.167v4.491h4.491v-4.491h-4.491z"/>
  <path d="m38.178 4.4903v-4.4902l4.491-0.00004083v4.4902h-4.491z"/>
  <path d="m76.355 80.825v-4.49h4.492v4.49h-4.492z"/>
  <path d="m114.53 80.825v-4.49h4.49v4.49h-4.49z"/>
  <path d="m76.355 38.167v4.491h4.492v-4.491h-4.492z"/>
  <path d="m76.355 4.4903v-4.4902l4.492-0.000042499v4.4902h-4.492z"/>
  <path d="m114.53 38.167v4.491h4.49v-4.491h-4.49z"/>
  <path d="m114.53 4.4903v-4.4902l4.49-0.000044168v4.4902h-4.49z"/>
  <path d="m152.71 80.825v-4.49h4.49v4.49h-4.49z"/>
  <path d="m190.89 80.825v-4.49h4.49v4.49h-4.49z"/>
  <path d="m152.71 38.167v4.491h4.49v-4.491h-4.49z"/>
  <path d="m152.71 4.4903v-4.4902l4.49-0.000045836v4.4902h-4.49z"/>
  <path d="m190.89 38.167v4.491h4.49v-4.491h-4.49z"/>
  <path d="m190.89 4.4903v-4.4902l4.49-0.000047505v4.4902h-4.49z"/>
  <path d="m229.07 80.825v-4.49h4.49v4.49h-4.49z"/>
  <path d="m267.24 80.825v-4.49h4.5v4.49h-4.5z"/>
  <path d="m229.07 38.167v4.491h4.49v-4.491h-4.49z"/>
  <path d="m229.07 4.4903v-4.4902l4.49-0.000049174v4.4902h-4.49z"/>
  <path d="m267.24 38.167v4.491h4.5v-4.491h-4.5z"/>
  <path d="m267.24 4.4903v-4.4903l4.5 0.000049157v4.4903h-4.5z"/>
  <path d="m305.42 80.825v-4.49h4.49v4.49h-4.49z"/>
  <path d="m343.6 80.825v-4.49h4.49v4.49h-4.49z"/>
  <path d="m305.42 38.167v4.491h4.49v-4.491h-4.49z"/>
  <path d="m305.42 4.4903v-4.4903l4.49 0.000047488v4.4903h-4.49z"/>
  <path d="m343.6 38.167v4.491h4.49v-4.491h-4.49z"/>
  <path d="m343.6 4.4903v-4.4903l4.49 0.00004582v4.4903h-4.49z"/>
  <path d="m381.78 80.825v-4.49h4.49v4.49h-4.49z"/>
  <path d="m419.96 80.825v-4.49h4.49v4.49h-4.49z"/>
  <path d="m381.78 38.167v4.491h4.49v-4.491h-4.49z"/>
  <path d="m381.78 4.4903v-4.4903l4.49 0.000044151v4.4903h-4.49z"/>
  <path d="m419.96 38.167v4.491h4.49v-4.491h-4.49z"/>
  <path d="m419.96 4.4903v-4.4903l4.49 0.000042482v4.4903h-4.49z"/>
  <path d="m458.13 80.825v-4.49h4.49v4.49h-4.49z"/>
  <path d="m496.31 80.825v-4.49h4.49v4.49h-4.49z"/>
  <path d="m458.13 38.167v4.491h4.49v-4.491h-4.49z"/>
  <path d="m458.13 4.4903v-4.4903l4.49 0.000040813v4.4903h-4.49z"/>
  <path d="m496.31 38.167v4.491h4.49v-4.491h-4.49z"/>
  <path d="m496.31 4.4903v-4.4903l4.49 0.000039144v4.4903h-4.49z"/>
  <path d="m534.49 80.825v-4.49h4.49v4.49h-4.49z"/>
  <path d="m572.66 80.825v-4.49h4.5v4.49h-4.5z"/>
  <path d="m534.49 38.167v4.491h4.49v-4.491h-4.49z"/>
  <path d="m534.49 4.4903v-4.4903l4.49 0.000037476v4.4903h-4.49z"/>
  <path d="m572.66 38.167v4.491h4.5v-4.491h-4.5z"/>
  <path d="m572.66 4.4903v-4.4903l4.5 0.000035807v4.4903h-4.5z"/>
  <path d="m610.84 80.825v-4.49h4.5v4.49h-4.5z"/>
  <path d="m649.02 80.825v-4.49h4.49v4.49h-4.49z"/>
  <path d="m610.84 38.167v4.491h4.5v-4.491h-4.5z"/>
  <path d="m610.84 4.4903v-4.4903l4.5 0.000034138v4.4903h-4.5z"/>
  <path d="m649.02 38.167v4.491h4.49v-4.491h-4.49z"/>
  <path d="m649.02 4.4903v-4.4903l4.49 0.000032469v4.4903h-4.49z"/>
  <path d="m687.2 80.825v-4.49h4.49v4.49h-4.49z"/>
  <path d="m725.38 80.825v-4.49h4.49v4.49h-4.49z"/>
  <path d="m687.2 38.167v4.491h4.49v-4.491h-4.49z"/>
  <path d="m687.2 4.4903v-4.4903l4.49 0.0000308v4.4903h-4.49z"/>
  <path d="m725.38 38.167v4.491h4.49v-4.491h-4.49z"/>
  <path d="m725.38 4.4903v-4.4903l4.49 0.000029132v4.4903h-4.49z"/>
  <path d="m763.55 80.825v-4.49h4.49v4.49h-4.49z"/>
  <path d="m801.73 80.825v-4.49h4.49v4.49h-4.49z"/>
  <path d="m763.55 38.167v4.491h4.49v-4.491h-4.49z"/>
  <path d="m763.55 4.4903v-4.4903l4.49 0.000027463v4.4903h-4.49z"/>
  <path d="m801.73 38.167v4.491h4.49v-4.491h-4.49z"/>
  <path d="m801.73 4.4903v-4.4903l4.49 0.000025794v4.4903h-4.49z"/>
  <path d="m839.91 80.825v-4.49h4.49v4.49h-4.49z"/>
  <path d="m878.09 80.825v-4.49h4.49v4.49h-4.49z"/>
  <path d="m839.91 38.167v4.491h4.49v-4.491h-4.49z"/>
  <path d="m839.91 4.4903v-4.4903l4.49 0.000024125v4.4903h-4.49z"/>
  <path d="m878.09 38.167v4.491h4.49v-4.491h-4.49z"/>
  <path d="m878.09 4.4903v-4.4903l4.49 0.000022456v4.4903h-4.49z"/>
  <path d="m916.26 80.825v-4.49h4.5v4.49h-4.5z"/>
  <path d="m954.44 80.825v-4.49h4.49v4.49h-4.49z"/>
  <path d="m916.26 38.167v4.491h4.5v-4.491h-4.5z"/>
  <path d="m916.26 4.4903v-4.4903l4.5 0.000020788v4.4903h-4.5z"/>
  <path d="m954.44 38.167v4.491h4.49v-4.491h-4.49z"/>
  <path d="m954.44 4.4902v-4.4902l4.49 0.000019119v4.4902h-4.49z"/>
  <path d="m992.62 80.825v-4.49h4.49v4.49h-4.49z"/>
  <path d="m1030.8 80.825v-4.49h4.5v4.49h-4.5z"/>
  <path d="m992.62 38.167v4.491h4.49v-4.491h-4.49z"/>
  <path d="m992.62 4.4902v-4.4902l4.49 0.00001745v4.4902h-4.49z"/>
  <path d="m1030.8 38.167v4.491h4.5v-4.491h-4.5z"/>
  <path d="m1030.8 4.4902v-4.4902l4.5 0.000015781v4.4902h-4.5z"/>
  <path d="m1069 80.825v-4.49h4.5v4.49h-4.5z"/>
  <path d="m1107.2 80.825v-4.49h4.4v4.49h-4.4z"/>
  <path d="m1069 38.167v4.491h4.5v-4.491h-4.5z"/>
  <path d="m1069 4.4902v-4.4902l4.5 0.000014112v4.4902h-4.5z"/>
  <path d="m1107.2 38.167v4.491h4.4v-4.491h-4.4z"/>
  <path d="m1107.2 4.4902v-4.4902l4.4 0.000012444v4.4902h-4.4z"/>
  <path d="m1145.3 80.825v-4.49h4.5v4.49h-4.5z"/>
  <path d="m1183.5 80.825v-4.49h4.5v4.49h-4.5z"/>
  <path d="m1145.3 38.167v4.491h4.5v-4.491h-4.5z"/>
  <path d="m1145.3 4.4902v-4.4902l4.5 0.000010775v4.4902h-4.5z"/>
  <path d="m1183.5 38.167v4.491h4.5v-4.491h-4.5z"/>
  <path d="m1183.5 4.4902v-4.4902l4.5 0.000009106v4.4902h-4.5z"/>
  <path d="m-0.000025222 0.000061035l1.97e-7 4.4902h4.4915v-4.4902l-4.4915-0.000038965z"/>
  <path d="m38.178 0.000059366v4.4902h4.491v-4.4902l-4.491-0.000040634z"/>
  <path d="m76.355 0.000057698v4.4902h4.492v-4.4902l-4.492-0.000042302z"/>
  <path d="m114.53 0.000056029v4.4902h4.49v-4.4902l-4.49-0.000043971z"/>
  <path d="m152.71 0.00005436v4.4902h4.49v-4.4902l-4.49-0.00004564z"/>
  <path d="m190.89 0.000052691v4.4902h4.49v-4.4902l-4.49-0.000047309z"/>
  <path d="m229.07 0.000051022v4.4902h4.49v-4.4902l-4.49-0.000048978z"/>
  <path d="m267.24 0.000049354v4.4903h4.5v-4.4903l-4.5 0.000049354z"/>
  <path d="m305.42 0.000047685v4.4903h4.49v-4.4903l-4.49 0.000047685z"/>
  <path d="m343.6 0.000046016v4.4903h4.49v-4.4903l-4.49 0.000046016z"/>
  <path d="m381.78 0.000044347v4.4903h4.49v-4.4903l-4.49 0.000044347z"/>
  <path d="m419.96 0.000042678v4.4903h4.49v-4.4903l-4.49 0.000042678z"/>
  <path d="m458.13 0.00004101v4.4903h4.49v-4.4903l-4.49 0.00004101z"/>
  <path d="m496.31 0.000039341v4.4903h4.49v-4.4903l-4.49 0.000039341z"/>
  <path d="m534.49 0.000037672v4.4903h4.49v-4.4903l-4.49 0.000037672z"/>
  <path d="m572.66 0.000036003v4.4903h4.5v-4.4903l-4.5 0.000036003z"/>
  <path d="m610.84 0.000034334v4.4903h4.5v-4.4903l-4.5 0.000034334z"/>
  <path d="m649.02 0.000032666v4.4903h4.49v-4.4903l-4.49 0.000032666z"/>
  <path d="m687.2 0.000030997v4.4903h4.49v-4.4903l-4.49 0.000030997z"/>
  <path d="m725.38 0.000029328v4.4903h4.49v-4.4903l-4.49 0.000029328z"/>
  <path d="m763.55 0.000027659v4.4903h4.49v-4.4903l-4.49 0.000027659z"/>
  <path d="m801.73 0.00002599v4.4903h4.49v-4.4903l-4.49 0.00002599z"/>
  <path d="m839.91 0.000024322v4.4903h4.49v-4.4903l-4.49 0.000024322z"/>
  <path d="m878.09 0.000022653v4.4903h4.49v-4.4903l-4.49 0.000022653z"/>
  <path d="m916.26 0.000020984v4.4903h4.5v-4.4903l-4.5 0.000020984z"/>
  <path d="m954.44 0.000019315v4.4902h4.49v-4.4902l-4.49 0.000019315z"/>
  <path d="m992.62 0.000017646v4.4902h4.49v-4.4902l-4.49 0.000017646z"/>
  <path d="m1030.8 0.000015978v4.4902h4.5v-4.4902l-4.5 0.000015978z"/>
  <path d="m1069 0.000014309v4.4902h4.5v-4.4902l-4.5 0.000014309z"/>
  <path d="m1107.2 0.00001264v4.4902h4.4v-4.4902l-4.4 0.00001264z"/>
  <path d="m1145.3 0.000010971v4.4902h4.5v-4.4902l-4.5 0.000010971z"/>
  <path d="m1183.5 0.0000093024v4.4902h4.5v-4.4902l-4.5 0.0000093024z"/>
 </g>
</svg>
