<?xml version="1.0" encoding="UTF-8" standalone="no"?>
<svg width="20" xmlns="http://www.w3.org/2000/svg" fill="none" viewBox="0 0 20 24" height="24">
 <path stroke-linejoin="round" stroke="#FF5449" stroke-width="2" stroke-linecap="round" d="m18.941 10c0 7-8.919 13-8.919 13s-8.9195-6-8.9195-13c0-2.387 0.9397-4.6761 2.6124-6.364 1.6727-1.6878 3.9414-2.636 6.3071-2.636 2.366 0 4.634 0.9482 6.307 2.636 1.673 1.6879 2.612 3.977 2.612 6.364z"/>
 <path stroke-linejoin="round" stroke="#FF5449" stroke-width="2" stroke-linecap="round" d="m10.022 13c1.642 0 2.973-1.343 2.973-3 0-1.6568-1.331-3-2.973-3-1.6421 0-2.9732 1.3432-2.9732 3 0 1.657 1.3311 3 2.9732 3z"/>
</svg>
