<svg width="20" height="24" viewBox="0 0 20 24" fill="none" xmlns="http://www.w3.org/2000/svg">
<path d="M18.9413 10C18.9413 17 10.0219 23 10.0219 23C10.0219 23 1.10248 17 1.10248 10C1.10248 7.61305 2.0422 5.32387 3.71491 3.63604C5.38762 1.94821 7.65631 1 10.0219 1C12.3875 1 14.6561 1.94821 16.3289 3.63604C18.0016 5.32387 18.9413 7.61305 18.9413 10Z" stroke="#FF5449" stroke-width="2" stroke-linecap="round" stroke-linejoin="round"/>
<path d="M10.0219 13C11.6639 13 12.995 11.6569 12.995 10C12.995 8.34315 11.6639 7 10.0219 7C8.37988 7 7.04877 8.34315 7.04877 10C7.04877 11.6569 8.37988 13 10.0219 13Z" stroke="#FF5449" stroke-width="2" stroke-linecap="round" stroke-linejoin="round"/>
</svg>
