<?xml version="1.0" encoding="UTF-8" standalone="no"?>
<svg width="22" xmlns="http://www.w3.org/2000/svg" fill="none" viewBox="0 0 22 22" height="22">
 <path stroke-linejoin="round" stroke="#FF5449" stroke-width="2" stroke-linecap="round" d="m20.814 15.92v3c0.001 0.278-0.056 0.554-0.166 0.809-0.111 0.255-0.273 0.484-0.476 0.673-0.204 0.188-0.444 0.331-0.705 0.42-0.262 0.09-0.539 0.123-0.814 0.098-3.049-0.335-5.979-1.386-8.552-3.07-2.3948-1.536-4.425-3.584-5.9466-6-1.6748-2.6089-2.7172-5.579-3.0425-8.67-0.0247-0.2765 0.0078-0.5552 0.0957-0.8183 0.0878-0.2631 0.229-0.5049 0.4145-0.71s0.4113-0.3689 0.663-0.4811 0.5238-0.1702 0.799-0.1705h2.9731c0.481-0.00478 0.9473 0.1671 1.312 0.4835 0.3646 0.3165 0.6028 0.7559 0.6701 1.2365 0.1255 0.96 0.3582 1.9026 0.6938 2.8099 0.1333 0.3579 0.1622 0.7469 0.0831 1.1208-0.079 0.374-0.2626 0.7172-0.5291 0.9891l-1.2586 1.27c1.4108 2.5031 3.4655 4.5761 5.9465 6.0001l1.258-1.27c0.27-0.269 0.61-0.454 0.981-0.534 0.37-0.08 0.756-0.051 1.11 0.084 0.9 0.338 1.834 0.573 2.785 0.7 0.482 0.068 0.921 0.313 1.236 0.687 0.314 0.375 0.481 0.852 0.469 1.343z"/>
</svg>
