<?xml version="1.0" encoding="UTF-8" standalone="no"?>
<svg width="64" xmlns="http://www.w3.org/2000/svg" fill="none" viewBox="0 0 64 64" height="64">
 <path stroke-linejoin="round" stroke="#E03D3B" stroke-width="5.3333" stroke-linecap="round" d="m16 5.3335l-8 10.666v37.334c0 1.414 0.5619 2.771 1.5621 3.771 0.9999 1 2.3569 1.562 3.7709 1.562h37.334c1.414 0 2.771-0.562 3.771-1.562s1.562-2.357 1.562-3.771v-37.334l-8-10.666h-32z"/>
 <path stroke-linejoin="round" stroke="#E03D3B" stroke-width="5.3333" stroke-linecap="round" d="m8 15.998h48"/>
 <path stroke-linejoin="round" stroke="#E03D3B" stroke-width="5.3333" stroke-linecap="round" d="m42.666 26.666c0 2.828-1.123 5.542-3.124 7.542-2 2-4.713 3.124-7.542 3.124s-5.542-1.124-7.543-3.124c-2-2-3.124-4.714-3.124-7.542"/>
</svg>
