<svg width="64" height="64" viewBox="0 0 64 64" fill="none" xmlns="http://www.w3.org/2000/svg">
<path d="M16 5.3335L8 16.0002V53.3336C8 54.7481 8.5619 56.1047 9.5621 57.1049C10.5623 58.1051 11.9188 58.667 13.3333 58.667H50.6667C52.0812 58.667 53.4377 58.1051 54.4379 57.1049C55.4381 56.1047 56 54.7481 56 53.3336V16.0002L48 5.3335H16Z" stroke="#E03D3B" stroke-width="5.33333" stroke-linecap="round" stroke-linejoin="round"/>
<path d="M8 15.998H56" stroke="#E03D3B" stroke-width="5.33333" stroke-linecap="round" stroke-linejoin="round"/>
<path d="M42.6664 26.6655C42.6664 29.4945 41.5426 32.2077 39.5422 34.2081C37.5418 36.2085 34.8287 37.3323 31.9997 37.3323C29.1707 37.3323 26.4576 36.2085 24.4572 34.2081C22.4568 32.2077 21.333 29.4945 21.333 26.6655" stroke="#E03D3B" stroke-width="5.33333" stroke-linecap="round" stroke-linejoin="round"/>
</svg>
