<?xml version="1.0" encoding="UTF-8" standalone="no"?>
<svg width="64" xmlns="http://www.w3.org/2000/svg" viewBox="0 0 64 64" height="64">
 <path d="m26.055 43.88c-0.216 0-0.434-0.076-0.611-0.231l-6.112-5.335c-0.211-0.184-0.332-0.453-0.332-0.738 0-0.283 0.122-0.552 0.332-0.737l6.112-5.334c0.396-0.347 0.992-0.298 1.331 0.109 0.338 0.407 0.29 1.018-0.107 1.364l-5.267 4.598 5.267 4.598c0.397 0.347 0.445 0.958 0.107 1.365-0.187 0.225-0.453 0.341-0.72 0.341z" fill="#E03D3B"/>
 <path d="m38.945 43.88c-0.267 0-0.533-0.116-0.719-0.341-0.339-0.407-0.291-1.018 0.106-1.365l5.267-4.598-5.267-4.598c-0.397-0.346-0.445-0.957-0.106-1.364 0.337-0.407 0.934-0.456 1.33-0.109l6.112 5.334c0.211 0.185 0.332 0.454 0.332 0.737 0 0.285-0.121 0.554-0.332 0.738l-6.112 5.335c-0.177 0.155-0.395 0.231-0.611 0.231z" fill="#E03D3B"/>
 <path d="m29.996 47.759c-0.068 0-0.137-0.007-0.206-0.02-0.538-0.104-0.882-0.591-0.768-1.087l4.01-17.56c0.113-0.495 0.641-0.812 1.178-0.708 0.538 0.104 0.882 0.591 0.768 1.087l-4.01 17.56c-0.099 0.432-0.512 0.728-0.972 0.728z" fill="#E03D3B"/>
 <path d="m54.682 56.487h-44.364c-3.4833 0-6.318-2.733-6.318-6.092v-36.303c0-3.359 2.8347-6.092 6.318-6.092h44.364c3.483 0 6.318 2.733 6.318 6.092v36.303c0 3.359-2.835 6.092-6.318 6.092zm-44.364-46.672c-2.4457 0-4.4359 1.9194-4.4359 4.2774v36.303c0 2.358 1.9902 4.277 4.4359 4.277h44.364c2.446 0 4.436-1.919 4.436-4.277v-36.303c0-2.358-1.99-4.2774-4.436-4.2774h-44.364z" fill="#E03D3B"/>
 <path d="m60.059 22.546h-55.118c-0.5198 0-0.941-0.434-0.941-0.97 0-0.535 0.4212-0.97 0.941-0.97h55.118c0.52 0 0.941 0.435 0.941 0.97 0 0.536-0.421 0.97-0.941 0.97z" fill="#E03D3B"/>
 <path d="m20 18.667c-1.654 0-3-1.306-3-2.909 0-1.604 1.346-2.909 3-2.909s3 1.305 3 2.909c0 1.603-1.346 2.909-3 2.909zm0-3.98c-0.608 0-1.104 0.48-1.104 1.071 0 0.59 0.496 1.07 1.104 1.07 0.609 0 1.104-0.48 1.104-1.07 0-0.591-0.495-1.071-1.104-1.071z" fill="#E03D3B"/>
 <path d="m11 18.667c-1.6542 0-3-1.305-3-2.909s1.3458-2.909 3-2.909c1.654 0 3 1.305 3 2.909s-1.346 2.909-3 2.909zm0-3.98c-0.608 0-1.104 0.481-1.104 1.071s0.496 1.07 1.104 1.07c0.609 0 1.104-0.48 1.104-1.07s-0.495-1.071-1.104-1.071z" fill="#E03D3B"/>
 <path d="m29 18.667c-1.654 0-3-1.305-3-2.909s1.346-2.909 3-2.909 3 1.305 3 2.909-1.346 2.909-3 2.909zm0-3.98c-0.609 0-1.104 0.48-1.104 1.071 0 0.59 0.495 1.07 1.104 1.07s1.104-0.48 1.104-1.07c0-0.591-0.495-1.071-1.104-1.071z" fill="#E03D3B"/>
</svg>
