<?xml version="1.0" encoding="UTF-8" standalone="no"?>
<svg width="186" xmlns="http://www.w3.org/2000/svg" viewBox="0 0 186 56" height="56">
 <path d="m9.234 18.921c-2.2944 0.029-4.4837 0.959-6.0884 2.584-1.6048 1.626-2.4941 3.816-2.4734 6.09-0.03615 1.132 0.1593 2.26 0.5746 3.315 0.4152 1.056 1.0417 2.017 1.8417 2.826 0.8 0.808 1.7569 1.449 2.8131 1.881 1.0561 0.433 2.1897 0.649 3.3324 0.636 1.142 0 2.272-0.225 3.326-0.661 1.053-0.437 2.009-1.076 2.811-1.882 0.802-0.805 1.435-1.76 1.861-2.81 0.427-1.05 0.639-2.173 0.624-3.305 0.014-2.282-0.886-4.477-2.502-6.103s-3.817-2.551-6.12-2.571zm7.372 8.674c0.034 0.978-0.132 1.952-0.488 2.864-0.357 0.912-0.895 1.743-1.584 2.443-0.689 0.701-1.513 1.256-2.424 1.632s-1.889 0.565-2.876 0.556c-0.9848 0.008-1.9609-0.182-2.8694-0.559s-1.7304-0.933-2.4163-1.633c-0.6858-0.7-1.2212-1.532-1.5738-2.443-0.3527-0.911-0.5153-1.884-0.4779-2.86-0.034-0.979 0.133-1.955 0.4908-2.868 0.3577-0.913 0.8988-1.745 1.5905-2.445s1.5195-1.254 2.4334-1.627c0.9138-0.374 1.8947-0.559 2.8831-0.546 0.9816-0.003 1.9536 0.19 2.8576 0.569 0.904 0.378 1.722 0.933 2.405 1.632s1.216 1.528 1.568 2.436 0.516 1.877 0.481 2.849z" fill="#F9F5F4"/>
 <path d="m29.988 27.297c0.438-0.473 0.774-1.028 0.989-1.634 0.215-0.605 0.304-1.247 0.261-1.887-0.052-2.983-2.087-4.838-5.312-4.838h-4.906v17.324h1.251v-7.547h2.276l5.518 7.008 0.431 0.539h1.569l-6.035-7.589c1.449 0.064 2.867-0.429 3.958-1.376zm-7.76-7.171h3.707c2.587 0 4.113 1.368 4.113 3.658 0 2.564-1.371 3.752-4.208 3.752h-3.569l-0.043-7.41z" fill="#F9F5F4"/>
 <path d="m34.178 20.134h4.268v15.956h1.215v-15.956h4.268v-1.213h-9.751v1.213z" fill="#F9F5F4"/>
 <path d="m46.844 36.262h8.312v-1.231h-7.07v-6.811h6.975v-1.24h-6.975v-6.811h7.07v-1.231h-8.312v17.324z" fill="#F9F5F4"/>
 <path d="m85.014 19.058v-0.137h-1.69l-6.294 17.332h1.354l2.181-6.265h7.122l2.285 6.265h1.345s-3.233-8.675-6.303-17.195zm2.294 9.794h-6.294l3.112-8.683 3.182 8.683z" fill="#F9F5F4"/>
 <path d="m133.02 27.297c0.45-0.468 0.8-1.022 1.02-1.628 0.22-0.605 0.32-1.25 0.28-1.893 0-2.983-2.08-4.838-5.32-4.838h-4.93v17.324h1.24v-7.547h2.28l5.95 7.547h1.54l-5.98-7.589c1.44 0.055 2.84-0.437 3.92-1.376zm-4.18 0.239h-3.57v-7.41h3.67c2.58 0 4.12 1.368 4.12 3.658 0 2.521-1.38 3.752-4.22 3.752z" fill="#F9F5F4"/>
 <path d="m146.96 18.921c-2.3 0.027-4.49 0.955-6.1 2.582-1.6 1.626-2.49 3.817-2.47 6.092-0.03 1.132 0.16 2.26 0.58 3.315 0.41 1.056 1.04 2.017 1.84 2.826 0.8 0.808 1.76 1.449 2.81 1.881 1.06 0.433 2.19 0.649 3.34 0.636 1.14 0 2.27-0.225 3.32-0.661 1.06-0.437 2.01-1.076 2.81-1.882 0.81-0.805 1.44-1.76 1.86-2.81 0.43-1.05 0.64-2.173 0.63-3.305 0.01-2.282-0.89-4.477-2.5-6.103-1.62-1.626-3.82-2.551-6.12-2.571zm7.36 8.674c0 1.934-0.78 3.788-2.16 5.155-1.37 1.367-3.24 2.135-5.2 2.135-1.95 0-3.82-0.768-5.2-2.135s-2.15-3.221-2.15-5.155c0-1.933 0.77-3.787 2.15-5.155 1.38-1.367 3.25-2.135 5.2-2.135 1.96 0 3.83 0.768 5.2 2.135 1.38 1.368 2.16 3.222 2.16 5.155z" fill="#F9F5F4"/>
 <path d="m169.46 31.442c0 2.384-2.02 3.632-4.02 3.632s-4-1.248-4-3.632v-12.504h-1.26v12.504c0 3.316 2.72 4.82 5.24 4.82 2.53 0 5.26-1.658 5.26-4.82v-12.504h-1.24l0.02 12.504z" fill="#F9F5F4"/>
 <path d="m180.01 18.921h-4.63v17.332h1.18v-6.982h3.45c0.69 0.028 1.38-0.085 2.03-0.331 0.64-0.247 1.23-0.623 1.72-1.104s0.88-1.057 1.14-1.692c0.25-0.636 0.38-1.317 0.36-2.001 0.02-0.689-0.1-1.376-0.36-2.017-0.26-0.642-0.64-1.225-1.13-1.713-0.49-0.489-1.08-0.874-1.72-1.13-0.65-0.257-1.34-0.38-2.04-0.362zm4.02 5.29c0.02 0.523-0.08 1.043-0.27 1.527-0.2 0.485-0.5 0.923-0.88 1.287-0.38 0.365-0.82 0.647-1.32 0.829-0.49 0.182-1.02 0.26-1.55 0.229h-3.45v-8.017h3.45c0.54 0.006 1.07 0.118 1.57 0.331 0.49 0.213 0.94 0.521 1.31 0.908s0.65 0.843 0.84 1.342 0.28 1.031 0.26 1.564h0.04z" fill="#F9F5F4"/>
 <path d="m65.675 27.98v1.214h7.605c-0.237 1.641-1.066 3.141-2.335 4.221s-2.891 1.667-4.563 1.65c-1.96-0.032-3.828-0.83-5.196-2.221-1.368-1.392-2.126-3.263-2.107-5.206-0.004-1.268 0.309-2.518 0.911-3.638 0.601-1.12 1.473-2.075 2.538-2.78 0.534-0.342 1.114-0.607 1.724-0.786 0.056-0.022 0.114-0.04 0.173-0.052 0.246-0.068 0.497-0.122 0.75-0.162l0.25-0.043c0.328-0.045 0.66-0.067 0.991-0.068 0.361 0.001 0.721 0.023 1.078 0.068h0.259c0.335 0.047 0.666 0.115 0.991 0.205 0.325 0.094 0.642 0.211 0.949 0.351l0.172 0.077c0.3 0.143 0.588 0.309 0.862 0.496l0.294 0.213c0.181 0.137 0.353 0.282 0.525 0.436 0.181 0.159 0.354 0.328 0.518 0.504h1.56c-0.201-0.286-0.423-0.557-0.663-0.812l-0.138-0.136c-0.25-0.258-0.515-0.501-0.794-0.727l-0.138-0.111c-0.274-0.217-0.562-0.417-0.862-0.598l-0.31-0.18c-0.044-0.028-0.09-0.054-0.138-0.077-0.28-0.142-0.568-0.267-0.862-0.376l-0.138-0.042c-0.262-0.095-0.53-0.172-0.802-0.231l-0.216-0.051c-0.261-0.06-0.526-0.103-0.793-0.128h-0.25c-0.345 0-0.707-0.06-1.078-0.06-0.346 0.002-0.691 0.022-1.034 0.06h-0.182c-0.289 0.033-0.577 0.081-0.862 0.145h-0.103c-0.292 0.074-0.58 0.162-0.863 0.265-0.296 0.104-0.584 0.23-0.862 0.376-1.424 0.754-2.613 1.879-3.44 3.254-0.826 1.375-1.259 2.948-1.25 4.548-0.017 1.126 0.19 2.243 0.61 3.289 0.419 1.045 1.043 1.998 1.836 2.804 0.792 0.806 1.737 1.449 2.781 1.892 1.043 0.443 2.165 0.678 3.3 0.69 1.078 0.028 2.15-0.161 3.152-0.555s1.913-0.984 2.678-1.737c0.765-0.752 1.369-1.65 1.775-2.64s0.605-2.051 0.586-3.119v-0.205l-8.889-0.017z" fill="#F9F5F4"/>
 <path d="m111.9 27.98v1.214h7.6c-0.23 1.641-1.06 3.141-2.33 4.221s-2.89 1.667-4.57 1.65c-1.16-0.027-2.3-0.32-3.33-0.858-1.03-0.537-1.93-1.304-2.61-2.24s-1.13-2.016-1.32-3.155c-0.19-1.14-0.12-2.307 0.22-3.411 0.35-1.104 0.94-2.115 1.74-2.954 0.8-0.838 1.79-1.481 2.88-1.879 1.1-0.397 2.27-0.538 3.42-0.412 1.16 0.127 2.28 0.517 3.26 1.141 0.23 0.159 0.46 0.33 0.68 0.513 0.24 0.204 0.47 0.427 0.68 0.666h1.56c-0.21-0.298-0.43-0.584-0.67-0.854l-0.13-0.137-0.17-0.154c-0.15-0.154-0.3-0.307-0.46-0.444-0.17-0.137-0.47-0.376-0.71-0.547l-0.09-0.06c-0.25-0.164-0.5-0.313-0.76-0.444h-0.05c-1.3-0.637-2.73-0.956-4.17-0.932-1.14 0.007-2.27 0.238-3.32 0.682-1.05 0.443-2.01 1.089-2.8 1.9-0.8 0.811-1.43 1.771-1.85 2.824-0.42 1.054-0.62 2.179-0.6 3.311-0.01 1.124 0.21 2.239 0.63 3.28 0.43 1.041 1.06 1.989 1.85 2.789 0.8 0.801 1.75 1.437 2.79 1.874 1.05 0.437 2.17 0.665 3.3 0.672 1.08 0.028 2.15-0.161 3.16-0.556 1-0.395 1.91-0.988 2.68-1.742 0.76-0.754 1.37-1.654 1.77-2.646 0.4-0.991 0.6-2.054 0.58-3.124v-0.205l-8.86 0.017z" fill="#F9F5F4"/>
 <path d="m178.87 0h-178.16v12.614h6.3632v-6.3069h171.83v6.3069h6.36v-12.614h-6.36z" fill="#F9F5F4"/>
 <path d="m7.0355 55.174h178.19v-12.614h-6.36v6.307h-171.8v-6.307h-6.3631v12.614h6.3631z" fill="#F9F5F4"/>
</svg>
