<?xml version="1.0" encoding="UTF-8" standalone="no"?>
<svg width="124" xmlns="http://www.w3.org/2000/svg" viewBox="0 0 124 38" height="38">
 <path d="m5.7107 12.703c-1.5297 0.02-2.9892 0.644-4.059 1.735-1.0698 1.092-1.6627 2.562-1.6489 4.089-0.024077 0.76 0.10622 1.517 0.38306 2.225 0.27684 0.709 0.69454 1.354 1.2278 1.897 0.5333 0.543 1.1712 0.973 1.8753 1.263 0.7042 0.291 1.4599 0.436 2.2217 0.427 0.7612 0 1.5148-0.151 2.2171-0.444s1.3393-0.722 1.8741-1.263c0.5351-0.54 0.9561-1.182 1.2411-1.887 0.284-0.704 0.426-1.459 0.416-2.218 0.009-1.533-0.591-3.006-1.6684-4.098-1.0775-1.091-2.5447-1.712-4.0799-1.726zm4.9143 5.824c0.023 0.656-0.088 1.31-0.325 1.922-0.238 0.613-0.5968 1.171-1.056 1.641s-1.0089 0.842-1.6162 1.095c-0.6072 0.252-1.2593 0.379-1.9171 0.374-0.6565 0.005-1.3073-0.123-1.9129-0.376-0.6057-0.253-1.1537-0.626-1.6109-1.096-0.4572-0.471-0.8141-1.028-1.0492-1.64-0.23514-0.612-0.34353-1.265-0.31864-1.92-0.02263-0.658 0.08869-1.313 0.32724-1.926 0.2385-0.613 0.5992-1.172 1.0603-1.641 0.4612-0.47 1.013-0.842 1.6223-1.093 0.6092-0.251 1.2631-0.375 1.922-0.366 0.6544-0.002 1.3024 0.128 1.9053 0.381 0.6028 0.254 1.1481 0.627 1.6033 1.096 0.4551 0.47 0.8105 1.026 1.0455 1.636 0.235 0.609 0.343 1.26 0.32 1.913z" fill="#fff"/>
 <path d="m19.546 18.326c0.292-0.317 0.517-0.69 0.66-1.097 0.144-0.406 0.203-0.837 0.174-1.267-0.035-2.003-1.391-3.248-3.541-3.248h-3.271v11.63h0.834v-5.066h1.517l3.679 4.705 0.288 0.361h1.046l-4.024-5.094c0.966 0.043 1.911-0.288 2.638-0.924zm-5.173-4.814h2.472c1.724 0 2.742 0.918 2.742 2.456 0 1.721-0.914 2.518-2.805 2.518h-2.38l-0.029-4.974z" fill="#fff"/>
 <path d="m22.34 13.518h2.845v10.712h0.811v-10.712h2.845v-0.815h-6.501v0.815z" fill="#fff"/>
 <path d="m30.784 24.344h5.541v-0.826h-4.713v-4.573h4.65v-0.831h-4.65v-4.573h4.713v-0.827h-5.541v11.63z" fill="#fff"/>
 <path d="m56.231 12.795v-0.092h-1.127l-4.196 11.636h0.903l1.454-4.206h4.748l1.523 4.206h0.897s-2.156-5.824-4.202-11.544zm1.529 6.575h-4.196l2.075-5.829 2.121 5.829z" fill="#fff"/>
 <path d="m88.237 18.326c0.298-0.314 0.529-0.686 0.677-1.093 0.148-0.406 0.211-0.839 0.185-1.271 0-2.003-1.385-3.248-3.541-3.248h-3.288v11.63h0.828v-5.066h1.517l3.966 5.066h1.029l-3.989-5.094c0.958 0.037 1.894-0.294 2.616-0.924zm-2.788 0.16h-2.38v-4.974h2.443c1.724 0 2.748 0.918 2.748 2.456 0 1.692-0.92 2.518-2.811 2.518z" fill="#fff"/>
 <path d="m97.525 12.703c-1.53 0.018-2.99 0.642-4.061 1.733-1.07 1.092-1.662 2.563-1.647 4.091-0.024 0.76 0.107 1.517 0.383 2.225 0.277 0.709 0.695 1.354 1.228 1.897s1.171 0.973 1.876 1.263c0.704 0.291 1.459 0.436 2.221 0.427 0.761 0 1.515-0.151 2.217-0.444 0.698-0.293 1.338-0.722 1.878-1.263 0.53-0.54 0.95-1.182 1.24-1.887 0.28-0.704 0.42-1.459 0.41-2.218 0.01-1.533-0.59-3.006-1.67-4.098-1.07-1.091-2.54-1.712-4.075-1.726zm4.905 5.824c0 1.298-0.51 2.543-1.43 3.461-0.92 0.917-2.169 1.433-3.469 1.433-1.301 0-2.548-0.516-3.467-1.433-0.92-0.918-1.436-2.163-1.436-3.461s0.516-2.543 1.436-3.461c0.919-0.918 2.166-1.433 3.467-1.433 1.3 0 2.549 0.515 3.469 1.433s1.43 2.163 1.43 3.461z" fill="#fff"/>
 <path d="m112.53 21.108c0 1.601-1.35 2.439-2.68 2.439s-2.67-0.838-2.67-2.439v-8.394h-0.84v8.394c0 2.227 1.81 3.236 3.5 3.236 1.68 0 3.5-1.113 3.5-3.236v-8.394h-0.82l0.01 8.394z" fill="#fff"/>
 <path d="m119.56 12.703h-3.08v11.636h0.78v-4.687h2.3c0.46 0.019 0.92-0.057 1.35-0.223 0.43-0.165 0.82-0.417 1.15-0.74s0.59-0.71 0.76-1.137c0.17-0.426 0.25-0.884 0.24-1.343 0.01-0.463-0.07-0.924-0.24-1.354-0.17-0.431-0.43-0.822-0.75-1.15-0.33-0.329-0.72-0.587-1.15-0.759s-0.89-0.255-1.36-0.243zm2.68 3.552c0.01 0.351-0.05 0.7-0.18 1.025s-0.33 0.62-0.58 0.864c-0.26 0.245-0.56 0.434-0.88 0.556-0.33 0.123-0.69 0.175-1.04 0.154h-2.3v-5.382h2.3c0.36 0.004 0.72 0.079 1.04 0.222 0.33 0.143 0.63 0.35 0.88 0.61 0.24 0.259 0.44 0.566 0.56 0.901 0.13 0.335 0.19 0.692 0.17 1.05h0.03z" fill="#fff"/>
 <path d="m43.338 18.785v0.815h5.07c-0.158 1.102-0.711 2.109-1.557 2.834-0.845 0.725-1.927 1.119-3.041 1.108-1.307-0.022-2.552-0.558-3.464-1.492s-1.418-2.19-1.405-3.494c-0.003-0.852 0.206-1.691 0.607-2.443s0.982-1.393 1.692-1.866c0.356-0.23 0.743-0.408 1.15-0.528 0.037-0.015 0.075-0.027 0.115-0.035 0.164-0.045 0.331-0.082 0.5-0.109l0.166-0.028c0.219-0.031 0.44-0.046 0.661-0.046 0.241 0 0.481 0.015 0.719 0.046h0.172c0.224 0.031 0.445 0.077 0.661 0.137 0.217 0.063 0.428 0.142 0.633 0.236l0.115 0.051c0.199 0.097 0.392 0.208 0.574 0.333l0.196 0.144c0.121 0.091 0.236 0.189 0.351 0.292 0.12 0.107 0.235 0.22 0.345 0.339h1.04c-0.135-0.192-0.282-0.374-0.443-0.545l-0.092-0.092c-0.166-0.173-0.343-0.336-0.529-0.488l-0.092-0.074c-0.182-0.146-0.374-0.281-0.574-0.402l-0.207-0.121c-0.03-0.019-0.06-0.036-0.092-0.051-0.187-0.096-0.379-0.18-0.575-0.253l-0.092-0.028c-0.174-0.064-0.353-0.116-0.535-0.155l-0.143-0.035c-0.174-0.04-0.351-0.069-0.529-0.086h-0.167c-0.23 0-0.471-0.04-0.718-0.04-0.231 0.002-0.461 0.015-0.69 0.04h-0.121c-0.193 0.023-0.385 0.055-0.575 0.098h-0.069c-0.194 0.049-0.386 0.109-0.574 0.178-0.198 0.069-0.39 0.154-0.575 0.252-0.95 0.507-1.743 1.262-2.294 2.185s-0.839 1.979-0.833 3.054c-0.012 0.755 0.127 1.505 0.406 2.207 0.28 0.702 0.696 1.342 1.224 1.883 0.529 0.541 1.159 0.973 1.854 1.27 0.696 0.298 1.444 0.455 2.201 0.463 0.718 0.019 1.433-0.108 2.101-0.372 0.668-0.265 1.275-0.661 1.785-1.166 0.511-0.505 0.913-1.108 1.184-1.773 0.27-0.664 0.403-1.377 0.39-2.094v-0.137l-5.926-0.012z" fill="#fff"/>
 <path d="m74.154 18.785v0.814h5.07c-0.158 1.102-0.711 2.109-1.557 2.835-0.846 0.725-1.927 1.118-3.042 1.107-0.777-0.018-1.538-0.215-2.225-0.576-0.688-0.361-1.282-0.875-1.737-1.504-0.455-0.628-0.757-1.353-0.884-2.118s-0.075-1.549 0.152-2.29c0.228-0.741 0.624-1.42 1.158-1.983s1.191-0.995 1.92-1.262c0.729-0.266 1.511-0.361 2.283-0.276s1.513 0.347 2.167 0.766c0.157 0.106 0.309 0.221 0.454 0.344 0.163 0.138 0.314 0.287 0.454 0.448h1.04c-0.137-0.201-0.287-0.392-0.448-0.574l-0.086-0.092-0.109-0.103c-0.104-0.103-0.202-0.207-0.311-0.299-0.109-0.091-0.31-0.252-0.471-0.367l-0.063-0.04c-0.162-0.11-0.331-0.21-0.506-0.298h-0.035c-0.862-0.428-1.814-0.642-2.776-0.626-0.762 0.005-1.515 0.16-2.216 0.458-0.701 0.297-1.336 0.731-1.867 1.275-0.532 0.545-0.95 1.19-1.23 1.897s-0.416 1.463-0.401 2.223c-0.006 0.754 0.137 1.502 0.421 2.202 0.284 0.699 0.704 1.335 1.234 1.872 0.531 0.538 1.163 0.965 1.859 1.258 0.697 0.293 1.444 0.447 2.2 0.451 0.719 0.019 1.435-0.108 2.104-0.373 0.668-0.265 1.276-0.663 1.787-1.169 0.51-0.507 0.913-1.111 1.182-1.777 0.27-0.666 0.402-1.379 0.388-2.097v-0.138l-5.909 0.012z" fill="#fff"/>
 <path d="m118.8 0h-118.79v8.4687h4.2421v-4.2343h114.55v4.2343h4.24v-8.4687h-4.24z" fill="#E03D3B"/>
 <path d="m4.245 37.042h118.79v-8.469h-4.24v4.235h-114.55v-4.235h-4.2421v8.469h4.2421z" fill="#bbb"/>
</svg>
