<?xml version="1.0" encoding="UTF-8" standalone="no"?>
<svg width="64" xmlns="http://www.w3.org/2000/svg" viewBox="0 0 64 64" height="64">
 <path d="m37 54h-2v-9.8c0-0.265-0.105-0.52-0.293-0.707-0.187-0.188-0.442-0.293-0.707-0.293s-0.52 0.105-0.707 0.293c-0.188 0.187-0.293 0.442-0.293 0.707v9.8h-26v-20h8.32c0.265 0 0.52-0.105 0.707-0.293 0.188-0.187 0.293-0.442 0.293-0.707s-0.105-0.52-0.293-0.707c-0.187-0.188-0.442-0.293-0.707-0.293h-9.32c-0.2652 0-0.5196 0.105-0.7071 0.293-0.1875 0.187-0.2929 0.442-0.2929 0.707v21h-2c-0.2652 0-0.5196 0.105-0.7071 0.293-0.1875 0.187-0.2929 0.442-0.2929 0.707v2c0 1.326 0.5268 2.598 1.4645 3.536 0.9377 0.937 2.2094 1.464 3.5355 1.464h26c1.326 0 2.598-0.527 3.536-1.464 0.937-0.938 1.464-2.21 1.464-3.536v-2c0-0.265-0.105-0.52-0.293-0.707-0.187-0.188-0.442-0.293-0.707-0.293zm-1 3c0 0.796-0.316 1.559-0.879 2.121-0.562 0.563-1.325 0.879-2.121 0.879h-2v-1c0-0.265-0.105-0.52-0.293-0.707-0.187-0.188-0.442-0.293-0.707-0.293s-0.52 0.105-0.707 0.293c-0.188 0.187-0.293 0.442-0.293 0.707v1h-18v-1c0-0.265-0.105-0.52-0.293-0.707-0.187-0.188-0.442-0.293-0.707-0.293-0.2652 0-0.5196 0.105-0.7071 0.293-0.1875 0.187-0.2929 0.442-0.2929 0.707v1h-2c-0.7956 0-1.5587-0.316-2.1213-0.879-0.5626-0.562-0.8787-1.325-0.8787-2.121v-1h32v1z"/>
 <path d="m54 8h2c0.265 0 0.52-0.1054 0.707-0.2929 0.188-0.1875 0.293-0.4419 0.293-0.7071s-0.105-0.5196-0.293-0.7071c-0.187-0.1875-0.442-0.2929-0.707-0.2929h-2c-0.796 0-1.559 0.3161-2.121 0.8787-0.563 0.5626-0.879 1.3257-0.879 2.1213v1h-1c-0.265 0-0.52 0.105-0.707 0.293-0.188 0.187-0.293 0.442-0.293 0.707s0.105 0.52 0.293 0.707c0.187 0.188 0.442 0.293 0.707 0.293h1v3c0 0.265 0.105 0.52 0.293 0.707 0.187 0.188 0.442 0.293 0.707 0.293s0.52-0.105 0.707-0.293c0.188-0.187 0.293-0.442 0.293-0.707v-3h1c0.265 0 0.52-0.105 0.707-0.293 0.188-0.187 0.293-0.442 0.293-0.707s-0.105-0.52-0.293-0.707c-0.187-0.188-0.442-0.293-0.707-0.293h-1v-1c0-0.2652 0.105-0.5196 0.293-0.7071 0.187-0.1875 0.442-0.2929 0.707-0.2929z"/>
 <path d="m59 2h-12c-0.796 0-1.559 0.3161-2.121 0.8787-0.563 0.5626-0.879 1.3257-0.879 2.1213v2c0 0.2652 0.105 0.5196 0.293 0.7071 0.187 0.1875 0.442 0.2929 0.707 0.2929s0.52-0.1054 0.707-0.2929c0.188-0.1875 0.293-0.4419 0.293-0.7071v-2c0-0.2652 0.105-0.5196 0.293-0.7071 0.187-0.1875 0.442-0.2929 0.707-0.2929h12c0.265 0 0.52 0.1054 0.707 0.2929 0.188 0.1875 0.293 0.4419 0.293 0.7071v12c0 0.265-0.105 0.52-0.293 0.707-0.187 0.188-0.442 0.293-0.707 0.293h-12c-0.265 0-0.52-0.105-0.707-0.293-0.188-0.187-0.293-0.442-0.293-0.707v-6c0-0.265-0.105-0.52-0.293-0.707-0.187-0.188-0.442-0.293-0.707-0.293s-0.52 0.105-0.707 0.293c-0.188 0.187-0.293 0.442-0.293 0.707v6c0 0.796 0.316 1.559 0.879 2.121 0.562 0.563 1.325 0.879 2.121 0.879h12c0.796 0 1.559-0.316 2.121-0.879 0.563-0.562 0.879-1.325 0.879-2.121v-12c0-0.7956-0.316-1.5587-0.879-2.1213-0.562-0.5626-1.325-0.8787-2.121-0.8787z"/>
 <path d="m49 42c0 0.791 0.235 1.564 0.674 2.222 0.44 0.658 1.064 1.171 1.795 1.474 0.731 0.302 1.535 0.382 2.311 0.227 0.776-0.154 1.489-0.535 2.048-1.095 0.56-0.559 0.941-1.272 1.095-2.048 0.155-0.776 0.075-1.58-0.227-2.311-0.303-0.731-0.816-1.355-1.474-1.795-0.658-0.439-1.431-0.674-2.222-0.674-1.061 0-2.078 0.421-2.828 1.172-0.751 0.75-1.172 1.767-1.172 2.828zm6 0c0 0.396-0.117 0.782-0.337 1.111s-0.532 0.585-0.898 0.737c-0.365 0.151-0.767 0.191-1.155 0.114-0.388-0.078-0.744-0.268-1.024-0.548s-0.47-0.636-0.548-1.024c-0.077-0.388-0.037-0.79 0.114-1.155 0.152-0.366 0.408-0.678 0.737-0.898s0.715-0.337 1.111-0.337c0.53 0 1.039 0.211 1.414 0.586s0.586 0.884 0.586 1.414z"/>
 <path d="m59 33h-12c-0.796 0-1.559 0.316-2.121 0.879-0.563 0.562-0.879 1.325-0.879 2.121v12c0 0.796 0.316 1.559 0.879 2.121 0.562 0.563 1.325 0.879 2.121 0.879h12c0.796 0 1.559-0.316 2.121-0.879 0.563-0.562 0.879-1.325 0.879-2.121v-2c0-0.265-0.105-0.52-0.293-0.707-0.187-0.188-0.442-0.293-0.707-0.293s-0.52 0.105-0.707 0.293c-0.188 0.187-0.293 0.442-0.293 0.707v2c0 0.265-0.105 0.52-0.293 0.707-0.187 0.188-0.442 0.293-0.707 0.293h-12c-0.265 0-0.52-0.105-0.707-0.293-0.188-0.187-0.293-0.442-0.293-0.707v-12c0-0.265 0.105-0.52 0.293-0.707 0.187-0.188 0.442-0.293 0.707-0.293h12c0.265 0 0.52 0.105 0.707 0.293 0.188 0.187 0.293 0.442 0.293 0.707v6c0 0.265 0.105 0.52 0.293 0.707 0.187 0.188 0.442 0.293 0.707 0.293s0.52-0.105 0.707-0.293c0.188-0.187 0.293-0.442 0.293-0.707v-6c0-0.796-0.316-1.559-0.879-2.121-0.562-0.563-1.325-0.879-2.121-0.879z"/>
 <path d="m24.47 13.85c0.159 0.099 0.343 0.151 0.53 0.15 0.156-0.001 0.311-0.039 0.45-0.11l6-3c0.164-0.084 0.301-0.211 0.397-0.368 0.096-0.158 0.147-0.338 0.147-0.522 0-0.1841-0.051-0.3645-0.147-0.5216-0.096-0.157-0.233-0.2845-0.397-0.3684l-6-3c-0.152-0.0767-0.322-0.1132-0.492-0.1061s-0.336 0.0577-0.481 0.1468c-0.145 0.0892-0.265 0.2141-0.349 0.3627-0.083 0.1486-0.128 0.3161-0.128 0.4866v6c0 0.17 0.043 0.337 0.125 0.486s0.201 0.274 0.345 0.364zm1.53-5.23l2.76 1.38-2.76 1.38v-2.76z"/>
 <path d="m27 19c1.78 0 3.52-0.528 5-1.517s2.634-2.394 3.315-4.039c0.681-1.644 0.859-3.454 0.512-5.1998s-1.204-3.3495-2.463-4.6081c-1.259-1.2587-2.862-2.1159-4.608-2.4631-1.746-0.34732-3.556-0.1691-5.2 0.5121-1.645 0.6812-3.05 1.8347-4.039 3.3148-0.989 1.48-1.517 3.2201-1.517 5.0001 0 2.387 0.948 4.676 2.636 6.364s3.977 2.636 6.364 2.636zm0-16c1.384 0 2.738 0.4106 3.889 1.1797 1.151 0.7692 2.048 1.8625 2.578 3.1415 0.53 1.2791 0.669 2.6868 0.399 4.0448-0.271 1.358-0.937 2.605-1.916 3.584s-2.226 1.645-3.584 1.916c-1.358 0.27-2.766 0.131-4.045-0.399s-2.372-1.427-3.141-2.578c-0.77-1.151-1.18-2.505-1.18-3.889 0-1.8565 0.738-3.637 2.05-4.9497 1.313-1.3128 3.094-2.0503 4.95-2.0503z"/>
 <path d="m37 23c0.155 0 0.308-0.036 0.447-0.106 0.139-0.069 0.26-0.17 0.353-0.294l3-4c0.159-0.212 0.228-0.479 0.19-0.741-0.038-0.263-0.178-0.5-0.39-0.659s-0.479-0.228-0.741-0.19c-0.263 0.038-0.5 0.178-0.659 0.39l-3 4c-0.159 0.212-0.228 0.479-0.19 0.741 0.038 0.263 0.178 0.5 0.39 0.659 0.173 0.13 0.384 0.2 0.6 0.2z"/>
 <path d="m39.2 26.6c0.093 0.124 0.214 0.225 0.353 0.294 0.139 0.07 0.292 0.106 0.447 0.106 0.216 0 0.427-0.07 0.6-0.2l4-3c0.212-0.159 0.352-0.396 0.39-0.659 0.038-0.262-0.031-0.529-0.19-0.741s-0.396-0.352-0.659-0.39c-0.262-0.038-0.529 0.031-0.741 0.19l-4 3c-0.212 0.159-0.352 0.396-0.39 0.659-0.038 0.262 0.031 0.529 0.19 0.741z"/>
 <path d="m49 28.8c-0.024-0.133-0.074-0.259-0.148-0.372-0.074-0.112-0.17-0.209-0.282-0.284-0.112-0.074-0.238-0.126-0.37-0.15-0.132-0.025-0.268-0.023-0.4 0.006l-5 1c-0.131 0.013-0.259 0.052-0.375 0.114-0.116 0.063-0.219 0.147-0.303 0.25-0.169 0.206-0.248 0.471-0.222 0.736s0.157 0.509 0.364 0.678c0.206 0.169 0.471 0.248 0.736 0.222h0.2l5-1c0.133-0.024 0.259-0.074 0.372-0.148 0.112-0.074 0.209-0.17 0.284-0.282 0.074-0.112 0.126-0.238 0.15-0.37 0.025-0.132 0.023-0.268-0.006-0.4z"/>
 <path d="m3 29h12c0.265 0 0.52-0.105 0.707-0.293 0.188-0.187 0.293-0.442 0.293-0.707v-16c0-0.265-0.105-0.52-0.293-0.707-0.187-0.188-0.442-0.293-0.707-0.293h-12c-0.2652 0-0.5196 0.105-0.7071 0.293-0.1875 0.187-0.2929 0.442-0.2929 0.707v16c0 0.265 0.1054 0.52 0.2929 0.707 0.1875 0.188 0.4419 0.293 0.7071 0.293zm1-16h10v14h-10v-14z"/>
 <path d="m11 15h-2c-0.2652 0-0.5196 0.105-0.7071 0.293-0.1875 0.187-0.2929 0.442-0.2929 0.707s0.1054 0.52 0.2929 0.707c0.1875 0.188 0.4419 0.293 0.7071 0.293h2c0.265 0 0.52-0.105 0.707-0.293 0.188-0.187 0.293-0.442 0.293-0.707s-0.105-0.52-0.293-0.707c-0.187-0.188-0.442-0.293-0.707-0.293z"/>
 <path d="m11 19h-4c-0.2652 0-0.5196 0.105-0.7071 0.293-0.1875 0.187-0.2929 0.442-0.2929 0.707s0.1054 0.52 0.2929 0.707c0.1875 0.188 0.4419 0.293 0.7071 0.293h4c0.265 0 0.52-0.105 0.707-0.293 0.188-0.187 0.293-0.442 0.293-0.707s-0.105-0.52-0.293-0.707c-0.187-0.188-0.442-0.293-0.707-0.293z"/>
 <path d="m11 23h-4c-0.2652 0-0.5196 0.105-0.7071 0.293-0.1875 0.187-0.2929 0.442-0.2929 0.707s0.1054 0.52 0.2929 0.707c0.1875 0.188 0.4419 0.293 0.7071 0.293h4c0.265 0 0.52-0.105 0.707-0.293 0.188-0.187 0.293-0.442 0.293-0.707s-0.105-0.52-0.293-0.707c-0.187-0.188-0.442-0.293-0.707-0.293z"/>
 <path d="m36.12 28.7c-0.065-0.114-0.153-0.214-0.257-0.295-0.105-0.08-0.224-0.139-0.351-0.174-0.127-0.034-0.26-0.043-0.391-0.026s-0.257 0.059-0.371 0.125-0.214 0.153-0.295 0.258c-0.08 0.104-0.139 0.223-0.173 0.35-0.035 0.128-0.044 0.26-0.027 0.391s0.06 0.257 0.125 0.371l4.41 7.63-16 6h-0.07-0.08l-2.6 1.5-1.73 1c-0.228 0.132-0.479 0.217-0.74 0.251-0.261 0.035-0.526 0.017-0.78-0.051-0.51-0.138-0.945-0.472-1.21-0.93l-2-3.46c-0.235-0.453-0.288-0.978-0.149-1.469s0.461-0.91 0.899-1.171l3.46-2 2.5 4.33c0.088 0.153 0.215 0.279 0.368 0.367s0.326 0.134 0.502 0.133c0.176 0.001 0.349-0.045 0.502-0.132 0.152-0.088 0.279-0.214 0.367-0.366 0.089-0.152 0.135-0.325 0.135-0.501s-0.046-0.349-0.134-0.501l-2.58-4.46 12.55-10.35 0.41 0.71c0.066 0.114 0.153 0.214 0.258 0.295 0.104 0.08 0.223 0.139 0.351 0.174 0.127 0.034 0.259 0.043 0.39 0.026s0.257-0.059 0.371-0.125 0.215-0.153 0.295-0.258c0.081-0.104 0.14-0.223 0.174-0.35 0.034-0.128 0.043-0.26 0.026-0.391s-0.059-0.257-0.125-0.371l-1-1.73c-0.073-0.125-0.173-0.233-0.292-0.316s-0.255-0.139-0.398-0.164c-0.144-0.027-0.291-0.022-0.433 0.014s-0.274 0.103-0.387 0.196l-14 11.54-4.26 2.46c-0.764 0.445-1.36 1.132-1.692 1.951-0.333 0.82-0.385 1.727-0.148 2.579l-1 0.57c-0.515 0.296-0.9308 0.738-1.1944 1.271-0.2636 0.532-0.3632 1.131-0.286 1.72 0.0771 0.589 0.3274 1.142 0.7192 1.589 0.3922 0.446 0.9072 0.767 1.4812 0.92 0.255 0.067 0.517 0.101 0.78 0.1 0.526-0.002 1.043-0.14 1.5-0.4l1-0.57c0.481 0.496 1.085 0.855 1.75 1.04 0.342 0.096 0.695 0.143 1.05 0.14 0.703 0.002 1.394-0.185 2-0.54l0.87-0.5 2 3.47c0.398 0.687 1.051 1.189 1.818 1.395s1.584 0.1 2.272-0.295c0.342-0.197 0.641-0.459 0.882-0.772 0.24-0.312 0.416-0.669 0.518-1.05s0.128-0.778 0.077-1.169c-0.052-0.391-0.18-0.768-0.377-1.109l-1.82-3.17 15-5.63c0.136-0.051 0.26-0.131 0.361-0.235 0.102-0.103 0.18-0.228 0.229-0.365 0.049-0.135 0.068-0.279 0.056-0.423-0.012-0.143-0.055-0.282-0.126-0.407l-4.98-8.64zm-23.62 17.09c-0.114 0.066-0.239 0.109-0.37 0.126-0.13 0.017-0.263 0.008-0.39-0.026-0.256-0.067-0.475-0.232-0.61-0.46-0.066-0.114-0.108-0.24-0.126-0.37-0.017-0.13-0.008-0.263 0.026-0.39 0.034-0.128 0.094-0.247 0.174-0.352 0.081-0.105 0.182-0.192 0.296-0.258l0.87-0.5 1 1.73-0.87 0.5zm13.16 2.8c0.066 0.114 0.109 0.24 0.126 0.37s0.008 0.263-0.026 0.39c-0.071 0.254-0.24 0.47-0.47 0.6-0.228 0.131-0.499 0.167-0.754 0.1-0.254-0.068-0.472-0.233-0.606-0.46l-2-3.47 1.66-0.95h0.08l1.99 3.42z"/>
</svg>
