<svg width="64" height="64" viewBox="0 0 64 64" fill="none" xmlns="http://www.w3.org/2000/svg">
<path d="M37 54H35V44.2C35 43.9348 34.8946 43.6804 34.7071 43.4929C34.5196 43.3054 34.2652 43.2 34 43.2C33.7348 43.2 33.4804 43.3054 33.2929 43.4929C33.1054 43.6804 33 43.9348 33 44.2V54H7V34H15.32C15.5852 34 15.8396 33.8946 16.0271 33.7071C16.2146 33.5196 16.32 33.2652 16.32 33C16.32 32.7348 16.2146 32.4804 16.0271 32.2929C15.8396 32.1054 15.5852 32 15.32 32H6C5.73478 32 5.48043 32.1054 5.29289 32.2929C5.10536 32.4804 5 32.7348 5 33V54H3C2.73478 54 2.48043 54.1054 2.29289 54.2929C2.10536 54.4804 2 54.7348 2 55V57C2 58.3261 2.52678 59.5979 3.46447 60.5355C4.40215 61.4732 5.67392 62 7 62H33C34.3261 62 35.5979 61.4732 36.5355 60.5355C37.4732 59.5979 38 58.3261 38 57V55C38 54.7348 37.8946 54.4804 37.7071 54.2929C37.5196 54.1054 37.2652 54 37 54ZM36 57C36 57.7956 35.6839 58.5587 35.1213 59.1213C34.5587 59.6839 33.7956 60 33 60H31V59C31 58.7348 30.8946 58.4804 30.7071 58.2929C30.5196 58.1054 30.2652 58 30 58C29.7348 58 29.4804 58.1054 29.2929 58.2929C29.1054 58.4804 29 58.7348 29 59V60H11V59C11 58.7348 10.8946 58.4804 10.7071 58.2929C10.5196 58.1054 10.2652 58 10 58C9.73478 58 9.48043 58.1054 9.29289 58.2929C9.10536 58.4804 9 58.7348 9 59V60H7C6.20435 60 5.44129 59.6839 4.87868 59.1213C4.31607 58.5587 4 57.7956 4 57V56H36V57Z" fill="black"/>
<path d="M54 8H56C56.2652 8 56.5196 7.89464 56.7071 7.70711C56.8946 7.51957 57 7.26522 57 7C57 6.73478 56.8946 6.48043 56.7071 6.29289C56.5196 6.10536 56.2652 6 56 6H54C53.2044 6 52.4413 6.31607 51.8787 6.87868C51.3161 7.44129 51 8.20435 51 9V10H50C49.7348 10 49.4804 10.1054 49.2929 10.2929C49.1054 10.4804 49 10.7348 49 11C49 11.2652 49.1054 11.5196 49.2929 11.7071C49.4804 11.8946 49.7348 12 50 12H51V15C51 15.2652 51.1054 15.5196 51.2929 15.7071C51.4804 15.8946 51.7348 16 52 16C52.2652 16 52.5196 15.8946 52.7071 15.7071C52.8946 15.5196 53 15.2652 53 15V12H54C54.2652 12 54.5196 11.8946 54.7071 11.7071C54.8946 11.5196 55 11.2652 55 11C55 10.7348 54.8946 10.4804 54.7071 10.2929C54.5196 10.1054 54.2652 10 54 10H53V9C53 8.73478 53.1054 8.48043 53.2929 8.29289C53.4804 8.10536 53.7348 8 54 8Z" fill="black"/>
<path d="M59 2H47C46.2044 2 45.4413 2.31607 44.8787 2.87868C44.3161 3.44129 44 4.20435 44 5V7C44 7.26522 44.1054 7.51957 44.2929 7.70711C44.4804 7.89464 44.7348 8 45 8C45.2652 8 45.5196 7.89464 45.7071 7.70711C45.8946 7.51957 46 7.26522 46 7V5C46 4.73478 46.1054 4.48043 46.2929 4.29289C46.4804 4.10536 46.7348 4 47 4H59C59.2652 4 59.5196 4.10536 59.7071 4.29289C59.8946 4.48043 60 4.73478 60 5V17C60 17.2652 59.8946 17.5196 59.7071 17.7071C59.5196 17.8946 59.2652 18 59 18H47C46.7348 18 46.4804 17.8946 46.2929 17.7071C46.1054 17.5196 46 17.2652 46 17V11C46 10.7348 45.8946 10.4804 45.7071 10.2929C45.5196 10.1054 45.2652 10 45 10C44.7348 10 44.4804 10.1054 44.2929 10.2929C44.1054 10.4804 44 10.7348 44 11V17C44 17.7956 44.3161 18.5587 44.8787 19.1213C45.4413 19.6839 46.2044 20 47 20H59C59.7956 20 60.5587 19.6839 61.1213 19.1213C61.6839 18.5587 62 17.7956 62 17V5C62 4.20435 61.6839 3.44129 61.1213 2.87868C60.5587 2.31607 59.7956 2 59 2Z" fill="black"/>
<path d="M49 42C49 42.7911 49.2346 43.5645 49.6741 44.2223C50.1136 44.8801 50.7384 45.3928 51.4693 45.6955C52.2002 45.9983 53.0044 46.0775 53.7804 45.9232C54.5563 45.7688 55.269 45.3878 55.8284 44.8284C56.3878 44.269 56.7688 43.5563 56.9232 42.7804C57.0775 42.0044 56.9983 41.2002 56.6955 40.4693C56.3928 39.7384 55.8801 39.1136 55.2223 38.6741C54.5645 38.2346 53.7911 38 53 38C51.9391 38 50.9217 38.4214 50.1716 39.1716C49.4214 39.9217 49 40.9391 49 42ZM55 42C55 42.3956 54.8827 42.7823 54.663 43.1111C54.4432 43.44 54.1308 43.6964 53.7654 43.8478C53.3999 43.9991 52.9978 44.0388 52.6098 43.9616C52.2219 43.8844 51.8655 43.6939 51.5858 43.4142C51.3061 43.1345 51.1156 42.7782 51.0384 42.3902C50.9613 42.0022 51.0009 41.6001 51.1522 41.2346C51.3036 40.8692 51.56 40.5568 51.8889 40.3371C52.2178 40.1173 52.6044 40 53 40C53.5304 40 54.0392 40.2107 54.4142 40.5858C54.7893 40.9609 55 41.4696 55 42Z" fill="black"/>
<path d="M59 33H47C46.2044 33 45.4413 33.3161 44.8787 33.8787C44.3161 34.4413 44 35.2044 44 36V48C44 48.7956 44.3161 49.5587 44.8787 50.1213C45.4413 50.6839 46.2044 51 47 51H59C59.7956 51 60.5587 50.6839 61.1213 50.1213C61.6839 49.5587 62 48.7956 62 48V46C62 45.7348 61.8946 45.4804 61.7071 45.2929C61.5196 45.1054 61.2652 45 61 45C60.7348 45 60.4804 45.1054 60.2929 45.2929C60.1054 45.4804 60 45.7348 60 46V48C60 48.2652 59.8946 48.5196 59.7071 48.7071C59.5196 48.8946 59.2652 49 59 49H47C46.7348 49 46.4804 48.8946 46.2929 48.7071C46.1054 48.5196 46 48.2652 46 48V36C46 35.7348 46.1054 35.4804 46.2929 35.2929C46.4804 35.1054 46.7348 35 47 35H59C59.2652 35 59.5196 35.1054 59.7071 35.2929C59.8946 35.4804 60 35.7348 60 36V42C60 42.2652 60.1054 42.5196 60.2929 42.7071C60.4804 42.8946 60.7348 43 61 43C61.2652 43 61.5196 42.8946 61.7071 42.7071C61.8946 42.5196 62 42.2652 62 42V36C62 35.2044 61.6839 34.4413 61.1213 33.8787C60.5587 33.3161 59.7956 33 59 33Z" fill="black"/>
<path d="M24.47 13.85C24.6291 13.9486 24.8128 14.0006 25 14C25.1565 13.999 25.3107 13.9614 25.45 13.89L31.45 10.89C31.6138 10.8061 31.7513 10.6786 31.8473 10.5215C31.9433 10.3645 31.994 10.184 31.994 9.99998C31.994 9.81594 31.9433 9.63546 31.8473 9.47843C31.7513 9.32139 31.6138 9.1939 31.45 9.10998L25.45 6.10998C25.2978 6.03327 25.1285 5.99675 24.9581 6.00388C24.7878 6.01102 24.6222 6.06157 24.4769 6.15074C24.3316 6.23992 24.2115 6.36475 24.1281 6.51338C24.0446 6.66201 24.0005 6.82952 24 6.99998V13C23.9997 13.1699 24.0426 13.3372 24.1249 13.4859C24.2071 13.6346 24.3259 13.7599 24.47 13.85ZM26 8.61998L28.76 9.99998L26 11.38V8.61998Z" fill="black"/>
<path d="M27 19C28.78 19 30.5201 18.4722 32.0001 17.4832C33.4802 16.4943 34.6337 15.0887 35.3149 13.4442C35.9961 11.7996 36.1743 9.99004 35.8271 8.24421C35.4798 6.49838 34.6226 4.89473 33.364 3.63606C32.1053 2.37739 30.5016 1.52022 28.7558 1.17295C27.01 0.825685 25.2004 1.00391 23.5558 1.6851C21.9113 2.36629 20.5057 3.51985 19.5168 4.99989C18.5278 6.47993 18 8.21999 18 10C18 12.387 18.9482 14.6762 20.636 16.364C22.3239 18.0518 24.6131 19 27 19ZM27 3.00002C28.3845 3.00002 29.7378 3.41056 30.889 4.17973C32.0401 4.9489 32.9373 6.04215 33.4672 7.32124C33.997 8.60032 34.1356 10.0078 33.8655 11.3657C33.5954 12.7235 32.9287 13.9708 31.9497 14.9498C30.9708 15.9287 29.7235 16.5954 28.3656 16.8655C27.0078 17.1356 25.6003 16.997 24.3212 16.4672C23.0421 15.9374 21.9489 15.0402 21.1797 13.889C20.4105 12.7379 20 11.3845 20 10C20 8.1435 20.7375 6.36303 22.0503 5.05027C23.363 3.73752 25.1435 3.00002 27 3.00002Z" fill="black"/>
<path d="M37 23C37.1553 23 37.3084 22.9638 37.4472 22.8944C37.5861 22.825 37.7069 22.7242 37.8 22.6L40.8 18.6C40.9591 18.3878 41.0275 18.1211 40.99 17.8586C40.9525 17.596 40.8122 17.3591 40.6 17.2C40.3878 17.0408 40.1211 16.9725 39.8586 17.01C39.596 17.0475 39.3591 17.1878 39.2 17.4L36.2 21.4C36.0409 21.6122 35.9725 21.8789 36.0101 22.1414C36.0476 22.404 36.1878 22.6408 36.4 22.8C36.5731 22.9298 36.7836 23 37 23Z" fill="black"/>
<path d="M39.2 26.6C39.2932 26.7242 39.4139 26.825 39.5528 26.8944C39.6916 26.9638 39.8448 27 40 27C40.2164 27 40.4269 26.9298 40.6 26.8L44.6 23.8C44.8122 23.6408 44.9525 23.4039 44.99 23.1414C45.0275 22.8788 44.9591 22.6121 44.8 22.4C44.6409 22.1878 44.404 22.0475 44.1414 22.01C43.8789 21.9725 43.6122 22.0408 43.4 22.2L39.4 25.2C39.1878 25.3591 39.0476 25.596 39.0101 25.8586C38.9725 26.1211 39.0409 26.3878 39.2 26.6Z" fill="black"/>
<path d="M49 28.8C48.9762 28.6674 48.9259 28.541 48.8521 28.4283C48.7783 28.3157 48.6825 28.2191 48.5704 28.1444C48.4583 28.0697 48.3323 28.0184 48.1999 27.9936C48.0676 27.9687 47.9315 27.9709 47.8 28L42.8 29C42.6687 29.0131 42.5412 29.052 42.4249 29.1144C42.3086 29.1768 42.2058 29.2614 42.1222 29.3636C41.9534 29.5699 41.8735 29.8348 41.9 30.1C41.9265 30.3652 42.0573 30.609 42.2636 30.7778C42.4699 30.9466 42.7348 31.0265 43 31H43.2L48.2 30C48.3326 29.9762 48.459 29.9259 48.5716 29.8521C48.6843 29.7783 48.7809 29.6824 48.8556 29.5704C48.9303 29.4583 48.9816 29.3323 49.0064 29.1999C49.0312 29.0675 49.0291 28.9315 49 28.8Z" fill="black"/>
<path d="M3 29H15C15.2652 29 15.5196 28.8946 15.7071 28.7071C15.8946 28.5196 16 28.2652 16 28V12C16 11.7348 15.8946 11.4804 15.7071 11.2929C15.5196 11.1054 15.2652 11 15 11H3C2.73478 11 2.48043 11.1054 2.29289 11.2929C2.10536 11.4804 2 11.7348 2 12V28C2 28.2652 2.10536 28.5196 2.29289 28.7071C2.48043 28.8946 2.73478 29 3 29ZM4 13H14V27H4V13Z" fill="black"/>
<path d="M11 15H9C8.73478 15 8.48043 15.1054 8.29289 15.2929C8.10536 15.4804 8 15.7348 8 16C8 16.2652 8.10536 16.5196 8.29289 16.7071C8.48043 16.8946 8.73478 17 9 17H11C11.2652 17 11.5196 16.8946 11.7071 16.7071C11.8946 16.5196 12 16.2652 12 16C12 15.7348 11.8946 15.4804 11.7071 15.2929C11.5196 15.1054 11.2652 15 11 15Z" fill="black"/>
<path d="M11 19H7C6.73478 19 6.48043 19.1054 6.29289 19.2929C6.10536 19.4804 6 19.7348 6 20C6 20.2652 6.10536 20.5196 6.29289 20.7071C6.48043 20.8946 6.73478 21 7 21H11C11.2652 21 11.5196 20.8946 11.7071 20.7071C11.8946 20.5196 12 20.2652 12 20C12 19.7348 11.8946 19.4804 11.7071 19.2929C11.5196 19.1054 11.2652 19 11 19Z" fill="black"/>
<path d="M11 23H7C6.73478 23 6.48043 23.1054 6.29289 23.2929C6.10536 23.4804 6 23.7348 6 24C6 24.2652 6.10536 24.5196 6.29289 24.7071C6.48043 24.8946 6.73478 25 7 25H11C11.2652 25 11.5196 24.8946 11.7071 24.7071C11.8946 24.5196 12 24.2652 12 24C12 23.7348 11.8946 23.4804 11.7071 23.2929C11.5196 23.1054 11.2652 23 11 23Z" fill="black"/>
<path d="M36.1202 28.7C36.0546 28.5858 35.967 28.4856 35.8627 28.4051C35.7583 28.3247 35.6391 28.2656 35.5119 28.2313C35.3846 28.1969 35.2519 28.1879 35.1212 28.2049C34.9905 28.2218 34.8645 28.2643 34.7502 28.33C34.636 28.3957 34.5358 28.4832 34.4553 28.5876C34.3749 28.692 34.3158 28.8112 34.2815 28.9384C34.2471 29.0656 34.2382 29.1983 34.2551 29.329C34.272 29.4597 34.3146 29.5858 34.3802 29.7L38.7902 37.33L22.7902 43.33C22.7902 43.33 22.7902 43.33 22.7202 43.33H22.6402L20.0402 44.83L18.3102 45.83C18.0825 45.9617 17.831 46.0471 17.5701 46.0814C17.3093 46.1157 17.0443 46.0983 16.7902 46.03C16.2798 45.8921 15.8448 45.5577 15.5802 45.1L13.5802 41.64C13.3449 41.1873 13.2915 40.6618 13.431 40.1711C13.5704 39.6803 13.8921 39.2614 14.3302 39L17.7902 37L20.2902 41.33C20.3783 41.4826 20.5052 41.6092 20.658 41.697C20.8107 41.7848 20.984 41.8307 21.1602 41.83C21.3361 41.8307 21.509 41.785 21.6616 41.6975C21.8142 41.61 21.941 41.4839 22.0292 41.3317C22.1175 41.1796 22.164 41.0069 22.1642 40.831C22.1644 40.6551 22.1182 40.4823 22.0302 40.33L19.4502 35.87L32.0002 25.52L32.4102 26.23C32.4759 26.3443 32.5634 26.4445 32.6678 26.5249C32.7722 26.6053 32.8914 26.6644 33.0186 26.6987C33.1458 26.7331 33.2785 26.7421 33.4092 26.7251C33.5399 26.7082 33.666 26.6657 33.7802 26.6C33.8945 26.5343 33.9947 26.4468 34.0751 26.3424C34.1555 26.2381 34.2146 26.1188 34.249 25.9916C34.2833 25.8644 34.2923 25.7317 34.2753 25.601C34.2584 25.4703 34.2159 25.3443 34.1502 25.23L33.1502 23.5C33.0769 23.3747 32.9773 23.2669 32.8581 23.184C32.7389 23.1011 32.6032 23.0451 32.4602 23.02C32.3165 22.9929 32.1686 22.9977 32.0269 23.034C31.8852 23.0702 31.7532 23.1372 31.6402 23.23L17.6402 34.77L13.3802 37.23C12.6157 37.6753 12.0204 38.3615 11.6875 39.1811C11.3546 40.0008 11.3028 40.9077 11.5402 41.76L10.5402 42.33C10.025 42.6259 9.6092 43.0681 9.34559 43.6006C9.08199 44.1331 8.98244 44.7318 9.05956 45.321C9.13668 45.9101 9.38701 46.4631 9.77879 46.9097C10.1706 47.3564 10.6862 47.6767 11.2602 47.83C11.5147 47.8974 11.777 47.931 12.0402 47.93C12.5663 47.9278 13.0829 47.7901 13.5402 47.53L14.5402 46.96C15.0206 47.4562 15.6247 47.8153 16.2902 48C16.6319 48.0956 16.9854 48.1427 17.3402 48.14C18.0431 48.1416 18.7337 47.9552 19.3402 47.6L20.2102 47.1L22.2102 50.57C22.6077 51.2572 23.2613 51.7588 24.028 51.965C24.7946 52.1712 25.6117 52.0651 26.3002 51.67C26.6418 51.4732 26.9413 51.211 27.1815 50.8983C27.4217 50.5857 27.5979 50.2288 27.7 49.848C27.8022 49.4672 27.8283 49.07 27.7769 48.6792C27.7254 48.2883 27.5974 47.9114 27.4002 47.57L25.5802 44.4L40.5802 38.77C40.7163 38.7189 40.8395 38.6387 40.9414 38.5351C41.0433 38.4315 41.1214 38.3069 41.1702 38.17C41.2189 38.0348 41.2378 37.8906 41.2258 37.7474C41.2137 37.6041 41.1709 37.4652 41.1002 37.34L36.1202 28.7ZM12.5002 45.79C12.3863 45.8558 12.2606 45.8986 12.1302 45.9157C11.9998 45.9329 11.8673 45.9241 11.7402 45.89C11.484 45.8234 11.2647 45.658 11.1302 45.43C11.0644 45.3161 11.0217 45.1904 11.0045 45.06C10.9873 44.9296 10.9961 44.797 11.0302 44.67C11.0644 44.5423 11.1235 44.4227 11.2042 44.3179C11.2848 44.2132 11.3855 44.1256 11.5002 44.06L12.3702 43.56L13.3702 45.29L12.5002 45.79ZM25.6602 48.59C25.7261 48.7039 25.7688 48.8296 25.7859 48.96C25.8031 49.0905 25.7944 49.223 25.7602 49.35C25.6889 49.6042 25.52 49.8199 25.2902 49.95C25.0618 50.0812 24.7909 50.117 24.5362 50.0496C24.2816 49.9822 24.0638 49.817 23.9302 49.59L21.9302 46.12L23.5902 45.17H23.6702L25.6602 48.59Z" fill="black"/>
</svg>
