<?xml version="1.0" encoding="UTF-8" standalone="no"?>
<svg width="64" xmlns="http://www.w3.org/2000/svg" fill="none" viewBox="0 0 64 64" height="64">
 <g fill="#000" clip-path="url(#clip0)">
  <path d="m12.8 10.667c0.589 0 1.067-0.478 1.067-1.067v-1.0667c0.004-3.3054 2.523-6.0647 5.814-6.3701l2.56 4.2666c0.387 0.6418 1.08 1.035 1.829 1.0368h15.86c0.748-0.002 1.441-0.3947 1.828-1.0357l2.56-4.2667c3.291 0.3049 5.81 3.0638 5.815 6.3691v17.067c0 0.589 0.478 1.067 1.067 1.067s1.067-0.478 1.067-1.067v-17.067c-0.006-4.7103-3.823-8.5277-8.534-8.533h-23.466c-4.711 0.0052753-8.528 3.8227-8.534 8.5333v1.0667c0 0.589 0.478 1.067 1.067 1.067zm27.13-5.3337h-15.86l-1.92-3.2h19.7l-1.92 3.2z"/>
  <path d="m52.267 55.467v-6.4c0-0.589-0.478-1.067-1.067-1.067s-1.067 0.478-1.067 1.067v6.4c-0.003 3.533-2.866 6.396-6.4 6.4h-23.466c-3.533-0.004-6.397-2.867-6.4-6.4v-18.134c0-0.589-0.478-1.066-1.067-1.066s-1.067 0.477-1.067 1.066v18.134c0.006 4.71 3.823 8.528 8.534 8.533h23.466c4.711-0.005 8.528-3.823 8.534-8.533z"/>
  <path d="m42.667 58.667c0.589 0 1.067-0.478 1.067-1.067s-0.478-1.067-1.067-1.067h-21.333c-0.589 0-1.067 0.478-1.067 1.067s0.478 1.067 1.067 1.067h21.333z"/>
  <path d="m7.4669 34.133h12.548l7.017 6.137c0.333 0.291 0.811 0.346 1.202 0.138 0.39-0.207 0.612-0.635 0.558-1.074l-0.65-5.201h0.658c2.357 0 4.267-1.91 4.267-4.266v-12.8c0-2.357-1.91-4.267-4.267-4.267h-21.333c-2.3566 0-4.2668 1.91-4.2668 4.267v12.8c0 2.356 1.9102 4.266 4.2667 4.266zm-2.1334-17.066c0-1.179 0.9552-2.134 2.1334-2.134h21.333c1.178 0 2.134 0.955 2.134 2.134v12.8c0 1.178-0.956 2.133-2.134 2.133h-1.866c-0.306 0-0.598 0.132-0.8 0.361s-0.296 0.534-0.259 0.838l0.453 3.621-5.208-4.557c-0.195-0.17-0.445-0.263-0.704-0.263h-12.949c-1.1783 0-2.1335-0.955-2.1335-2.133v-12.8z"/>
  <path d="m8.5335 22.4h2.1335c0.589 0 1.067-0.478 1.067-1.067s-0.478-1.066-1.067-1.066h-2.1335c-0.5891 0-1.0667 0.477-1.0667 1.066s0.4776 1.067 1.0667 1.067z"/>
  <path d="m14.933 22.4h12.8c0.589 0 1.067-0.478 1.067-1.067s-0.478-1.066-1.067-1.066h-12.8c-0.589 0-1.066 0.477-1.066 1.066s0.477 1.067 1.066 1.067z"/>
  <path d="m27.734 24.533h-2.134c-0.589 0-1.066 0.478-1.066 1.067s0.477 1.067 1.066 1.067h2.134c0.589 0 1.066-0.478 1.066-1.067s-0.477-1.067-1.066-1.067z"/>
  <path d="m8.5335 26.667h12.8c0.589 0 1.066-0.478 1.066-1.067s-0.477-1.067-1.066-1.067h-12.8c-0.5896 0-1.0672 0.478-1.0672 1.067s0.4776 1.067 1.0667 1.067z"/>
  <path d="m35.2 33.067v8.533c0 2.356 1.91 4.267 4.267 4.267h0.658l-0.65 5.201c-0.054 0.439 0.168 0.866 0.558 1.074 0.391 0.207 0.869 0.152 1.202-0.139l7.017-6.136h8.282c2.356 0 4.266-1.911 4.266-4.267v-8.533c0-2.357-1.91-4.267-4.266-4.267h-17.067c-2.357 0-4.267 1.91-4.267 4.267zm23.467 0v8.533c0 1.178-0.955 2.133-2.133 2.133h-8.683c-0.258 0-0.508 0.094-0.702 0.264l-5.21 4.557 0.453-3.622c0.038-0.303-0.057-0.608-0.259-0.838-0.202-0.229-0.494-0.361-0.799-0.361h-1.867c-1.178 0-2.133-0.955-2.133-2.133v-8.533c0-1.179 0.955-2.134 2.133-2.134h17.067c1.178 0 2.133 0.955 2.133 2.134z"/>
  <path d="m53.334 36.267h2.133c0.589 0 1.067-0.478 1.067-1.067s-0.478-1.067-1.067-1.067h-2.133c-0.589 0-1.067 0.478-1.067 1.067s0.478 1.067 1.067 1.067z"/>
  <path d="m40.534 36.267h8.533c0.589 0 1.067-0.478 1.067-1.067s-0.478-1.067-1.067-1.067h-8.533c-0.59 0-1.067 0.478-1.067 1.067s0.477 1.067 1.067 1.067z"/>
  <path d="m42.667 38.4h-2.133c-0.59 0-1.067 0.478-1.067 1.067s0.477 1.066 1.067 1.066h2.133c0.589 0 1.067-0.477 1.067-1.066s-0.478-1.067-1.067-1.067z"/>
  <path d="m55.467 38.4h-8.534c-0.589 0-1.066 0.478-1.066 1.067s0.477 1.066 1.066 1.066h8.534c0.589 0 1.066-0.477 1.066-1.066s-0.477-1.067-1.066-1.067z"/>
 </g>
 <defs>
  <clipPath id="clip0">
   <rect width="64" fill="#fff" height="64"/>
  </clipPath>
 </defs>
</svg>
